<?xml version="1.0" standalone="no"?>
<!DOCTYPE svg PUBLIC "-//W3C//DTD SVG 1.1//EN" "http://www.w3.org/Graphics/SVG/1.1/DTD/svg11.dtd" >
<svg>
<metadata>
Created by FontForge 20090914 at Thu Dec 15 09:50:37 2022
 By www-data
</metadata>
<defs>
<font id="BestermindRegular" horiz-adv-x="0" >
  <font-face 
    font-family="Bestermind"
    font-weight="400"
    font-stretch="normal"
    units-per-em="2048"
    panose-1="0 0 0 0 0 0 0 0 0 0"
    ascent="1638"
    descent="-410"
    x-height="847.998"
    cap-height="2287"
    bbox="-491.168 -1179 2928 2455"
    underline-thickness="102"
    underline-position="-205"
    unicode-range="U+000A-U+FB06"
  />
<missing-glyph horiz-adv-x="1079" 
d="M102 1434h875v-1434h-875v1434zM160 1393l379 -633l381 633h-760zM514 717l-369 614v-1231zM541 674l-379 -631h758zM565 717l371 -621v1239z" />
    <glyph glyph-name="tt.liga" unicode="tt" horiz-adv-x="972" 
d="M1100 1273c131.333 17.333 258.338 14.668 381.005 -7.99902c95.333 -17.333 147 -40 155 -68c2 -8 -0.333008 -16.333 -7 -25c-8.66699 -10.667 -17.834 -15.834 -27.501 -15.501s-30.834 6.16602 -63.501 17.499c-42 12.667 -116.333 20.5 -223 23.5
s-200 -0.166992 -280 -9.5l-104 -13l-24 -65c-45.333 -124.667 -110 -333 -194 -625s-143.333 -515 -178 -669c-46 -205.333 -72.833 -390.5 -80.5 -555.5s5.16602 -281.167 38.499 -348.5c17.333 -34.667 25.166 -58.5 23.499 -71.5s-13.834 -19.5 -36.501 -19.5
c-18.667 0 -40 23.667 -64 71c-22 46 -35.833 118.667 -41.5 218s-2.16699 203 10.5 311c12.667 105.333 40.834 254.5 84.501 447.5s88.834 370.833 135.501 533.5c51.333 174.667 80.333 275.667 87 303c1.33301 5.33301 -1.66699 2.66602 -9 -8.00098
c-19.333 -26 -49.333 -73.667 -90 -143c-70 -119.333 -122.667 -203.5 -158 -252.5s-68.333 -82.5 -99 -100.5c-31.333 -19.333 -56.333 -29.166 -75 -29.499s-39.334 8.5 -62.001 26.5c-14 11.333 -23.167 23.833 -27.5 37.5s-6.16602 36.167 -5.49902 67.5
c3.33301 88 49 275.333 137 562c37.333 116.667 53.666 177.334 48.999 182.001c-4 4 -52.333 -9.66699 -145 -41c-116 -39.333 -183.667 -58.333 -203 -57c-13.333 2 -20 10.667 -20 26c0 19.333 20.167 38.833 60.5 58.5s113.5 45.167 219.5 76.5l136 40l50 135
c29.333 76 72.5 172.667 129.5 290s97.5 192.333 121.5 225c22.667 29.333 48 44 76 44c19.333 0 31.5 -2.66699 36.5 -8s7.5 -19.333 7.5 -42c0 -35.333 -11.167 -92.166 -33.5 -170.499s-49.5 -155.833 -81.5 -232.5c-38 -93.333 -58.333 -146.333 -61 -159
c-3.33301 -17.333 2 -26.333 16 -27c6 0 34 4.33301 84 13c60 11.333 98 20.166 114 26.499s24 15.833 24 28.5c0 8.66699 29.167 95.5 87.5 260.5s100.166 278.833 125.499 341.5c37.333 93.333 72.833 158.5 106.5 195.5s64.167 44.167 91.5 21.5
c15.333 -12 23 -30.333 23 -55c0 -39.333 -19.167 -107.5 -57.5 -204.5s-88.5 -204.167 -150.5 -321.5c-87.333 -164.667 -130.333 -247.667 -129 -249c6 -2 46 1.66699 120 11zM1177 1860c-10 -16 -15 -29.001 -15 -39.001c0 -8 3.33301 -7.66699 10 1
c2 2 3.66699 4.33301 5 7c10.667 17.333 16 30 16 38c0 6.66699 -3 7.33398 -9 2.00098c-2 -2 -4.33301 -5 -7 -9zM551.005 1325c-36 -88.667 -53.666 -136 -52.999 -142c1.33301 -3.33301 5.66602 -5 12.999 -5c4 0 9.66699 4.5 17 13.5s14.333 19.833 21 32.5
c21.333 41.333 54 119.5 98 234.5s64 174.5 60 178.5c-2.66699 2 -7.5 -2 -14.5 -12s-15.833 -25 -26.5 -45s-22.167 -43.167 -34.5 -69.5l-39.5 -88zM768.006 1050c29.333 54 42.3359 84.6689 39.0029 92.002c-2.66699 3.33301 -8.33398 5 -17.001 5
c-22 0 -60.167 -6.16699 -114.5 -18.5s-86.166 -22.166 -95.499 -29.499c-12 -8 -35 -13.667 -69 -17c-7.33301 -0.666992 -12.833 -1.33398 -16.5 -2.00098s-7.83398 -1.33398 -12.501 -2.00098s-8.33398 -2.5 -11.001 -5.5s-5.66699 -5.66699 -9 -8s-6.33301 -7 -9 -14
s-5.5 -13.333 -8.5 -19s-6.66699 -14.667 -11 -27l-12 -34.5l-15.5 -45c0 -0.666992 -0.166992 -1.16699 -0.5 -1.5s-0.5 -0.833008 -0.5 -1.5c-36 -108.667 -71.333 -230 -106 -364s-52 -215.667 -52 -245c0 -20.667 3.5 -34.834 10.5 -42.501s17 -8.5 30 -2.5
s28.833 18.667 47.5 38c33.333 36 67.166 81.667 101.499 137s84.833 145.333 151.5 270l104 194.5z" />
    <glyph glyph-name="ll.liga" unicode="ll" horiz-adv-x="1071" 
d="M1140 570c6.66699 -1.33301 12.668 -4.83496 18.001 -10.502s8.66602 -12.167 9.99902 -19.5c3.33301 -16 -41 -118.833 -133 -308.5s-160 -318.5 -204 -386.5c-71.333 -111.333 -135.333 -182.5 -192 -213.5s-110.667 -24.5 -162 19.5
c-62.667 52.667 -88.334 171.167 -77.001 355.5s59.333 422.166 144 713.499c66 228.667 129.833 420.334 191.5 575.001s113.834 255 156.501 301c16 17.333 31.333 28.833 46 34.5s26.334 5 35.001 -2s13 -19.5 13 -37.5c0 -40 -12.5 -114.5 -37.5 -223.5
s-49.167 -193.167 -72.5 -252.5c-30.667 -80 -70.167 -165 -118.5 -255s-86.5 -149.333 -114.5 -178c-22 -22 -42 -62 -60 -120s-41.667 -157.333 -71 -298c-19.333 -92 -29 -196.833 -29 -314.5s9 -190.167 27 -217.5c33.333 -51.333 75.333 -54.333 126 -9
c66 60 168.333 227.667 307 503l37 73l64 126c17.333 33.333 32.666 61.333 45.999 84s24 38.834 32 48.501s14 13.834 18 12.501zM861.001 1385c-8.66699 -8.66699 -38.999 -83.667 -90.999 -225s-78 -219 -78 -233c0.666992 -12.667 8.66699 -4.66699 24 24
c18.667 34.667 42.334 86.667 71.001 156c35.333 84.667 60.666 164 75.999 238c7.33301 34.667 6.66602 48 -2.00098 40zM553.002 1186c-72 -150 -126.001 -224.998 -162.001 -224.998c-27.333 0 -36 16.333 -26 49c6.66699 21.333 20 45.666 40 72.999
c50.667 70.667 95.667 158 135 262s58.333 185 57 243c-0.666992 34.667 -18 17.334 -52 -51.999c-60 -122 -129.667 -305.667 -209 -551c-22 -66.667 -42 -131.334 -60 -194.001c-103.333 -353.333 -175.166 -646.333 -215.499 -879s-43.833 -373 -10.5 -421
c11.333 -16 17.166 -30.667 17.499 -44s-3.16699 -22.833 -10.5 -28.5s-17.666 -6.83398 -30.999 -3.50098s-26.666 12 -39.999 26c-41.333 46.667 -53 148.167 -35 304.5s69 396.166 153 719.499c88 337.333 176.667 624.833 266 862.5s163.333 383.167 222 436.5
c16 14 28.667 22 38 24s20.333 -0.666992 33 -8c15.333 -8 24.166 -18.667 26.499 -32s1.5 -47.666 -2.5 -102.999c-6.66699 -83.333 -19.667 -158.333 -39 -225s-51 -144.667 -95 -234z" />
    <glyph glyph-name="lfi.liga" unicode="lfi" horiz-adv-x="1556" 
d="M1237 1187c-11.333 0 -20.001 7.99902 -26.001 23.999c-6.66699 17.333 -4.16699 31.5 7.5 42.5s23.834 10.833 36.501 -0.5c9.33301 -9.33301 11.833 -22.666 7.5 -39.999s-12.833 -26 -25.5 -26zM1695 612.999c12 -10 18.4961 -18.5 19.4961 -25.5
s-2.5 -16.667 -10.5 -29s-25.333 -33.5 -52 -63.5c-44 -49.333 -96.833 -96.333 -158.5 -141s-112.167 -72.334 -151.5 -83.001c-40 -11.333 -81.833 -9.66602 -125.5 5.00098s-73.5 37.334 -89.5 68.001c-11.333 22 -18 60.667 -20 116s1.33301 114 10 176l10 78l-47 -54
c-102 -118.667 -190.667 -230.667 -266 -336c-26 -36 -41.167 -60.5 -45.5 -73.5s-2.16602 -28.5 6.50098 -46.5c7.33301 -15.333 10.5 -37 9.5 -65s-6.83301 -73.667 -17.5 -137c-22 -134 -60.333 -270.167 -115 -408.5s-106.334 -229.833 -155.001 -274.5
c-24.667 -22.667 -55.167 -35.667 -91.5 -39s-67.833 4.33398 -94.5 23.001c-53.333 37.333 -70.666 125.666 -51.999 264.999c8.66699 57.333 24.5 130.666 47.5 219.999s46.167 166.666 69.5 231.999c13.333 36.667 16 58.667 8 66
c-5.33301 4.66699 -13.666 -2.33301 -24.999 -21c-13.333 -20 -35.666 -39.667 -66.999 -59s-57.666 -29 -78.999 -29c-56.667 0 -90.667 39.833 -102 119.5s-0.333008 201.834 33 366.501c28 137.333 78 317.5 150 540.5s138.667 404.167 200 543.5
c49.333 110.667 99.5 191.167 150.5 241.5s92.167 59.833 123.5 28.5c59.333 -59.333 4 -289.666 -166 -690.999c-139.333 -324.667 -245 -500.667 -317 -528c-13.333 -4.66699 -24.166 -15.834 -32.499 -33.501s-18.166 -48.834 -29.499 -93.501
c-18 -74 -29.833 -158.333 -35.5 -253s-1.83398 -146.334 11.499 -155.001c29.333 -18.667 89.333 32.333 180 153c52 68.667 93 134.334 123 197.001s72.667 173.334 128 332.001c104 294.667 182.833 509.5 236.5 644.5s91.834 213.833 114.501 236.5
c18.667 18.667 45.334 27.167 80.001 25.5s57.334 -12.5 68.001 -32.5c20.667 -37.333 1.5 -130.166 -57.5 -278.499s-151.5 -336.5 -277.5 -564.5c-86 -156.667 -145.333 -270.167 -178 -340.5s-69.334 -163.5 -110.001 -279.5c-144 -413.333 -197 -671.333 -159 -774
c6.66699 -18 22.167 -26 46.5 -24s45.833 13.333 64.5 34c33.333 35.333 74.166 114.166 122.499 236.499s80.5 228.166 96.5 317.499c21.333 116 29.666 185 24.999 207c-4 18.667 -17.667 25 -41 19c-8.66699 -1.33301 -20.667 -5 -36 -11c-21.333 -8 -37 -12 -47 -12
s-19 4 -27 12c-14 14 -14 29.833 0 47.5s37.333 31.167 70 40.5c20.667 6 39.5 16.333 56.5 31s36.167 38 57.5 70c44.667 64 104.5 142 179.5 234s129.167 153.667 162.5 185c41.333 39.333 72.833 64.166 94.5 74.499s40.5 9.16602 56.5 -3.50098
c13.333 -9.33301 19.666 -20.666 18.999 -33.999s-9 -46.333 -25 -99c-20 -66 -31.833 -133.167 -35.5 -201.5s2.16602 -111.833 17.499 -130.5c15.333 -17.333 41 -25.666 77 -24.999s71.667 10.334 107 29.001c16 8 40.667 25.833 74 53.5s65.666 56.834 96.999 87.501
c46.667 48 78.334 77.667 95.001 89s30.334 12.666 41.001 3.99902zM809.995 1012c-17.333 -48 -20.999 -66.332 -10.999 -54.999c13.333 16 46.666 79.667 99.999 191c101.333 213.333 152 346 152 398c0 43.333 -16.667 30.666 -50 -38.001
c-28 -58 -63.667 -147 -107 -267l-50 -135.5zM362.996 959c-47.333 -146.667 -71 -224 -71 -232c0.666992 -12 13.667 1 39 39c18.667 27.333 41 64.333 67 111c60.667 108.667 127.834 260.5 201.501 455.5s110.5 318.167 110.5 369.5l-1 50l-32 -38
c-74.667 -89.333 -179.334 -341 -314.001 -755z" />
    <glyph glyph-name="ee.liga" unicode="ee" horiz-adv-x="915" 
d="M1001 496c19.333 -19.333 14.3291 -38.3311 -15.0039 -56.998c-19.333 -12 -52.666 -26.667 -99.999 -44c-126 -46 -229 -61 -309 -45c-27.333 4.66699 -51 5.33398 -71 2.00098s-48.667 -12.666 -86 -27.999c-56.667 -22.667 -119 -35.167 -187 -37.5
s-116.333 6.5 -145 26.5c-56 38 -83.833 85.667 -83.5 143s28.5 111.666 84.5 162.999c25.333 23.333 45.5 38.166 60.5 44.499s34.833 8.5 59.5 6.5s40.667 -5.66699 48 -11s12 -17.333 14 -36c2.66699 -25.333 -2.66602 -47 -15.999 -65s-44.666 -46.667 -93.999 -86
l-73 -60l35 -23c14.667 -10.667 35.334 -17.667 62.001 -21s54.5 -3.16602 83.5 0.500977s56.833 9.16699 83.5 16.5s48.667 17 66 29s26 24.667 26 38c0 46 22.833 110.5 68.5 193.5s88.5 137.5 128.5 163.5c24 15.333 52 22.666 84 21.999s60.333 -9 85 -25
c24.667 -16.667 37 -42.334 37 -77.001c0 -22 -7.16699 -43.833 -21.5 -65.5s-46.166 -58.834 -95.499 -111.501l-118 -126h67c41.333 0 102.666 15.667 183.999 47c50.667 20 84.167 31.333 100.5 34s28.833 -1 37.5 -11zM74.9961 470.002c88 68 132 109.001 132 123.001
c0 10.667 -10.667 13.667 -32 9c-22.667 -4.66699 -42.667 -16.334 -60 -35.001c-16 -18 -27.333 -36 -34 -54s-8.66699 -32.333 -6 -43zM531.996 483.003l47.998 34.001c32.667 22.667 72.334 60.334 119.001 113.001c50.667 55.333 70.667 89.666 60 102.999
c-6 7.33301 -20.333 11 -43 11c-17.333 0 -32.666 -5.5 -45.999 -16.5s-32 -33.833 -56 -68.5c-42 -62.667 -65.333 -106.334 -70 -131.001z" />
    <glyph glyph-name="oo.liga" unicode="oo" horiz-adv-x="1028" 
d="M1102 634c6.66699 -16.667 1.83398 -30.165 -14.499 -40.498s-41.166 -15.5 -74.499 -15.5h-63v-70c-0.666992 -40.667 -15 -81 -43 -121s-66 -73.333 -114 -100c-36 -20.667 -78 -32 -126 -34s-84.333 5.66699 -109 23c-33.333 22.667 -42.333 71.167 -27 145.5
s49.333 146.833 102 217.5c22 29.333 30 47 24 53s-28 2 -66 -12c-23.333 -8.66699 -81.333 -25 -174 -49c-31.333 -6.66699 -62 -16 -92 -28s-51 -23 -63 -33l-40 -35l48 -10c27.333 -6.66699 53.166 -20.167 77.499 -40.5s36.5 -38.833 36.5 -55.5
c0 -22.667 -9.83301 -48.5 -29.5 -77.5s-40.834 -49.167 -63.501 -60.5c-62 -32 -113.333 -28.333 -154 11c-16.667 15.333 -26.334 30.166 -29.001 44.499s-1.66699 45.833 3 94.5c2.66699 29.333 7.33398 58.166 14.001 86.499s13.334 47.166 20.001 56.499
c14 20.667 51.667 44.834 113 72.501s128.666 50.5 201.999 68.5c70 18 135.333 39.667 196 65c65.333 25.333 107.333 36.333 126 33c20 -4 30.5 -15.833 31.5 -35.5s-7.5 -42.5 -25.5 -68.5c-21.333 -29.333 -32 -47.333 -32 -54c0 -6 56.333 -9 169 -9
c64.667 0 109.667 -1.5 135 -4.5s39.333 -8.83301 42 -17.5zM235 442.002c-28.667 2.66699 -45.333 -5.33301 -50 -24c-6.66699 -36.667 0 -59.5 20 -68.5s43.333 0.833008 70 29.5c35.333 38 22 59 -40 63zM771.001 369.002c30 22 55.6641 47.667 76.9971 77
s32 53.666 32 72.999c0 35.333 -40.667 55.333 -122 60c-31.333 2.66699 -52.166 1.16699 -62.499 -4.5s-24.166 -23.167 -41.499 -52.5c-20 -33.333 -34.667 -67.666 -44 -102.999s-9.66602 -59.333 -0.999023 -72c9.33301 -15.333 31.833 -20.5 67.5 -15.5
s67.167 17.5 94.5 37.5z" />
    <glyph glyph-name="go.liga" unicode="go" horiz-adv-x="1345" 
d="M1320 784c16 -6 22.4961 -16.6621 19.4961 -31.9951s-14.5 -29.333 -34.5 -42c-14.667 -9.33301 -25.167 -21.5 -31.5 -36.5s-11.5 -39.833 -15.5 -74.5c-5.33301 -56.667 -26.333 -113 -63 -169c-48.667 -72.667 -97.834 -121.167 -147.501 -145.5
s-95.167 -21.833 -136.5 7.5c-21.333 14.667 -33.166 43.167 -35.499 85.5s5.16699 87.833 22.5 136.5c14.667 41.333 18.334 62.333 11.001 63c-10.667 1.33301 -56 -34.667 -136 -108l-104 -97l-43 -40c-103.333 -96 -166.166 -167.5 -188.499 -214.5
s-49.166 -165.5 -80.499 -355.5c-2 -12.667 -3.66699 -22.5 -5 -29.5l-5 -27c-2 -11 -3.66699 -21.5 -5 -31.5c-38 -227.333 -66.333 -375.333 -85 -444s-43.667 -115.334 -75 -140.001c-22.667 -18 -57.5 -28.167 -104.5 -30.5s-85.833 4.16699 -116.5 19.5
c-72 36 -108 111.667 -108 227c0 44 3.66699 79.667 11 107s24.333 68.666 51 123.999c37.333 76.667 73.833 142 109.5 196s96.5 136 182.5 246l131 169l29 157c20.667 109.333 32.667 170 36 182c8 24.667 1.33301 36 -20 34c-26.667 -2.66699 -67 -22.667 -121 -60
c-70.667 -48.667 -128.167 -72 -172.5 -70s-66.5 28.667 -66.5 80c0 26.667 23.5 71.834 70.5 135.501s89.833 108.5 128.5 134.5c35.333 24.667 72.666 37.667 111.999 39s69.333 -9.33398 90 -32.001l29 -33l49 64c14 17.333 28.667 32.166 44 44.499s27 18.5 35 18.5
c20.667 0 33 -9.33301 37 -28s-2.33301 -37.334 -19 -56.001c-53.333 -58.667 -95 -164 -125 -316c-21.333 -100.667 -32 -156 -32 -166c0 -6.66699 54.667 41.666 164 144.999c90.667 87.333 184.834 169 282.501 245s156.834 114 177.501 114c18.667 0 31 -7.66699 37 -23
c11.333 -30 55 -28 131 6c44 19.333 72.667 26.333 86 21zM177.996 496.005c48.667 32.667 91.834 67.001 129.501 103.001s56.5 60.667 56.5 74c0 28 -16.333 36 -49 24c-20.667 -8.66699 -44.334 -23.667 -71.001 -45c-28.667 -23.333 -59.667 -55.333 -93 -96
s-50 -66.334 -50 -77.001c0 -12 12.667 -13.333 38 -4c12.667 4.66699 25.667 11.667 39 21zM279.996 -198.994c16.667 96 22.666 146.333 17.999 151c-5.33301 5.33301 -28 -17.167 -68 -67.5s-83.167 -110.5 -129.5 -180.5s-80.833 -127 -103.5 -171
c-11.333 -22 -20.833 -45.5 -28.5 -70.5s-11.167 -44.5 -10.5 -58.5c1.33301 -33.333 -2.66699 -50 -12 -50c-4.66699 0 -8.5 -7 -11.5 -21s-4.5 -30.667 -4.5 -50c0 -47.333 11.833 -83.5 35.5 -108.5s57.834 -37.5 102.501 -37.5c28.667 0 48 3 58 9s21.667 22.333 35 49
c19.333 39.333 40 126 62 260l30.5 185.5zM1072 402.006c30.667 32.667 57.332 69.5 79.999 110.5s34 72.833 34 95.5c0 13.333 -3.66699 22 -11 26s-23 5.66699 -47 5c-38.667 0 -68 -7.66699 -88 -23c-15.333 -11.333 -33.666 -45.666 -54.999 -102.999
s-32 -101.333 -32 -132c0 -26 11.667 -37.333 35 -34c24.667 3.33301 52.667 21.666 84 54.999z" />
    <glyph glyph-name="so.liga" unicode="so" horiz-adv-x="1245" 
d="M1307 721c14.667 -24 5.66992 -38.0029 -26.9971 -42.0029c-15.333 -1.33301 -36.666 -1.33301 -63.999 0l-88 5l-11 -72c-6.66699 -48 -18.5 -90.667 -35.5 -128s-36.5 -61.666 -58.5 -72.999c-30.667 -16 -62.5 -22.5 -95.5 -19.5s-61.833 9.83301 -86.5 20.5
s-41.334 21.667 -50.001 33l-31 38l-79 -88l-187 -207l-108 -117l35 -70c39.333 -78.667 56.333 -139 51 -181s-36.333 -88.333 -93 -139c-64 -57.333 -130.833 -95.166 -200.5 -113.499s-119.167 -11.166 -148.5 21.501c-30 33.333 -33.167 78.666 -9.5 135.999
s75.5 131.333 155.5 222c43.333 40 77.666 80.667 102.999 122c-24.667 58 -41.5 128.5 -50.5 211.5s-9.5 165.667 -1.5 248s21.167 159.833 39.5 232.5s43 132.334 74 179.001s64.5 71.334 100.5 74.001c45.333 3.33301 78.333 -10.667 99 -42s26.5 -74.333 17.5 -129
s-32.167 -112.334 -69.5 -173.001c-22.667 -38.667 -46.334 -61 -71.001 -67c-14.667 -3.33301 -23.334 2 -26.001 16c-2 13.333 3 31.166 15 53.499l41.5 80c15.667 31 25.834 61.167 30.501 90.5c7.33301 48 4.66602 77.667 -8.00098 89
c-5.33301 4.66699 -11.666 3.66699 -18.999 -3c-29.333 -27.333 -56 -73.5 -80 -138.5s-41.5 -134.833 -52.5 -209.5s-14.333 -151.5 -10 -230.5s17.833 -144.167 40.5 -195.5c7.33301 3.33301 76.333 76.333 207 219c151.333 164 237.333 255.333 258 274
c18.667 16.667 33.334 23.334 44.001 20.001c1.33301 0 3.33301 -0.666992 6 -2c17.333 -6 23.333 -20 18 -42c-8 -31.333 -13.5 -53.5 -16.5 -66.5s-5 -25.167 -6 -36.5s-0.333008 -18.666 2 -21.999s6.16602 -6.66602 11.499 -9.99902c18 -12 40.333 -17.833 67 -17.5
s47.334 7.83301 62.001 22.5c19.333 20 31.666 57.667 36.999 113c4 35.333 4.5 55.666 1.5 60.999s-15.5 7.33301 -37.5 6c-84 -6 -128 2.33301 -132 25c-2.66699 12.667 9.33301 28 36 46c30.667 22 101.167 29.667 211.5 23s173.166 -22.334 188.499 -47.001z
M391.003 -151.003c0 19.333 -8.16699 48.499 -24.5 87.499s-28.833 58.5 -37.5 58.5c-15.333 0 -60.5 -49.667 -135.5 -149s-112.5 -159.333 -112.5 -180c0 -15.333 8.66699 -24.833 26 -28.5s39.833 -1.16699 67.5 7.5s55.167 22.334 82.5 41.001
c89.333 58.667 134 113 134 163z" />
    <glyph glyph-name="son.liga" unicode="son" horiz-adv-x="2193" 
d="M2325 481c2 -12 2.82324 -21.6689 2.49023 -29.002s-9.33301 -13.5 -27 -18.5s-39.834 -8.83301 -66.5 -11.5c-26.667 -2.66699 -65.667 -5.33398 -117 -8.00098c-78.667 -4 -133.834 -4.83301 -165.501 -2.5s-62.167 9.16602 -91.5 20.499
c-37.333 14 -71 35.833 -101 65.5s-49 60.167 -57 91.5c-6 25.333 -12.333 38 -19 38c-3.33301 0 -53.666 -46.667 -150.999 -140c-38 -38 -73.667 -70.667 -107 -98s-53.666 -41 -60.999 -41c-17.333 0 -39.333 13.333 -66 40c-18 18 -28.667 33.167 -32 45.5
s-2.66602 37.166 2.00098 74.499c6.66699 50 35.667 132.333 87 247l51.5 119.5c13 31 18.5 46.5 16.5 46.5c-6.66699 0 -48.667 -20 -126 -60c-86 -41.333 -145 -67.333 -177 -78c-28 -8.66699 -43.667 -16.167 -47 -22.5s-1 -22.5 7 -48.5
c6.66699 -22.667 8.5 -42.167 5.5 -58.5s-13.167 -42.166 -30.5 -77.499c-26.667 -54.667 -59 -104 -97 -148c-22 -26 -40.167 -43.333 -54.5 -52s-31.5 -13 -51.5 -13c-34.667 0 -57 6.66699 -67 20c-11.333 15.333 -19 38.5 -23 69.5s-2.66699 61.167 4 90.5
c2 9.33301 3.5 18 4.5 26s1.5 14.5 1.5 19.5s-0.666992 7.5 -2 7.5c-8 0 -42.333 -23.333 -103 -70s-106.667 -84.667 -138 -114c-38.667 -36.667 -58 -71 -58 -103c0 -14 -4.33301 -32.667 -13 -56s-19 -44 -31 -62c-26.667 -41.333 -78.667 -99.666 -156 -174.999
s-133 -121.666 -167 -138.999c-29.333 -15.333 -47.166 -23.166 -53.499 -23.499s-15.166 5.16699 -26.499 16.5c-26.667 26.667 -26 65.834 2 117.501s88.667 126.5 182 224.5c105.333 110.667 156.333 168.334 153 173.001c-8.66699 6 -38 22 -88 48
c-76 39.333 -124.5 83.333 -145.5 132s-15.5 104.667 16.5 168c18 34.667 45.667 69.167 83 103.5s69.666 55.166 96.999 62.499c28 7.33301 54.5 7 79.5 -1s42.833 -21.667 53.5 -41c10.667 -18 14.334 -41.667 11.001 -71s-9.66602 -58.166 -18.999 -86.499
s-22.166 -52.666 -38.499 -72.999s-32.166 -30.5 -47.499 -30.5c-10 0 -17.333 1.5 -22 4.5s-7 8.5 -7 16.5s2.33301 18.333 7 31s12 29 22 49c39.333 76.667 42 118 8 124c-11.333 2 -26.666 -0.666992 -45.999 -8c-26 -9.33301 -54.667 -36 -86 -80s-47 -79.333 -47 -106
c0 -24.667 9 -45.667 27 -63s57.667 -42.666 119 -75.999l90 -50l42 32c47.333 38.667 107.333 84.5 180 137.5s120.334 86.167 143.001 99.5c14 6.66699 26 15.834 36 27.501s15.667 23.167 17 34.5c2 13.333 6.66699 23 14 29s19.666 10 36.999 12
c45.333 4.66699 105 20.167 179 46.5s149.333 59.166 226 98.499c104 53.333 164.667 76.666 182 69.999c28 -10.667 39.5 -34.167 34.5 -70.5s-27.833 -97.833 -68.5 -184.5c-94.667 -202 -127 -306.333 -97 -313c22 -4 76.333 36.333 163 121
c62 60.667 104.667 99.5 128 116.5s44 24.5 62 22.5c18 -2.66699 30.833 -8.33398 38.5 -17.001s14.834 -25 21.501 -49c10.667 -38.667 30.834 -72.667 60.501 -102s61.5 -47.333 95.5 -54c36.667 -6.66699 111 -6.33398 223 0.999023c75.333 4.66699 123 6.16699 143 4.5
s32.333 -8.16699 37 -19.5zM247.99 103.998c98.667 100.667 140.334 151 125.001 151c-10.667 0 -65.334 -53 -164.001 -159c-46 -49.333 -69 -79 -69 -89c8.66699 0 44.667 32.333 108 97zM936.99 535.998c32 50 50.8301 91.1699 56.4971 123.503
s-3.16602 51.166 -26.499 56.499c-14 2.66699 -33.167 -13.333 -57.5 -48s-44.666 -73.334 -60.999 -116.001s-21.166 -72.334 -14.499 -89.001c9.33301 -23.333 23.333 -26 42 -8c14 13.333 34.333 40.333 61 81z" />
    <glyph glyph-name="st.liga" unicode="st" horiz-adv-x="1079" 
d="M2053 1213c27.333 -17.333 39.4951 -32.501 36.4951 -45.501s-19.833 -17.5 -50.5 -13.5c-46.667 6.66699 -182.667 8.33398 -408 5.00098s-374 -9.33301 -446 -18h-1h-1h-2c-122.667 -13.333 -195 -24 -217 -32c-18.667 -6.66699 -31 -18.667 -37 -36l-7 -25
c-0.666992 -2 -1 -3.66699 -1 -5c-24.667 -100 -62.5 -268 -113.5 -504s-86.5 -409.667 -106.5 -521c-42.667 -237.333 -63.167 -405.333 -61.5 -504s25.834 -170 72.501 -214c22.667 -22 36.334 -37.5 41.001 -46.5s3 -18.5 -5 -28.5
c-13.333 -14.667 -24.666 -21.334 -33.999 -20.001s-26.666 12 -51.999 32c-36.667 28.667 -63 64.5 -79 107.5s-23 107.833 -21 194.5s12.833 191.334 32.5 314.001s50.167 286 91.5 490c44.667 219.333 81.334 391.333 110.001 516
c8.66699 36.667 16.334 71.667 23.001 105s11.5 59.666 14.5 78.999s3.83301 29.666 2.5 30.999c-0.666992 0.666992 -2.5 -0.666016 -5.5 -3.99902s-6.83301 -8.33301 -11.5 -15s-9.66699 -14.834 -15 -24.501l-18 -32.5c-6.66699 -12 -13.334 -24.667 -20.001 -38
c-46.667 -94 -92.667 -178.667 -138 -254l-185 -317c-74 -128 -121.333 -220 -142 -276c-54 -141.333 -96 -212 -126 -212c-12.667 0 -22.167 3 -28.5 9s-9.5 15.167 -9.5 27.5s3 27.833 9 46.5s15.333 41.334 28 68.001c29.333 64 43.833 118.167 43.5 162.5
s-15.166 113.833 -44.499 208.5c-58.667 180 -58.334 318.667 0.999023 416c30.667 49.333 71.667 79.166 123 89.499s90.333 -3.16699 117 -40.5c12.667 -18 20.334 -44.5 23.001 -79.5s-1.66602 -55.833 -12.999 -62.5c-13.333 -8.66699 -27.166 -7.5 -41.499 3.5
s-22.5 26.833 -24.5 47.5c-2 18.667 -9.16699 31.334 -21.5 38.001s-26.833 6.5 -43.5 -0.5s-32 -19.833 -46 -38.5c-26 -34.667 -39.333 -81.5 -40 -140.5s11.666 -123.833 36.999 -194.5l49 -142c2.66699 -8.66699 14.667 3 36 35l30 51c38 70.667 76.333 135.667 115 195
c41.333 65.333 92.5 154.333 153.5 267s89.167 171 84.5 175c-4.66699 4.66699 -34 -3.33301 -88 -24c-44.667 -16.667 -74 -24.167 -88 -22.5s-21 13.834 -21 36.501c0 13.333 20.5 30.166 61.5 50.499s90.833 37.833 149.5 52.5
c11.333 3.33301 23.166 9.83301 35.499 19.5s21.5 19.834 27.5 30.501c124 226 200.333 371.667 229 437c15.333 34.667 27.666 61.334 36.999 80.001s18.5 32.667 27.5 42s16.833 13.5 23.5 12.5s14.667 -5.83301 24 -14.5c6.66699 -6.66699 11.167 -12.5 13.5 -17.5
s1.5 -15.333 -2.5 -31s-9.66699 -32.834 -17 -51.501s-20.333 -50 -39 -94c-89.333 -214 -127.666 -327.333 -114.999 -340c4.66699 -5.33301 65.667 -2 183 10c113.333 14 285.666 21 516.999 21c150.667 1.33301 247.5 0.5 290.5 -2.5s74.5 -10.833 94.5 -23.5z" />
    <glyph glyph-name=".notdef" horiz-adv-x="1079" 
d="M102 1434h875v-1434h-875v1434zM160 1393l379 -633l381 633h-760zM514 717l-369 614v-1231zM541 674l-379 -631h758zM565 717l371 -621v1239z" />
    <glyph glyph-name="uni0000" 
 />
    <glyph glyph-name="uni0000" 
 />
    <glyph glyph-name="controlLF" unicode="&#xa;" 
 />
    <glyph glyph-name="controlCR" unicode="&#xd;" 
 />
    <glyph glyph-name="space" unicode=" " horiz-adv-x="540" 
 />
    <glyph glyph-name="exclam" unicode="!" horiz-adv-x="821" 
d="M767 1511c28 0 43.999 -8.66602 47.999 -25.999s-6 -36 -30 -56s-70.5 -93 -139.5 -219s-132.167 -253.333 -189.5 -382c-80.667 -177.333 -138.667 -337 -174 -479c-8 -31.333 -21.667 -51.333 -41 -60c-16 -6.66699 -27.667 -0.666992 -35 18
c-14 36 9.33301 134 70 294s143.334 342 248.001 546l101 193c23.333 43.333 44.5 79.166 63.5 107.499s33.5 46 43.5 53s21.667 10.5 35 10.5zM196.999 -51.999c8 6.66699 16.999 9.83203 26.999 9.49902s18.833 -3.66602 26.5 -9.99902s10.167 -13.5 7.5 -21.5
c-4.66699 -12.667 -15.167 -20.5 -31.5 -23.5s-27.833 1.16699 -34.5 12.5c-7.33301 11.333 -5.66602 22.333 5.00098 33z" />
    <glyph glyph-name="quotedbl" unicode="&#x22;" horiz-adv-x="567" 
d="M463 1454c1.33301 -24.667 1.00195 -44.834 -0.998047 -60.501s-5.33301 -27.5 -10 -35.5s-10.834 -12.167 -18.501 -12.5s-17.167 2.83398 -28.5 9.50098c-13.333 8.66699 -18.333 43 -15 103c2.66699 40 6.16699 65.333 10.5 76s13.166 16 26.499 16s22 -5.5 26 -16.5
s7.33301 -37.5 10 -79.5zM242.002 1522c18 7.33301 31.001 3.33398 39.001 -11.999s13.333 -46 16 -92c2 -36 1.66699 -59.333 -1 -70s-9.66699 -17.334 -21 -20.001c-17.333 -4 -31.333 8 -42 36c-12.667 31.333 -17.834 64 -15.501 98s10.5 54 24.5 60z" />
    <glyph glyph-name="quotedbl" unicode="&#x201d;" horiz-adv-x="567" 
d="M463 1454c1.33301 -24.667 1.00195 -44.834 -0.998047 -60.501s-5.33301 -27.5 -10 -35.5s-10.834 -12.167 -18.501 -12.5s-17.167 2.83398 -28.5 9.50098c-13.333 8.66699 -18.333 43 -15 103c2.66699 40 6.16699 65.333 10.5 76s13.166 16 26.499 16s22 -5.5 26 -16.5
s7.33301 -37.5 10 -79.5zM242.002 1522c18 7.33301 31.001 3.33398 39.001 -11.999s13.333 -46 16 -92c2 -36 1.66699 -59.333 -1 -70s-9.66699 -17.334 -21 -20.001c-17.333 -4 -31.333 8 -42 36c-12.667 31.333 -17.834 64 -15.501 98s10.5 54 24.5 60z" />
    <glyph glyph-name="quotedbl" unicode="&#x201c;" horiz-adv-x="567" 
d="M463 1454c1.33301 -24.667 1.00195 -44.834 -0.998047 -60.501s-5.33301 -27.5 -10 -35.5s-10.834 -12.167 -18.501 -12.5s-17.167 2.83398 -28.5 9.50098c-13.333 8.66699 -18.333 43 -15 103c2.66699 40 6.16699 65.333 10.5 76s13.166 16 26.499 16s22 -5.5 26 -16.5
s7.33301 -37.5 10 -79.5zM242.002 1522c18 7.33301 31.001 3.33398 39.001 -11.999s13.333 -46 16 -92c2 -36 1.66699 -59.333 -1 -70s-9.66699 -17.334 -21 -20.001c-17.333 -4 -31.333 8 -42 36c-12.667 31.333 -17.834 64 -15.501 98s10.5 54 24.5 60z" />
    <glyph glyph-name="numbersign" unicode="#" horiz-adv-x="970" 
d="M860 1002c38.667 8.66699 65.998 10.4961 81.998 5.49609s24 -17.167 24 -36.5c0 -21.333 -16.333 -34.666 -49 -39.999c-75.333 -15.333 -123.666 -28.666 -144.999 -39.999s-39 -33.666 -53 -66.999c-30 -69.333 -43.667 -109.333 -41 -120
c2.66699 -7.33301 15.667 -9 39 -5c20.667 4.66699 33.834 5.5 39.501 2.5s8.5 -11.167 8.5 -24.5c0 -22 -27.667 -54 -83 -96c-40 -29.333 -66 -54 -78 -74s-29.333 -66.333 -52 -139c-19.333 -61.333 -37.833 -128.5 -55.5 -201.5s-26.5 -119.167 -26.5 -138.5
c0 -4 -5.16699 -6 -15.5 -6s-21 1.5 -32 4.5s-17.833 6.5 -20.5 10.5c-5.33301 8 -1.16602 49.5 12.501 124.5s28.834 138.833 45.501 191.5l23 73l-46 -27c-38.667 -23.333 -64.167 -46 -76.5 -68s-20.833 -60 -25.5 -114c-4.66699 -68 -12 -105 -22 -111
c-14.667 -8.66699 -28.167 -2.83398 -40.5 17.499s-19.5 49.166 -21.5 86.499l-6 77l-104 -64c-68.667 -41.333 -108.667 -59 -120 -53c-12 8 -17.333 17.667 -16 29s9.5 24.5 24.5 39.5s36.5 30.5 64.5 46.5c7.33301 4.66699 53.333 32 138 82
c20 12 35.167 25.833 45.5 41.5s20.166 40.834 29.499 75.501l22.5 80.5c12.333 43.667 21.166 74.167 26.499 91.5c16 54.667 22.333 84 19 88c-4 4 -44.333 -12.333 -121 -49c-82.667 -38 -131.667 -50.667 -147 -38c-6 4.66699 -9 13 -9 25
c0 16.667 45.333 45.667 136 87l159 73c14.667 8.66699 33 46.334 55 113.001c22 65.333 41.333 100 58 104c18 3.33301 29.5 -4.16699 34.5 -22.5s2.16699 -43.833 -8.5 -76.5c-12.667 -38 -17 -58.333 -13 -61c3.33301 -3.33301 32.666 5.66699 87.999 27
c37.333 14 62.833 27.667 76.5 41s30.834 40.666 51.501 81.999c24 48 44.833 79.167 62.5 93.5s34.167 13.833 49.5 -1.5c7.33301 -6.66699 9.83301 -15.667 7.5 -27s-10.166 -28.666 -23.499 -51.999c-23.333 -42 -35 -64.333 -35 -67c0.666992 -1.33301 3.5 -2 8.5 -2
s12.667 0.833008 23 2.5s21.166 3.83398 32.499 6.50098zM592.998 716.996c8.66699 22.667 16.1689 44 22.502 64s10.666 35.667 12.999 47s2.5 17 0.5 17c-5.33301 0 -31 -9 -77 -27c-33.333 -13.333 -54.833 -27.5 -64.5 -42.5s-25.834 -57.833 -48.501 -128.5
c-30.667 -94.667 -46 -148 -46 -160c0 -21.333 34.667 -2 104 58c34 30 66 87.333 96 172z" />
    <glyph glyph-name="dollar" unicode="$" horiz-adv-x="1542" 
d="M1530 2239c9.33301 -14.667 8.66699 -34.166 -2 -58.499s-26.334 -41.833 -47.001 -52.5c-25.333 -12 -72 -81.333 -140 -208l-99 -189l49 -71c38.667 -54.667 58.667 -109.334 60 -164.001s-15.667 -119.334 -51 -194.001c-37.333 -77.333 -64 -116 -80 -116
c-30.667 0 -38.667 23.333 -24 70c6 20 16 45 30 75c32 68.667 48 118 48 148c0 24.667 -8.16699 56.834 -24.5 96.501s-29.833 59.5 -40.5 59.5c-8.66699 0 -82.667 -140 -222 -420s-209 -428.667 -209 -446c0 -7.33301 7.33301 -20 22 -38s32 -35.667 52 -53
c169.333 -144.667 279.833 -269.834 331.5 -375.501s56.167 -215.834 13.5 -330.501c-32 -85.333 -89.833 -164 -173.5 -236s-179.334 -126.667 -287.001 -164s-211.5 -51 -311.5 -41c-44.667 4.66699 -70 3.5 -76 -3.5s0 -28.167 18 -63.5
c25.333 -47.333 76.333 -80 153 -98c27.333 -6.66699 41 -17.667 41 -33c0 -14.667 -13 -25.334 -39 -32.001c-7.33301 -2 -15.333 -3.33301 -24 -4c-35.333 -2.66699 -74.333 11.333 -117 42c-33.333 24 -60.833 54.167 -82.5 90.5s-32.5 70.166 -32.5 101.499
c0 24.667 -12.667 43.334 -38 56.001c-30 13.333 -67.667 42 -113 86s-74.666 80.333 -87.999 109c-34 74.667 -32.667 142 4 202c24.667 39.333 66.167 87 124.5 143s94.166 82.667 107.499 80c26.667 -5.33301 33.667 -20.666 21 -45.999
c-11.333 -21.333 -40 -56.666 -86 -105.999c-55.333 -58.667 -89.666 -103.667 -102.999 -135s-13 -64.666 1 -99.999c9.33301 -21.333 34.5 -52.166 75.5 -92.499s67.833 -60.5 80.5 -60.5c2 0 5.16699 5 9.5 15s9 23.667 14 41s9.83301 36 14.5 56
c22.667 94 69.834 233 141.501 417s142.834 348.667 213.501 494l27 54l-54 81c-38.667 58 -63.5 108 -74.5 150s-14.833 104 -11.5 186c2.66699 60 7.5 104.833 14.5 134.5s20.833 66.167 41.5 109.5c46.667 93.333 122.667 178.166 228 254.499s200 114.833 284 115.5h73
l84 159c62.667 119.333 110.667 202.666 144 250c33.333 47.333 60.666 71 81.999 71c25.333 0 41 -5.33301 47 -16zM1111 279.001c-12.667 27.333 -75.3311 99.999 -187.998 217.999s-175.667 177 -189 177c-6 0 -16.333 -15.333 -31 -46s-55.667 -123.667 -123 -279
c-102.667 -234.667 -171.334 -423.334 -206.001 -566.001c-18 -76.667 -27.167 -122.5 -27.5 -137.5s7.83398 -25.167 24.501 -30.5c30 -7.33301 75.167 -9.66602 135.5 -6.99902s112.166 9.33398 155.499 20.001c125.333 33.333 236.666 98 333.999 194
c76 76 123.333 151.167 142 225.5s9.66699 151.5 -27 231.5zM925.004 1263c139.333 278.667 209 420.998 209 426.998c-2.66699 7.33301 -13 10.333 -31 9s-42.667 -7.33301 -74 -18s-61.666 -23.667 -90.999 -39c-67.333 -35.333 -121.833 -73.166 -163.5 -113.499
s-77.834 -89.833 -108.501 -148.5c-20 -39.333 -33.5 -73.166 -40.5 -101.499s-11.833 -69.833 -14.5 -124.5c-3.33301 -58 -3.33301 -98.833 0 -122.5s12.333 -50.167 27 -79.5c36 -71.333 59.667 -107 71 -107c4 0 76 139.333 216 418z" />
    <glyph glyph-name="percent" unicode="%" horiz-adv-x="1361" 
d="M175 -628c22 0 37.5 -7.83008 46.5 -23.4971s5.5 -28.834 -10.5 -39.501c-15.333 -9.33301 -36.5 -13.5 -63.5 -12.5s-51.833 6.83301 -74.5 17.5c-40 20 -62.333 50.333 -67 91s7.33301 101 36 181s80.667 197.667 156 353c128 263.333 290.833 556.333 488.5 879
s370.167 577.334 517.5 764.001c40 49.333 56.667 82.5 50 99.5s-40 22.167 -100 15.5c-92 -10.667 -164 -42.334 -216 -95.001s-79 -111.334 -81 -176.001c-4 -96.667 -20.167 -184.334 -48.5 -263.001s-65.833 -140 -112.5 -184
c-19.333 -18.667 -36.666 -30.334 -51.999 -35.001s-29.5 -2.33398 -42.5 6.99902s-25.5 25.666 -37.5 48.999c-28.667 56 -29.667 130.833 -3 224.5s74.667 182.834 144 267.501c24.667 28.667 39 49.167 43 61.5s2 26.833 -6 43.5c-19.333 42.667 -38 50.334 -56 23.001
c-6 -10.667 -19.667 -16 -41 -16c-12.667 0 -21.5 6.16699 -26.5 18.5s-5 25.833 0 40.5s13.833 25.667 26.5 33c51.333 28 99 20.333 143 -23l41 -40l11.5 14c5 6 16.5 16.833 34.5 32.5s37.167 29.834 57.5 42.501s47.166 25 80.499 37s68 20 104 24
c70 8 128.167 3.33301 174.5 -14s68.166 -41 65.499 -71c-1.33301 -14 -3.83301 -27.167 -7.5 -39.5s-9.83398 -25.333 -18.501 -39s-16 -24.667 -22 -33s-16.167 -21.5 -30.5 -39.5s-25.166 -32 -32.499 -42c-181.333 -232 -386.5 -543 -615.5 -933
s-391.167 -704.333 -486.5 -943c-28 -69.333 -45.167 -121.833 -51.5 -157.5s-3.16602 -61.167 9.50098 -76.5s37 -23 73 -23zM740 1214c20.667 65.333 31.001 119.666 31.001 162.999l-2 65l-32 -39c-40.667 -49.333 -72.334 -107.666 -95.001 -174.999
s-28.667 -121.333 -18 -162l10 -43l37 47c26 32 49 80 69 144zM1298 145.003c0 -42 -11.001 -93.998 -33.001 -155.998s-49.5 -119.667 -82.5 -173s-64.167 -89.666 -93.5 -108.999s-64.666 -27.666 -105.999 -24.999s-73.666 15.667 -96.999 39
c-18 17.333 -28.833 34.166 -32.5 50.499s-4.83398 51.166 -3.50098 104.499c3.33301 74 -2 120 -16 138c-12.667 15.333 -13 33.166 -1 53.499s41.667 52.833 89 97.5c54 50 98.5 83.167 133.5 99.5s74.167 22.166 117.5 17.499s75 -18 95 -40s30 -54.333 30 -97z
M1081 -183.995c48.667 55.333 86.8311 124.334 114.498 207.001s30.834 137 9.50098 163c-15.333 18.667 -35.166 26.167 -59.499 22.5s-40.833 -16.5 -49.5 -38.5c-10 -25.333 -26.667 -38 -50 -38c-24 0 -47.833 -24.333 -71.5 -73s-38.5 -103.334 -44.5 -164.001
c-6.66699 -73.333 5.33301 -118 36 -134s69 2.33301 115 55z" />
    <glyph glyph-name="ampersand" unicode="&#x26;" horiz-adv-x="1091" 
d="M810 1010c-19.333 -1.33301 -31.167 0.499023 -35.5 5.49902s-5.5 19.167 -3.5 42.5c2 21.333 0.666992 36 -4 44s-16 15.667 -34 23c-42 15.333 -94.333 11.333 -157 -12s-128 -63.333 -196 -120c-76 -64 -139 -128.5 -189 -193.5s-83 -125.833 -99 -182.5
c-8 -30.667 -11.667 -51.167 -11 -61.5s7 -21.5 19 -33.5c19.333 -19.333 63 -27.333 131 -24s143 17.333 225 42c76 22 139.333 35 190 39s82.667 -2 96 -18c24.667 -28.667 7 -50.667 -53 -66l-49 -9c-59.333 -8 -119.166 -23.333 -179.499 -46
s-114.166 -49.667 -161.499 -81c-34 -22.667 -55 -40.167 -63 -52.5s-13.333 -35.166 -16 -68.499c-3.33301 -53.333 7.5 -93.166 32.5 -119.499s67.167 -41.833 126.5 -46.5c36.667 -2.66699 61.667 -2.66699 75 0s24.333 10 33 22c9.33301 12.667 17.5 19.334 24.5 20.001
s19.167 -3.33301 36.5 -12c23.333 -12.667 53.166 -14.334 89.499 -5.00098s86.166 31.666 149.499 66.999c74.667 41.333 120.667 52.5 138 33.5s2.33301 -64.167 -45 -135.5c-40.667 -62 -70.334 -86.333 -89.001 -73c-6.66699 4.66699 -11 14.667 -13 30
c-2 18.667 -6 29.334 -12 32.001c-8.66699 2.66699 -41 -5.33301 -97 -24l-1 -1h-1h-1l-1 -1h-1h-1l-1 -1h-1h-1l-1 -1h-1l-92 -31l-38 -159c-25.333 -102 -40.666 -178 -45.999 -228c-4.66699 -33.333 -13.334 -56.666 -26.001 -69.999s-26.667 -13 -42 1
c-21.333 21.333 -12.333 113.666 27 276.999c26 100 36.333 155.333 31 166c-7.33301 8.66699 -36 13 -86 13c-44 0 -81.167 6.33301 -111.5 19s-59.5 34.334 -87.5 65.001c-15.333 16 -26 33.333 -32 52s-10.333 47.334 -13 86.001c-2.66699 44 -2 73.833 2 89.5
s15.333 34.5 34 56.5l42 51h-40c-34.667 0 -68.667 8.83301 -102 26.5s-54.666 38.167 -63.999 61.5c-20.667 53.333 -11.334 122.5 27.999 207.5s100.333 169.5 183 253.5c95.333 95.333 190.833 165 286.5 209s176.834 55.667 243.501 35
c22.667 -6.66699 38.667 -9.83398 48 -9.50098s16.333 3.83301 21 10.5c12.667 20.667 48.667 102 108 244c65.333 151.333 102.666 229.666 111.999 234.999c12.667 7.33301 25 5 37 -7c20 -20 -32.333 -170.333 -157 -451c-20 -45.333 -30.667 -74.333 -32 -87
s4 -32 16 -58c16.667 -35.333 27.167 -72.333 31.5 -111s1.83301 -69.834 -7.5 -93.501s-24 -33.5 -44 -29.5c-13.333 2.66699 -21.666 10.834 -24.999 24.501s-6.33301 49.5 -9 107.5c-0.666992 13.333 -4 22.166 -10 26.499s-17.333 5.83301 -34 4.5z" />
    <glyph glyph-name="quotesingle" unicode="'" horiz-adv-x="487" 
d="M273 1389c0 -62 -15.667 -93 -47 -93c-10.667 0 -18.667 5.16699 -24 15.5s-9.33301 28.833 -12 55.5c-8.66699 61.333 -11.667 101 -9 119s12.667 27 30 27s32 -11.833 44 -35.5s18 -53.167 18 -88.5z" />
    <glyph glyph-name="quotesingle" unicode="&#x2019;" horiz-adv-x="487" 
d="M273 1389c0 -62 -15.667 -93 -47 -93c-10.667 0 -18.667 5.16699 -24 15.5s-9.33301 28.833 -12 55.5c-8.66699 61.333 -11.667 101 -9 119s12.667 27 30 27s32 -11.833 44 -35.5s18 -53.167 18 -88.5z" />
    <glyph glyph-name="quotesingle" unicode="&#x2018;" horiz-adv-x="487" 
d="M273 1389c0 -62 -15.667 -93 -47 -93c-10.667 0 -18.667 5.16699 -24 15.5s-9.33301 28.833 -12 55.5c-8.66699 61.333 -11.667 101 -9 119s12.667 27 30 27s32 -11.833 44 -35.5s18 -53.167 18 -88.5z" />
    <glyph glyph-name="parenleft" unicode="(" horiz-adv-x="839" 
d="M818 1737c16.667 -36 21.999 -61.666 15.999 -76.999c-6.66699 -17.333 -18.667 -25.333 -36 -24s-28.333 11.333 -33 30c-7.33301 29.333 -21.333 35.333 -42 18c-20 -16.667 -53.667 -60 -101 -130c-126.667 -188.667 -244.5 -426.5 -353.5 -713.5
s-170.5 -521.167 -184.5 -702.5c-8.66699 -116.667 5.66602 -202.167 42.999 -256.5s101 -82.166 191 -83.499c36 0 60.833 -1.66699 74.5 -5s20.5 -9.33301 20.5 -18c0 -24.667 -21.5 -42 -64.5 -52s-87.833 -8 -134.5 6c-36 11.333 -70.5 31.666 -103.5 60.999
s-58.167 62.666 -75.5 99.999c-49.333 106 -41.833 291.167 22.5 555.5s170.5 543.833 318.5 838.5c158.667 317.333 280.334 484.666 365.001 501.999c32.667 6.66699 58.334 -9.66602 77.001 -48.999z" />
    <glyph glyph-name="parenright" unicode=")" horiz-adv-x="669" 
d="M633 1632c20.667 -57.333 31.1699 -146.001 31.5029 -266.001s-10.167 -218.667 -31.5 -296c-35.333 -130 -114.5 -329.5 -237.5 -598.5s-216.833 -448.167 -281.5 -537.5c-27.333 -37.333 -54.333 -59.666 -81 -66.999c-19.333 -4.66699 -29 3 -29 23
c0 13.333 18.667 48.333 56 105c42.667 64 117.5 206.333 224.5 427s175.833 375.667 206.5 465c69.333 200 102.666 374.333 99.999 523s-41 257 -115 325c-14.667 14 -24.334 27.667 -29.001 41s-3.83398 24.166 2.49902 32.499s17.5 12.5 33.5 12.5
c20.667 0 46.167 -19.167 76.5 -57.5s54.833 -82.166 73.5 -131.499z" />
    <glyph glyph-name="asterisk" unicode="*" horiz-adv-x="430" 
d="M352 1561c32 -28 50.333 -46.501 55 -55.501s1.33398 -19.167 -9.99902 -30.5s-20.666 -16.333 -27.999 -15s-22 11 -44 29c-34 28.667 -54.333 40.667 -61 36c-3.33301 -2.66699 -5 -11.334 -5 -26.001c0 -8 -2.33301 -17 -7 -27s-10.334 -17.333 -17.001 -22
c-10.667 -9.33301 -19 -13.5 -25 -12.5s-13.333 7.83301 -22 20.5c-4 5.33301 -7.83301 10 -11.5 14s-7 6.83301 -10 8.5s-4.83301 1.83398 -5.5 0.500977s-2.83398 -4.66602 -6.50098 -9.99902l-15.5 -22l-18 -25c-18 -26.667 -35.5 -42.667 -52.5 -48
s-28.833 1.33398 -35.5 20.001c-9.33301 24 21.334 78.333 92.001 163l45 52l-89 82c-76.667 71.333 -94.334 109.333 -53.001 114c3.33301 0.666992 7.33301 1 12 1c7.33301 0 19.333 -4.83301 36 -14.5s32.667 -20.834 48 -33.501l58 -48v52
c0 35.333 -5.66699 58.666 -17 69.999c-13.333 12.667 -17 31 -11 55s17.333 37.333 34 40c22 4 39.333 -5.16699 52 -27.5s19 -54.833 19 -97.5c0 -49.333 3 -74 9 -74c8 0 26.667 13 56 39c54 44.667 87.667 49.334 101 14.001c5.33301 -16 -16.667 -46.333 -66 -91
l-76 -69z" />
    <glyph glyph-name="plus" unicode="+" horiz-adv-x="991" 
d="M737 913c166.667 34 250.002 29.333 250.002 -14c0 -12.667 -3.66699 -21.334 -11 -26.001s-22 -8 -44 -10c-38 -2.66699 -100.833 -12.5 -188.5 -29.5s-138.834 -29.167 -153.501 -36.5c-12.667 -6.66699 -30.5 -58.167 -53.5 -154.5s-39.833 -189.5 -50.5 -279.5
c-7.33301 -68.667 -19.333 -103 -36 -103c-7.33301 0 -15.666 4.66699 -24.999 14c-12.667 13.333 -18.334 35 -17.001 65s11.333 98.667 30 206c23.333 134 34 206.667 32 218c-0.666992 6.66699 -5.33398 9.33398 -14.001 8.00098c-0.666992 -0.666992 -1.66699 -1 -3 -1
c-6.66699 -2 -79 -8 -217 -18c-81.333 -6 -135.5 -8.5 -162.5 -7.5s-45.167 6.16699 -54.5 15.5c-22.667 22.667 -16 39.334 20 50.001c29.333 8.66699 84 15.667 164 21c73.333 4.66699 140.833 10.5 202.5 17.5s92.5 12.5 92.5 16.5c2 29.333 16.5 107.5 43.5 234.5
s43.167 193.167 48.5 198.5c8.66699 9.33301 26.5 11 53.5 5s40.5 -15.333 40.5 -28s-7.33301 -26.334 -22 -41.001c-11.333 -14 -27 -72.167 -47 -174.5s-26 -156.833 -18 -163.5c6 -6 52.667 -0.333008 140 17z" />
    <glyph glyph-name="comma" unicode="," horiz-adv-x="481" 
d="M246 443c16 0 30.332 -19.665 42.999 -58.998s16.667 -77 12 -113c-9.33301 -76.667 -28 -132.334 -56 -167.001c-21.333 -26.667 -39.666 -27.334 -54.999 -2.00098c-6 9.33301 -0.333008 46 17 110c10.667 38.667 16.667 67.5 18 86.5s-1.66699 37.5 -9 55.5
c-8.66699 24 -10 44.833 -4 62.5s17.333 26.5 34 26.5z" />
    <glyph glyph-name="hyphen" unicode="-" horiz-adv-x="1140" 
d="M941 766c63.333 -28 43 -48.666 -61 -61.999l-50 -5c-98 -8 -211.667 -24.667 -341 -50c-202 -38.667 -309.667 -47 -323 -25c-9.33301 15.333 -7.83301 29.666 4.5 42.999s30.833 20 55.5 20c37.333 0 103 10 197 30c117.333 24 227 40.833 329 50.5
s165 9.16699 189 -1.5z" />
    <glyph glyph-name="period" unicode="." horiz-adv-x="440" 
d="M308 509c10.667 10.667 24.5 12.833 41.5 6.5s23.167 -15.833 18.5 -28.5c-4.66699 -13.333 -15 -21.333 -31 -24s-27.333 1.33301 -34 12c-3.33301 4.66699 -4.5 10.5 -3.5 17.5s3.83301 12.5 8.5 16.5z" />
    <glyph glyph-name="slash" unicode="/" horiz-adv-x="1259" 
d="M1254 1859c8.66699 -24 -39.835 -125.501 -145.502 -304.501s-252.5 -408.167 -440.5 -687.5c-106 -156.667 -206.667 -313.5 -302 -470.5s-162.333 -276.167 -201 -357.5c-50.667 -106.667 -81.667 -170.667 -93 -192s-21.666 -33.666 -30.999 -36.999
c-11.333 -4 -20.666 -2 -27.999 6c-10 11.333 -11.333 30.166 -4 56.499s27.666 76.5 60.999 150.5c78.667 176.667 265.334 487.334 560.001 932.001l333.5 511c62.333 99.333 115.5 190.666 159.5 273.999c50.667 94.667 86.667 142.334 108 143.001
c9.33301 -1.33301 17 -9.33301 23 -24z" />
    <glyph glyph-name="zero" unicode="0" horiz-adv-x="1232" 
d="M421 -34c-60.667 -57.333 -114.827 -93.498 -162.494 -108.498s-96.834 -11.833 -147.501 9.5c-62.667 27.333 -97.834 91.166 -105.501 191.499s12.166 242.166 59.499 425.499c50.667 196.667 152.5 459.667 305.5 789s278.833 556.333 377.5 681
c91.333 115.333 179 186.666 263 214c84 27.333 145.667 4.66602 185 -68.001c16.667 -31.333 26.5 -98 29.5 -200s-2.16699 -196.333 -15.5 -283c-26.667 -167.333 -83.834 -363.166 -171.501 -587.499s-188.334 -434.833 -302.001 -631.5s-218.834 -340.667 -315.501 -432
zM84.0068 180.002c-5.33301 -82 -4.83301 -140.001 1.5 -174.001s21.5 -57.333 45.5 -70c24.667 -13.333 47 -19.5 67 -18.5s46.333 9.16699 79 24.5c63.333 29.333 139.5 105.5 228.5 228.5s182.833 282.5 281.5 478.5c74.667 146.667 129.667 261.334 165 344.001
s68.666 174.667 99.999 276c40 128.667 66.5 230.334 79.5 305.001s19.833 162.667 20.5 264c0.666992 124.667 -8.5 205 -27.5 241s-55.5 42.333 -109.5 19c-46 -19.333 -105.833 -70.333 -179.5 -153s-129.5 -161 -167.5 -235l-29 -59l47 9
c30.667 7.33301 55.667 7.66602 75 0.999023c15.333 -4.66699 29.166 -20.334 41.499 -47.001s15.833 -47.667 10.5 -63c-6.66699 -16 -17.167 -22.5 -31.5 -19.5s-25.166 13.833 -32.499 32.5c-24 61.333 -78.333 35 -163 -79c-84 -114 -155 -255.167 -213 -423.5
s-91.667 -331.166 -101 -488.499c-3.33301 -65.333 -7 -105.666 -11 -120.999s-12.333 -23 -25 -23s-20.667 6.5 -24 19.5s-6.66602 47.5 -9.99902 103.5l-7 123l-25 -82c-49.333 -154.667 -78 -292.334 -86 -413.001z" />
    <glyph glyph-name="one" unicode="1" horiz-adv-x="950" 
d="M119 -474c-60.667 16.667 -97.335 61.334 -110.002 134.001s-3 180.334 29 323.001c20.667 91.333 68 250.666 142 477.999s139.667 414.666 197 561.999c60.667 154 198 479.667 412 977c41.333 97.333 59.333 147.666 54 151c-5.33301 5.33301 -82.333 -69 -231 -223
c-126 -129.333 -205 -202 -237 -218c-21.333 -10 -34.333 -4 -39 18c-1.33301 5.33301 23.667 35.833 75 91.5l186 192.5c106.667 106 179.834 176.333 219.501 211s66.834 52 81.501 52c21.333 0 35.333 -4.83301 42 -14.5s5.66699 -32.5 -3 -68.5
s-24.667 -82.333 -48 -139l-106 -246c-200 -451.333 -365.167 -864 -495.5 -1238s-200.833 -638.667 -211.5 -794c-4.66699 -67.333 -1.16699 -113.5 10.5 -138.5s36.167 -41.167 73.5 -48.5c18.667 -3.33301 31.667 -7.83301 39 -13.5s11 -13.5 11 -23.5
c0 -17.333 -2 -26 -6 -26c-2.66699 0 -10.667 -2 -24 -6c-12 -3.33301 -32.333 -1 -61 7z" />
    <glyph glyph-name="two" unicode="2" horiz-adv-x="1566" 
d="M176 241c114 76 215.332 160.333 303.999 253c168.667 174.667 348.334 388.834 539.001 642.501s318.667 448.167 384 583.5c54.667 115.333 84.834 222 90.501 320s-14.166 168.667 -59.499 212c-26.667 25.333 -61.667 40.5 -105 45.5
s-90.166 0.166992 -140.499 -14.5s-101.666 -36.5 -153.999 -65.5s-103.333 -65.833 -153 -110.5s-93.5 -93.334 -131.5 -146.001c-24.667 -35.333 -48.167 -73.833 -70.5 -115.5s-33.5 -68.5 -33.5 -80.5c0 -3.33301 8.66699 -5 26 -5c18 0 28.833 -6.66699 32.5 -20
s-1.83301 -26.666 -16.5 -39.999c-25.333 -23.333 -50 -29.333 -74 -18s-36 34.666 -36 69.999c0.666992 74.667 48.167 169 142.5 283s196.166 199.667 305.499 257c102 52.667 192.167 79.334 270.5 80c78.333 0.666992 141.166 -25 188.499 -77
c32.667 -36.667 54.167 -74 64.5 -112s13.5 -92 9.5 -162c-8.66699 -148 -80.5 -330.5 -215.5 -547.5s-355.5 -504.833 -661.5 -863.5l-78 -94l171 87c145.333 74 264.833 115.667 358.5 125s167.5 -13.334 221.5 -68.001c37.333 -36.667 47 -60.334 29 -71.001
c-6 -3.33301 -13.667 -5 -23 -5c-15.333 0 -33 9.33301 -53 28c-68.667 64.667 -192.334 61.334 -371.001 -9.99902c-86 -34 -193.333 -89.167 -322 -165.5s-238 -149.5 -328 -219.5c-44.667 -35.333 -94.834 -69.666 -150.501 -102.999s-90.167 -50 -103.5 -50
c-10 0 -18.333 6.33301 -25 19c-4 14.667 -5 25.667 -3 33s59 49 171 125z" />
    <glyph glyph-name="three" unicode="3" horiz-adv-x="1445" 
d="M178 -327c-38.667 20 -66.3311 38.6641 -82.998 55.9971s-35 46.333 -55 87c-31.333 63.333 -42.5 141.833 -33.5 235.5s35.5 176.834 79.5 249.501c60 98.667 122.5 187.334 187.5 266.001s105.833 114.667 122.5 108c14.667 -5.33301 21.167 -16.333 19.5 -33
s-10.834 -32.667 -27.501 -48c-30 -26.667 -76.833 -85.167 -140.5 -175.5s-105.167 -156.833 -124.5 -199.5c-26.667 -59.333 -42 -125.333 -46 -198c-2.66699 -68.667 3.16602 -122 17.499 -160s42.833 -75 85.5 -111c53.333 -45.333 134.666 -55.666 243.999 -30.999
s216.666 77.667 321.999 159c118.667 92.667 237.334 224.667 356.001 396s200 328 244 470c18.667 60.667 28.167 125.834 28.5 195.501s-8.5 124.167 -26.5 163.5c-23.333 51.333 -62 91 -116 119s-113.667 39.333 -179 34c-31.333 -2.66699 -56.333 -8.5 -75 -17.5
s-48 -30.167 -88 -63.5c-56.667 -47.333 -126.667 -93.5 -210 -138.5s-138 -65.833 -164 -62.5c-40 4.66699 -51.667 25.334 -35 62.001c18 40.667 61 85 129 133c35.333 24 72.333 45 111 63c76.667 35.333 132.667 57.666 168 66.999
c20.667 5.33301 40.667 15.833 60 31.5s45 42.5 77 80.5c54.667 65.333 95.334 118.666 122.001 159.999s52.334 91.666 77.001 150.999c36.667 88 54.167 173.833 52.5 257.5s-22.5 149.167 -62.5 196.5c-54 64 -120 89.167 -198 75.5s-164.667 -65.5 -260 -155.5
c-62.667 -58.667 -118.167 -124.667 -166.5 -198s-77.833 -133.833 -88.5 -181.5s-2.33398 -78.5 24.999 -92.5c19.333 -5.33301 27.333 -16.166 24 -32.499s-15.333 -26.166 -36 -29.499c-26.667 -4 -47.334 3.83301 -62.001 23.5s-22 49.167 -22 88.5
c0 26 4 52.167 12 78.5s22.333 61.833 43 106.5c23.333 48 47.166 87.833 71.499 119.5s63.833 74.834 118.5 129.501c69.333 70 129 120.667 179 152s103.333 51.333 160 60c44 6.66699 82.667 5.33398 116 -3.99902s65.666 -28 96.999 -56
c76.667 -68.667 116.834 -160.167 120.501 -274.5s-29.166 -237.833 -98.499 -370.5c-37.333 -72.667 -78 -136 -122 -190c-45.333 -56 -68 -86 -68 -90c0 -2 24.667 -6 74 -12c44.667 -4.66699 83.5 -14.834 116.5 -30.501s66.5 -39.834 100.5 -72.501
c37.333 -36 62.5 -77.333 75.5 -124s17.5 -112.334 13.5 -197.001c-3.33301 -86 -18 -164.667 -44 -236s-73.667 -166 -143 -284c-140 -236 -289 -417.333 -447 -544s-314 -190 -468 -190c-41.333 0 -73.166 2 -95.499 6s-43.833 11.333 -64.5 22zM725.003 1142
c8.66699 7.33301 11.333 10.835 8 10.502s-16 -5.83301 -38 -16.5c-36.667 -17.333 -59 -31.333 -67 -42c-2 -4 -0.666992 -5.66699 4 -5c18 3.33301 44.667 17.666 80 42.999c4.66699 3.33301 9 6.66602 13 9.99902z" />
    <glyph glyph-name="four" unicode="4" horiz-adv-x="1251" 
d="M512 1049c-120.667 -42.667 -223.835 -67.4932 -309.502 -74.4932s-143.834 5.16699 -174.501 36.5c-12 12 -19.333 23.333 -22 34s-2.33398 27.667 0.999023 51c10 80 93.667 267.667 251 563c141.333 265.333 240.5 445.666 297.5 540.999s95.833 144.666 116.5 148
c19.333 3.33301 29 -5.33398 29 -26c-0.666992 -20 -10.667 -43.667 -30 -71c-64.667 -90.667 -179 -294.834 -343 -612.501s-246.667 -495.5 -248 -533.5c-1.33301 -20.667 0.5 -34.167 5.5 -40.5s17.833 -12.166 38.5 -17.499
c30.667 -8.66699 83.167 -5.33398 157.5 9.99902s156.5 39.666 246.5 72.999l138 52l30 88l38 117.5l48 147.5c56 173.333 112.333 327.833 169 463.5s100.334 219.834 131.001 252.5c17.333 18 30.5 27.5 39.5 28.5s19.5 -5.83301 31.5 -20.5
c8 -9.33301 11.667 -16.166 11 -20.5c-0.666992 -4.33301 -5.66699 -10.166 -15 -17.5c-14.667 -10.667 -39.834 -52.334 -75.501 -125c-35.667 -72.667 -71.167 -154.667 -106.5 -246c-26 -69.333 -67.833 -189 -125.5 -359s-86.5 -259.333 -86.5 -268
c0 -2 8.83301 -0.5 26.5 4.5s41.834 12.833 72.501 23.5c94.667 32.667 187.667 47.334 279 44.001c71.333 -3.33301 109 -17.666 113 -42.999c0.666992 -4.66699 0 -9.33398 -2 -14.001c-3.33301 -8.66699 -11.666 -13.834 -24.999 -15.501
s-38.666 -0.833984 -75.999 2.49902c-95.333 6.66699 -209.333 -16 -342 -68c-4.66699 -2 -10.667 -4.33301 -18 -7c-16.667 -6 -28.167 -11.333 -34.5 -16s-14.166 -15.334 -23.499 -32.001s-19.166 -41.5 -29.499 -74.5l-42.5 -139.5l-19 -64
c-70.667 -230.667 -124.167 -419.167 -160.5 -565.5s-61.166 -273.833 -74.499 -382.5c-11.333 -91.333 -10.833 -161 1.5 -209s37.5 -79.333 75.5 -94c22 -9.33301 33 -23 33 -41c0 -22.667 -12.333 -32.334 -37 -29.001c-26.667 4.66699 -55.334 22 -86.001 52
c-22 21.333 -36.833 40.333 -44.5 57s-13.5 41.667 -17.5 75c-12.667 95.333 9.66602 269.333 66.999 522c20.667 89.333 44.834 183.666 72.501 282.999s76.167 263.666 145.5 492.999c18 60 25.333 92.667 22 98c-4.66699 4.66699 -44.334 -6.66602 -119.001 -33.999z" />
    <glyph glyph-name="five" unicode="5" horiz-adv-x="1591" 
d="M290 1432c-21.333 40.667 -16.3281 123.5 15.0049 248.5s82 262.833 152 413.5c11.333 24 21.166 46.333 29.499 67s14.333 37 18 49s4.5 18 2.5 18c-5.33301 0 -35 -9.66699 -89 -29c-20 -7.33301 -39.667 -13 -59 -17s-32 -5.33301 -38 -4c-28.667 11.333 -27 29 5 53
c37.333 28 97.666 51.667 180.999 71c100.667 22.667 241 46.167 421 70.5s306.667 36.833 380 37.5c55.333 0.666992 104.666 -2 147.999 -8s76.333 -14.333 99 -25s32.667 -23 30 -37c-2.66699 -13.333 -13.667 -20.166 -33 -20.5
c-19.333 -0.333008 -55.333 5.5 -108 17.5c-84 20 -259.667 8.66699 -527 -34c-147.333 -24 -230 -39.333 -248 -46c-15.333 -5.33301 -24.666 -14 -27.999 -26c-0.666992 -0.666992 -2 -6.33398 -4 -17c-6 -27.333 -17.667 -41 -35 -41
c-31.333 0 -91.666 -116.667 -180.999 -350c-63.333 -168.667 -87.333 -282 -72 -340c5.33301 -24 29.5 -40.833 72.5 -50.5s127.167 -18.167 252.5 -25.5c121.333 -6.66699 214.166 -19.334 278.499 -38.001s122.833 -49 175.5 -91c150.667 -122 195 -276.667 133 -464
c-31.333 -94 -88.5 -193.667 -171.5 -299s-177.667 -199.666 -284 -282.999s-206.833 -141 -301.5 -173c-59.333 -19.333 -125 -30.333 -197 -33s-126.333 4 -163 20c-58.667 26 -99.334 72.333 -122.001 139s-24.667 143.167 -6 229.5s55.667 169.166 111 248.499
c42.667 61.333 90.667 120.833 144 178.5s86.666 86.5 99.999 86.5c44.667 0 37 -34 -23 -102c-94 -105.333 -162 -196.5 -204 -273.5s-65.333 -152.5 -70 -226.5c-8 -105.333 22.333 -175.333 91 -210c32 -16.667 83.833 -23 155.5 -19s135.5 16.667 191.5 38
c120 45.333 244.833 131.833 374.5 259.5s225.167 257.834 286.5 390.501c40.667 88.667 53 171.167 37 247.5s-59.333 140.833 -130 193.5c-52.667 40 -105.334 66.667 -158.001 80s-143.334 23.666 -272.001 30.999c-120 7.33301 -206.167 17.833 -258.5 31.5
s-86.166 34.834 -101.499 63.501z" />
    <glyph glyph-name="six" unicode="6" horiz-adv-x="1187" 
d="M35 263c-12.667 32.667 -20.9971 64.498 -24.9971 95.498s-6 80.167 -6 147.5c0 94 5.16699 173.167 15.5 237.5s30.166 142.5 59.499 234.5c60.667 191.333 159.167 400.333 295.5 627s280.5 422 432.5 586c62 66 114.167 112.833 156.5 140.5s84.166 41.5 125.499 41.5
c34 0 59.5 -5.83301 76.5 -17.5s21.833 -26.5 14.5 -44.5c-3.33301 -8 -9.33301 -12.833 -18 -14.5s-23.667 -0.833984 -45 2.5c-37.333 6.66699 -76.666 -2.66602 -117.999 -28c-41.333 -25.333 -90.333 -70 -147 -134c-194.667 -219.333 -362.5 -459.333 -503.5 -720
s-227.167 -489.667 -258.5 -687c-12.667 -78 -16.334 -167.5 -11.001 -268.5s17 -171.833 35 -212.5c36 -80 89.667 -119.333 161 -118s144.333 43 219 125c88.667 96.667 162.667 234.5 222 413.5s78.666 323.167 57.999 432.5c-10 50 -22.667 80.333 -38 91
c-17.333 12.667 -42.333 15.334 -75 8.00098s-65.334 -23 -98.001 -47c-55.333 -40.667 -88.666 -50.334 -99.999 -29.001c-2.66699 4.66699 -4 10.334 -4 17.001c0 18 25 43.333 75 76s92 51.334 126 56.001c76.667 9.33301 130.667 -17.667 162 -81
s38.333 -160.666 21 -291.999c-22 -165.333 -72 -323.5 -150 -474.5s-163 -254.167 -255 -309.5c-44 -27.333 -89.833 -44.333 -137.5 -51s-88.834 -2.33398 -123.501 12.999c-59.333 26.667 -106.666 88 -141.999 184z" />
    <glyph glyph-name="seven" unicode="7" horiz-adv-x="1363" 
d="M232 1274c-17.333 -0.666992 -29.3301 1.99902 -35.9971 7.99902s-6.83398 13.667 -0.500977 23s18.166 18 35.499 26c21.333 10.667 90.333 26.667 207 48s212.667 35.666 288 42.999l96 9l97 146c68 102 119.5 183.5 154.5 244.5s73.833 136.167 116.5 225.5
c82.667 173.333 113.667 276.333 93 309c-18.667 29.333 -84.167 32.5 -196.5 9.5s-280.833 -73.833 -505.5 -152.5c-162 -56.667 -259 -78.667 -291 -66c-11.333 4.66699 -17 13.667 -17 27c0 10.667 3 18.334 9 23.001s16.667 7.66699 32 9
c23.333 2 130.666 34.667 321.999 98c179.333 59.333 308 99.333 386 120s141.667 31 191 31c60 0 101.167 -14.667 123.5 -44s28.166 -77 17.499 -143c-6.66699 -42 -48.667 -140.167 -126 -294.5s-146.666 -278.166 -207.999 -371.499c-64.667 -97.333 -97 -151 -97 -161
c0 -8 18 -12 54 -12c33.333 0 62.5 -4.5 87.5 -13.5s40.167 -20.833 45.5 -35.5c6.66699 -16 3.16699 -27.167 -10.5 -33.5s-33.167 -5.83301 -58.5 1.5c-26 8 -63.333 12 -112 12h-71l-131 -188c-357.333 -511.333 -566.333 -841.333 -627 -990
c-34.667 -86 -29.334 -128.333 15.999 -127c22.667 0 46.667 3.66699 72 11c22.667 6.66699 38.167 3.16699 46.5 -10.5s4.16602 -29.167 -12.501 -46.5c-11.333 -11.333 -36.666 -19.666 -75.999 -24.999s-67.666 -4.66602 -84.999 2.00098
c-18.667 7.33301 -32.834 18.166 -42.501 32.499s-14.5 33.166 -14.5 56.499s5 51 15 83s25.833 70.5 47.5 115.5s48.334 94.833 80.001 149.5s70.167 117.667 115.5 189l152 231l192 278l154 219l-52 3c-32 2 -113 -8.66699 -243 -32c-123.333 -24.667 -201 -37 -233 -37z
" />
    <glyph glyph-name="eight" unicode="8" horiz-adv-x="1486" 
d="M433 1360c-110 47.333 -170.999 102.168 -182.999 164.501s24 138.166 108 227.499c42 45.333 104.167 95.5 186.5 150.5s173.833 107.5 274.5 157.5c136.667 68.667 247.667 112.667 333 132s152.333 16 201 -10c22.667 -11.333 43 -32 61 -62s27 -58.667 27 -86
c1.33301 -22 8 -42 20 -60c17.333 -22 23.666 -48.167 18.999 -78.5s-19.334 -61.833 -44.001 -94.5c-28.667 -38 -51.334 -72.333 -68.001 -103c-14.667 -27.333 -27 -44.333 -37 -51s-21.333 -4.66699 -34 6c-7.33301 6.66699 -20.666 5.83398 -39.999 -2.49902
s-54.666 -27.5 -105.999 -57.5l-288 -166c-107.333 -60 -161 -92 -161 -96c0 -2.66699 24.667 -18.334 74 -47.001c128.667 -72.667 201.834 -152 219.501 -238s-17.166 -192.333 -104.499 -319c-72 -104 -166.333 -204.333 -283 -301s-214.667 -155.667 -294 -177
c-67.333 -19.333 -125.333 -21.666 -174 -6.99902c-52.667 16 -88.5 39.167 -107.5 69.5s-28.5 79.166 -28.5 146.499c0 121.333 27.333 238.666 82 351.999c37.333 78 94.666 162.333 171.999 253s151.666 160.334 222.999 209.001l59 41zM934.001 994.002
c0 44.667 -22 90.166 -66 136.499s-104.667 88.5 -182 126.5l-64 31l-100 -76c-144 -108 -254.833 -228.167 -332.5 -360.5s-116.5 -266.166 -116.5 -401.499c0 -81.333 30.833 -129.5 92.5 -144.5s142.834 5.83301 243.501 62.5c78.667 44.667 159.167 107 241.5 187
s150.166 160.833 203.499 242.5s80 147.167 80 196.5zM884.001 2015c-216 -102 -374.332 -205.331 -474.999 -309.998c-84 -86.667 -108.667 -155 -74 -205c6.66699 -10 15.334 -18.667 26.001 -26c18.667 -12.667 61.167 -33.834 127.5 -63.501
s106.5 -44.834 120.5 -45.501c6 0 33.667 15.333 83 46c57.333 35.333 147.333 87 270 155c127.333 69.333 218.833 123 274.5 161s90.5 70 104.5 96c15.333 32 24.666 78 27.999 138c2.66699 40.667 2.66699 68.834 0 84.501s-10.667 31.834 -24 48.5
c-28.667 35.333 -79.334 46.666 -152.001 34c-72.667 -12.667 -175.667 -50.334 -309 -113.001z" />
    <glyph glyph-name="nine" unicode="9" horiz-adv-x="1363" 
d="M1320 2128c21.333 -47.333 33.998 -123.169 37.998 -227.502s-2.66699 -192.166 -20 -263.499c-28 -115.333 -87.167 -252.5 -177.5 -411.5s-193.166 -307.5 -308.499 -445.5c-114.667 -136 -239.167 -265.5 -373.5 -388.5s-239.166 -203.167 -314.499 -240.5
c-44.667 -22 -73.834 -34.667 -87.501 -38s-28.167 -0.333008 -43.5 9c-18 11.333 -19 25.333 -3 42c12 12 30.333 21.333 55 28c42 11.333 105.333 50.666 190 117.999s182 156 292 266c150.667 150.667 282.167 304.5 394.5 461.5s193.833 300.833 244.5 431.5
c36 90.667 59.5 166.834 70.5 228.501s14.5 134.167 10.5 217.5c-2.66699 56 -6.66699 97.167 -12 123.5s-15.333 54.5 -30 84.5c-25.333 51.333 -51.5 85.5 -78.5 102.5s-67.833 25.167 -122.5 24.5c-100 -2 -211.333 -41.667 -334 -119
c-46 -29.333 -117 -90.5 -213 -183.5s-164.667 -167.5 -206 -223.5c-50.667 -68.667 -93.334 -138.167 -128.001 -208.5s-59.167 -135.833 -73.5 -196.5s-20 -115.5 -17 -164.5s16.833 -89 41.5 -120s58.334 -49.833 101.001 -56.5c34 -5.33301 80.5 -3 139.5 7
s114.5 24.667 166.5 44c46 16.667 109.167 52 189.5 106s138.5 99.667 174.5 137c28 28.667 52.167 46 72.5 52s33.833 0.333008 40.5 -17c4.66699 -12 -15.166 -39.167 -59.499 -81.5s-98.333 -86.5 -162 -132.5s-118.834 -80 -165.501 -102
c-56.667 -26.667 -107.834 -46 -153.501 -58s-98.834 -20.333 -159.501 -25c-48.667 -3.33301 -82.5 -3.66602 -101.5 -0.999023s-41.833 11.334 -68.5 26.001c-43.333 23.333 -74.833 54.833 -94.5 94.5s-29.5 91.5 -29.5 155.5c0.666992 64 6.33398 118 17.001 162
s32 100 64 168c92.667 197.333 240.667 385.666 444 564.999c108.667 96 222.834 165.667 342.501 209s214.834 50 285.501 20c30 -12.667 59.833 -35.5 89.5 -68.5s54.167 -69.833 73.5 -110.5z" />
    <glyph glyph-name="colon" unicode=":" horiz-adv-x="323" 
d="M156 366c17.333 0 30.499 -11.167 39.499 -33.5s7.83301 -40.166 -3.5 -53.499c-8.66699 -10 -16.334 -16.333 -23.001 -19s-13 -1.83398 -19 2.49902s-12.333 12.5 -19 24.5c-9.33301 17.333 -11.166 34.833 -5.49902 52.5s15.834 26.5 30.501 26.5zM126.999 751
c12.667 -2.66699 22.001 -8.99902 28.001 -18.999s7 -19.333 3 -28s-12.333 -13 -25 -13c-22 0 -33 10.667 -33 32c0 11.333 2.16699 19.166 6.5 23.499s11.166 5.83301 20.499 4.5z" />
    <glyph glyph-name="semicolon" unicode=";" horiz-adv-x="397" 
d="M227 564c16 0 30.499 -19.665 43.499 -58.998s17.167 -77 12.5 -113c-9.33301 -76.667 -28 -132.334 -56 -167.001c-21.333 -26.667 -39.666 -27.334 -54.999 -2.00098c-6 10 -0.666992 46.333 16 109c10.667 38.667 16.667 67.667 18 87s-1.66699 38 -9 56
c-8.66699 24 -10 44.833 -4 62.5s17.333 26.5 34 26.5zM236.999 808.002c-4.66699 -13.333 -15 -21.334 -31 -24.001s-27.333 1.33301 -34 12c-3.33301 4.66699 -4.5 10.5 -3.5 17.5s3.83301 12.5 8.5 16.5c10.667 10.667 24.5 12.834 41.5 6.50098
s23.167 -15.833 18.5 -28.5z" />
    <glyph glyph-name="less" unicode="&#x3c;" horiz-adv-x="643" 
d="M618 1207c10 -7.33301 15.999 -12.8359 17.999 -16.5029s1.66699 -7.16699 -1 -10.5s-9.33398 -8.33301 -20.001 -15c-18.667 -12 -46.167 -35.833 -82.5 -71.5l-247.5 -255.5c-137.333 -144 -204 -224 -200 -240c4 -21.333 26.333 -37.833 67 -49.5
s110.334 -21.5 209.001 -29.5c141.333 -10.667 217.333 -27.667 228 -51c3.33301 -7.33301 2.33301 -15.666 -3 -24.999c-6 -8.66699 -21.667 -13.167 -47 -13.5s-100.666 3.83398 -225.999 12.501c-121.333 7.33301 -206 26.166 -254 56.499s-64.333 75.5 -49 135.5
c2.66699 10.667 22.667 38.334 60 83.001s81.333 93.334 132 146.001l97.5 102.5l100.5 106.5l58 62c41.333 44 73.333 71.167 96 81.5s44 7.5 64 -8.5z" />
    <glyph glyph-name="equal" unicode="=" horiz-adv-x="1333" 
d="M945 729c88.667 0.666992 142.001 -0.666992 160.001 -4s28.333 -13 31 -29c2 -15.333 -5.16699 -24.833 -21.5 -28.5s-68.833 -7.5 -157.5 -11.5c-117.333 -4 -259.333 -25.333 -426 -64c-134.667 -31.333 -232.167 -49.333 -292.5 -54s-94.5 3 -102.5 23
c-6.66699 16 -2.33398 28.667 12.999 38s39.333 14.333 72 15c38.667 0 137 19 295 57c103.333 24 181.333 39.5 234 46.5s117.667 10.833 195 11.5zM658.001 1056c361.333 72.667 542 70.332 542 -7.00098c0 -17.333 -6.66699 -29.166 -20 -35.499
s-27.666 -4.83301 -42.999 4.5c-42 26.667 -182.333 15.667 -421 -33c-161.333 -32 -277.666 -51 -348.999 -57c-52.667 -4 -84.5 -4.83301 -95.5 -2.5s-16.5 10.833 -16.5 25.5c0 17.333 7.16699 30 21.5 38s37.166 12 68.499 12c25.333 0 129.666 18.333 312.999 55z" />
    <glyph glyph-name="greater" unicode="&#x3e;" horiz-adv-x="530" 
d="M491 825c21.333 -20 32.6641 -46.166 33.9971 -78.499s-7.66699 -64.166 -27 -95.499c-24.667 -40 -70.5 -94.333 -137.5 -163s-132.833 -129.667 -197.5 -183s-106 -80 -124 -80c-15.333 0 -26.666 6 -33.999 18c-3.33301 5.33301 -0.833008 14.166 7.5 26.499
s20.5 25.5 36.5 39.5c114 100 192.333 170.667 235 212s77.334 80 104.001 116c16.667 22 30.834 43.5 42.501 64.5s17.5 34.833 17.5 41.5c0 16 -52.667 50.333 -158 103c-84.667 42 -146.667 77.833 -186 107.5s-59 56.167 -59 79.5s12.333 31.666 37 24.999
c18 -5.33301 38.667 -18 62 -38c30 -25.333 90 -59.333 180 -102c89.333 -42 145 -73 167 -93z" />
    <glyph glyph-name="question" unicode="?" horiz-adv-x="907" 
d="M350 23c12.667 -8 16.332 -20.332 10.999 -36.999s-15.666 -25 -30.999 -25s-25.666 7.33301 -30.999 22c-6 14.667 -2.33301 27.167 11 37.5s26.666 11.166 39.999 2.49902zM737.998 1194c10.667 -33.333 12.999 -65.3359 6.99902 -96.0029
c-18.667 -73.333 -92.667 -219 -222 -437c-73.333 -122.667 -123.333 -215 -150 -277c-26.667 -64.667 -50 -97 -70 -97c-18.667 0 -31.667 5.33301 -39 16c-6 9.33301 13.833 61.5 59.5 156.5s91.834 180.833 138.501 257.5c60 98 108.167 184.833 144.5 260.5
s54.5 127.167 54.5 154.5c0 24.667 -2.5 39.834 -7.5 45.501s-18.833 8.5 -41.5 8.5c-52.667 0 -123.167 -32.833 -211.5 -98.5s-138.833 -122.5 -151.5 -170.5c-9.33301 -36.667 -10.333 -72.5 -3 -107.5s20.333 -56.833 39 -65.5c23.333 -11.333 35 -25.666 35 -42.999
c0 -14 -8.83301 -23.167 -26.5 -27.5s-37.167 -3.16602 -58.5 3.50098s-36.666 17.334 -45.999 32.001c-28 42.667 -38.333 95.667 -31 159s30.333 122.666 69 177.999c21.333 29.333 69.166 68.5 143.499 117.5s133.5 80.167 177.5 93.5c49.333 15.333 90.5 17.5 123.5 6.5
s55.167 -34.167 66.5 -69.5z" />
    <glyph glyph-name="at" unicode="@" horiz-adv-x="1638" 
d="M1415 1442c46.667 -48.667 80.8301 -104 102.497 -166s32.834 -136 33.501 -222c0 -92 -9 -169.333 -27 -232c-16 -53.333 -47.5 -122.5 -94.5 -207.5s-91.5 -152.833 -133.5 -203.5c-23.333 -29.333 -58.333 -76 -105 -140
c-31.333 -46.667 -75.666 -98.5 -132.999 -155.5s-109.666 -101.167 -156.999 -132.5c-68 -46 -144.833 -75.667 -230.5 -89s-168.167 -9 -247.5 13c-123.333 34 -211.333 98 -264 192c-21.333 36.667 -34.5 66.667 -39.5 90s-7.16699 63.333 -6.5 120
c0.666992 171.333 66.5 354.666 197.5 549.999s304.5 369 520.5 521c133.333 94.667 246.5 146.834 339.5 156.501s174.5 -21.833 244.5 -94.5zM1226 478c110 108 184.83 236.836 224.497 386.503s34.167 282.167 -16.5 397.5
c-51.333 117.333 -115.666 182.666 -192.999 195.999s-180.333 -22.667 -309 -108c-170.667 -113.333 -316.834 -240.333 -438.501 -381s-208.834 -283.334 -261.501 -428.001c-24 -66.667 -36.833 -141.334 -38.5 -224.001s8.83301 -142.667 31.5 -180
c50.667 -82 131 -135.333 241 -160s217 -13 321 35c40 18 101.333 62.167 184 132.5s124 113.5 124 129.5c0 4 -4.33301 7.16699 -13 9.5s-18.667 2.83301 -30 1.5c-47.333 -2.66699 -82.666 -1.16699 -105.999 4.5s-46 18.834 -68 39.501
c-50 43.333 -64 110.666 -42 201.999l13 50l-58 -39c-62.667 -42.667 -117.167 -52.834 -163.5 -30.501s-64.166 66.833 -53.499 133.5c6.66699 42.667 18.334 79 35.001 109s41.667 59.333 75 88c77.333 68 154.333 68.333 231 1l53 -46l34 46
c17.333 25.333 36.833 40.666 58.5 45.999s36.5 -1.66699 44.5 -21c2 -6.66699 -1.33301 -19.5 -10 -38.5s-20.334 -38.5 -35.001 -58.5c-45.333 -62 -82.166 -124.167 -110.499 -186.5s-41.166 -109.166 -38.499 -140.499c2 -22.667 6.5 -39.167 13.5 -49.5
s19.5 -20.166 37.5 -29.499c35.333 -16.667 73.833 -16 115.5 2s91.167 55 148.5 111zM897.993 747.003l-33 33c-22.667 22.667 -43.334 34 -62.001 34c-21.333 0 -45.166 -11.5 -71.499 -34.5s-46.5 -49.833 -60.5 -80.5c-32 -67.333 -35.667 -106 -11 -116
c26 -11.333 71.667 12 137 70c4.66699 3.33301 9 7 13 11z" />
    <glyph glyph-name="A" unicode="A" horiz-adv-x="1980" 
d="M1974 1837c2 -211.333 -25 -436.666 -81 -675.999c-12.667 -54 -19.834 -93.667 -21.501 -119s0.833008 -47.333 7.5 -66c11.333 -31.333 17 -74 17 -128s-5.66699 -86.667 -17 -98c-13.333 -13.333 -26.833 -15.666 -40.5 -6.99902s-20.5 24 -20.5 46
c-0.666992 23.333 -2.66699 34.333 -6 33c-5.33301 -5.33301 -38 -103 -98 -293c-74.667 -232 -133.334 -406.333 -176.001 -523c-7.33301 -18.667 -20.833 -29.834 -40.5 -33.501s-32.834 2.83301 -39.501 19.5c-5.33301 13.333 2 48 22 104
c70 188.667 141.333 400.334 214 635.001l12 38c32.667 105.333 49.334 171 50.001 197c1.33301 29.333 -10.667 47.333 -36 54c-18.667 4.66699 -66.334 5 -143.001 1c-13.333 -0.666992 -23.333 -1 -30 -1c-88.667 -4 -194.5 -17.833 -317.5 -41.5
s-229.5 -50.834 -319.5 -81.501l-107 -35l-89 -222c-60.667 -151.333 -98.667 -270 -114 -356c-15.333 -88 -49.333 -237.667 -102 -449c-52 -209.333 -81.333 -361.666 -88 -456.999c-4 -55.333 -8.33301 -93.333 -13 -114s-11.667 -31.667 -21 -33
c-16.667 -3.33301 -28 -1.33301 -34 6c-8 6.66699 -12 18.667 -12 36c0 18 -11.667 26.333 -35 25c-12 0 -20.5 2.5 -25.5 7.5s-6.66699 16.167 -5 33.5s6 38.833 13 64.5s18.5 62.5 34.5 110.5c31.333 90.667 58 196.667 80 318c20 102 49 226 87 372
c28 101.333 44.667 185.5 50 252.5s0.666016 129.167 -14.001 186.5l-9.5 38c-2.33301 9.33301 -5.66602 18.666 -9.99902 27.999s-8 16.166 -11 20.499s-7.83301 8.16602 -14.5 11.499s-12.667 5.16602 -18 5.49902s-13.666 -0.166992 -24.999 -1.5
s-22 -3.16602 -32 -5.49902s-24 -5.83301 -42 -10.5c-65.333 -17.333 -119.666 -26.333 -162.999 -27s-82 6 -116 20c-47.333 20 -70 51.833 -68 95.5s28.667 83.5 80 119.5c42 29.333 87 46.5 135 51.5s96.667 -3.66699 146 -26s93 -58.166 131 -107.499l124 38l124 39
l111 212c140 268 285.5 516.833 436.5 746.5s264.167 374.5 339.5 434.5c66 52.667 127 65.667 183 39c22.667 -11.333 42.667 -27.333 60 -48s33.5 -50.334 48.5 -89c15 -38.667 26.833 -90.667 35.5 -156s13.334 -143.333 14.001 -234zM105 799
c17.333 -14 56.002 -17.832 116.002 -11.499s114.333 19.833 163 40.5c-14 24 -34.5 41.667 -61.5 53s-54 16 -81 14s-52.333 -6.66699 -76 -14s-41.5 -16 -53.5 -26c-18.667 -15.333 -28.334 -25.333 -29.001 -30s6.66602 -13.334 21.999 -26.001zM661.002 725.001
c28 68.667 40.332 104.667 36.999 108c-1.33301 1.33301 -27.666 -5.33398 -78.999 -20.001c-23.333 -6.66699 -40.833 -13.667 -52.5 -21s-16.167 -14 -13.5 -20c10 -25.333 19.333 -53.333 28 -84c4.66699 -17.333 10 -32.666 16 -45.999s10.333 -20 13 -20
c2 0 5.5 4.5 10.5 13.5s11.167 21.667 18.5 38zM1836 1272c18 88 31.668 170.836 41.001 248.503s13.666 168.5 12.999 272.5c-1.33301 125.333 -10.833 230 -28.5 314s-37.167 139.667 -58.5 167c-18 21.333 -40.167 26.5 -66.5 15.5s-63.166 -41.167 -110.499 -90.5
c-51.333 -52.667 -118.333 -138.334 -201 -257.001s-166 -248.667 -250 -390c-62.667 -105.333 -128.834 -222.833 -198.501 -352.5s-104.5 -199.834 -104.5 -210.501c0 -8.66699 11.667 -10 35 -4c76 20 139.333 35.667 190 47c220 53.333 406.667 75.666 560 66.999
l143 -8z" />
    <glyph glyph-name="A" unicode="&#xc5;" horiz-adv-x="1980" 
d="M1974 1837c2 -211.333 -25 -436.666 -81 -675.999c-12.667 -54 -19.834 -93.667 -21.501 -119s0.833008 -47.333 7.5 -66c11.333 -31.333 17 -74 17 -128s-5.66699 -86.667 -17 -98c-13.333 -13.333 -26.833 -15.666 -40.5 -6.99902s-20.5 24 -20.5 46
c-0.666992 23.333 -2.66699 34.333 -6 33c-5.33301 -5.33301 -38 -103 -98 -293c-74.667 -232 -133.334 -406.333 -176.001 -523c-7.33301 -18.667 -20.833 -29.834 -40.5 -33.501s-32.834 2.83301 -39.501 19.5c-5.33301 13.333 2 48 22 104
c70 188.667 141.333 400.334 214 635.001l12 38c32.667 105.333 49.334 171 50.001 197c1.33301 29.333 -10.667 47.333 -36 54c-18.667 4.66699 -66.334 5 -143.001 1c-13.333 -0.666992 -23.333 -1 -30 -1c-88.667 -4 -194.5 -17.833 -317.5 -41.5
s-229.5 -50.834 -319.5 -81.501l-107 -35l-89 -222c-60.667 -151.333 -98.667 -270 -114 -356c-15.333 -88 -49.333 -237.667 -102 -449c-52 -209.333 -81.333 -361.666 -88 -456.999c-4 -55.333 -8.33301 -93.333 -13 -114s-11.667 -31.667 -21 -33
c-16.667 -3.33301 -28 -1.33301 -34 6c-8 6.66699 -12 18.667 -12 36c0 18 -11.667 26.333 -35 25c-12 0 -20.5 2.5 -25.5 7.5s-6.66699 16.167 -5 33.5s6 38.833 13 64.5s18.5 62.5 34.5 110.5c31.333 90.667 58 196.667 80 318c20 102 49 226 87 372
c28 101.333 44.667 185.5 50 252.5s0.666016 129.167 -14.001 186.5l-9.5 38c-2.33301 9.33301 -5.66602 18.666 -9.99902 27.999s-8 16.166 -11 20.499s-7.83301 8.16602 -14.5 11.499s-12.667 5.16602 -18 5.49902s-13.666 -0.166992 -24.999 -1.5
s-22 -3.16602 -32 -5.49902s-24 -5.83301 -42 -10.5c-65.333 -17.333 -119.666 -26.333 -162.999 -27s-82 6 -116 20c-47.333 20 -70 51.833 -68 95.5s28.667 83.5 80 119.5c42 29.333 87 46.5 135 51.5s96.667 -3.66699 146 -26s93 -58.166 131 -107.499l124 38l124 39
l111 212c140 268 285.5 516.833 436.5 746.5s264.167 374.5 339.5 434.5c66 52.667 127 65.667 183 39c22.667 -11.333 42.667 -27.333 60 -48s33.5 -50.334 48.5 -89c15 -38.667 26.833 -90.667 35.5 -156s13.334 -143.333 14.001 -234zM105 799
c17.333 -14 56.002 -17.832 116.002 -11.499s114.333 19.833 163 40.5c-14 24 -34.5 41.667 -61.5 53s-54 16 -81 14s-52.333 -6.66699 -76 -14s-41.5 -16 -53.5 -26c-18.667 -15.333 -28.334 -25.333 -29.001 -30s6.66602 -13.334 21.999 -26.001zM661.002 725.001
c28 68.667 40.332 104.667 36.999 108c-1.33301 1.33301 -27.666 -5.33398 -78.999 -20.001c-23.333 -6.66699 -40.833 -13.667 -52.5 -21s-16.167 -14 -13.5 -20c10 -25.333 19.333 -53.333 28 -84c4.66699 -17.333 10 -32.666 16 -45.999s10.333 -20 13 -20
c2 0 5.5 4.5 10.5 13.5s11.167 21.667 18.5 38zM1836 1272c18 88 31.668 170.836 41.001 248.503s13.666 168.5 12.999 272.5c-1.33301 125.333 -10.833 230 -28.5 314s-37.167 139.667 -58.5 167c-18 21.333 -40.167 26.5 -66.5 15.5s-63.166 -41.167 -110.499 -90.5
c-51.333 -52.667 -118.333 -138.334 -201 -257.001s-166 -248.667 -250 -390c-62.667 -105.333 -128.834 -222.833 -198.501 -352.5s-104.5 -199.834 -104.5 -210.501c0 -8.66699 11.667 -10 35 -4c76 20 139.333 35.667 190 47c220 53.333 406.667 75.666 560 66.999
l143 -8z" />
    <glyph glyph-name="A" unicode="&#xc4;" horiz-adv-x="1980" 
d="M1974 1837c2 -211.333 -25 -436.666 -81 -675.999c-12.667 -54 -19.834 -93.667 -21.501 -119s0.833008 -47.333 7.5 -66c11.333 -31.333 17 -74 17 -128s-5.66699 -86.667 -17 -98c-13.333 -13.333 -26.833 -15.666 -40.5 -6.99902s-20.5 24 -20.5 46
c-0.666992 23.333 -2.66699 34.333 -6 33c-5.33301 -5.33301 -38 -103 -98 -293c-74.667 -232 -133.334 -406.333 -176.001 -523c-7.33301 -18.667 -20.833 -29.834 -40.5 -33.501s-32.834 2.83301 -39.501 19.5c-5.33301 13.333 2 48 22 104
c70 188.667 141.333 400.334 214 635.001l12 38c32.667 105.333 49.334 171 50.001 197c1.33301 29.333 -10.667 47.333 -36 54c-18.667 4.66699 -66.334 5 -143.001 1c-13.333 -0.666992 -23.333 -1 -30 -1c-88.667 -4 -194.5 -17.833 -317.5 -41.5
s-229.5 -50.834 -319.5 -81.501l-107 -35l-89 -222c-60.667 -151.333 -98.667 -270 -114 -356c-15.333 -88 -49.333 -237.667 -102 -449c-52 -209.333 -81.333 -361.666 -88 -456.999c-4 -55.333 -8.33301 -93.333 -13 -114s-11.667 -31.667 -21 -33
c-16.667 -3.33301 -28 -1.33301 -34 6c-8 6.66699 -12 18.667 -12 36c0 18 -11.667 26.333 -35 25c-12 0 -20.5 2.5 -25.5 7.5s-6.66699 16.167 -5 33.5s6 38.833 13 64.5s18.5 62.5 34.5 110.5c31.333 90.667 58 196.667 80 318c20 102 49 226 87 372
c28 101.333 44.667 185.5 50 252.5s0.666016 129.167 -14.001 186.5l-9.5 38c-2.33301 9.33301 -5.66602 18.666 -9.99902 27.999s-8 16.166 -11 20.499s-7.83301 8.16602 -14.5 11.499s-12.667 5.16602 -18 5.49902s-13.666 -0.166992 -24.999 -1.5
s-22 -3.16602 -32 -5.49902s-24 -5.83301 -42 -10.5c-65.333 -17.333 -119.666 -26.333 -162.999 -27s-82 6 -116 20c-47.333 20 -70 51.833 -68 95.5s28.667 83.5 80 119.5c42 29.333 87 46.5 135 51.5s96.667 -3.66699 146 -26s93 -58.166 131 -107.499l124 38l124 39
l111 212c140 268 285.5 516.833 436.5 746.5s264.167 374.5 339.5 434.5c66 52.667 127 65.667 183 39c22.667 -11.333 42.667 -27.333 60 -48s33.5 -50.334 48.5 -89c15 -38.667 26.833 -90.667 35.5 -156s13.334 -143.333 14.001 -234zM105 799
c17.333 -14 56.002 -17.832 116.002 -11.499s114.333 19.833 163 40.5c-14 24 -34.5 41.667 -61.5 53s-54 16 -81 14s-52.333 -6.66699 -76 -14s-41.5 -16 -53.5 -26c-18.667 -15.333 -28.334 -25.333 -29.001 -30s6.66602 -13.334 21.999 -26.001zM661.002 725.001
c28 68.667 40.332 104.667 36.999 108c-1.33301 1.33301 -27.666 -5.33398 -78.999 -20.001c-23.333 -6.66699 -40.833 -13.667 -52.5 -21s-16.167 -14 -13.5 -20c10 -25.333 19.333 -53.333 28 -84c4.66699 -17.333 10 -32.666 16 -45.999s10.333 -20 13 -20
c2 0 5.5 4.5 10.5 13.5s11.167 21.667 18.5 38zM1836 1272c18 88 31.668 170.836 41.001 248.503s13.666 168.5 12.999 272.5c-1.33301 125.333 -10.833 230 -28.5 314s-37.167 139.667 -58.5 167c-18 21.333 -40.167 26.5 -66.5 15.5s-63.166 -41.167 -110.499 -90.5
c-51.333 -52.667 -118.333 -138.334 -201 -257.001s-166 -248.667 -250 -390c-62.667 -105.333 -128.834 -222.833 -198.501 -352.5s-104.5 -199.834 -104.5 -210.501c0 -8.66699 11.667 -10 35 -4c76 20 139.333 35.667 190 47c220 53.333 406.667 75.666 560 66.999
l143 -8z" />
    <glyph glyph-name="A" unicode="&#xc3;" horiz-adv-x="1980" 
d="M1974 1837c2 -211.333 -25 -436.666 -81 -675.999c-12.667 -54 -19.834 -93.667 -21.501 -119s0.833008 -47.333 7.5 -66c11.333 -31.333 17 -74 17 -128s-5.66699 -86.667 -17 -98c-13.333 -13.333 -26.833 -15.666 -40.5 -6.99902s-20.5 24 -20.5 46
c-0.666992 23.333 -2.66699 34.333 -6 33c-5.33301 -5.33301 -38 -103 -98 -293c-74.667 -232 -133.334 -406.333 -176.001 -523c-7.33301 -18.667 -20.833 -29.834 -40.5 -33.501s-32.834 2.83301 -39.501 19.5c-5.33301 13.333 2 48 22 104
c70 188.667 141.333 400.334 214 635.001l12 38c32.667 105.333 49.334 171 50.001 197c1.33301 29.333 -10.667 47.333 -36 54c-18.667 4.66699 -66.334 5 -143.001 1c-13.333 -0.666992 -23.333 -1 -30 -1c-88.667 -4 -194.5 -17.833 -317.5 -41.5
s-229.5 -50.834 -319.5 -81.501l-107 -35l-89 -222c-60.667 -151.333 -98.667 -270 -114 -356c-15.333 -88 -49.333 -237.667 -102 -449c-52 -209.333 -81.333 -361.666 -88 -456.999c-4 -55.333 -8.33301 -93.333 -13 -114s-11.667 -31.667 -21 -33
c-16.667 -3.33301 -28 -1.33301 -34 6c-8 6.66699 -12 18.667 -12 36c0 18 -11.667 26.333 -35 25c-12 0 -20.5 2.5 -25.5 7.5s-6.66699 16.167 -5 33.5s6 38.833 13 64.5s18.5 62.5 34.5 110.5c31.333 90.667 58 196.667 80 318c20 102 49 226 87 372
c28 101.333 44.667 185.5 50 252.5s0.666016 129.167 -14.001 186.5l-9.5 38c-2.33301 9.33301 -5.66602 18.666 -9.99902 27.999s-8 16.166 -11 20.499s-7.83301 8.16602 -14.5 11.499s-12.667 5.16602 -18 5.49902s-13.666 -0.166992 -24.999 -1.5
s-22 -3.16602 -32 -5.49902s-24 -5.83301 -42 -10.5c-65.333 -17.333 -119.666 -26.333 -162.999 -27s-82 6 -116 20c-47.333 20 -70 51.833 -68 95.5s28.667 83.5 80 119.5c42 29.333 87 46.5 135 51.5s96.667 -3.66699 146 -26s93 -58.166 131 -107.499l124 38l124 39
l111 212c140 268 285.5 516.833 436.5 746.5s264.167 374.5 339.5 434.5c66 52.667 127 65.667 183 39c22.667 -11.333 42.667 -27.333 60 -48s33.5 -50.334 48.5 -89c15 -38.667 26.833 -90.667 35.5 -156s13.334 -143.333 14.001 -234zM105 799
c17.333 -14 56.002 -17.832 116.002 -11.499s114.333 19.833 163 40.5c-14 24 -34.5 41.667 -61.5 53s-54 16 -81 14s-52.333 -6.66699 -76 -14s-41.5 -16 -53.5 -26c-18.667 -15.333 -28.334 -25.333 -29.001 -30s6.66602 -13.334 21.999 -26.001zM661.002 725.001
c28 68.667 40.332 104.667 36.999 108c-1.33301 1.33301 -27.666 -5.33398 -78.999 -20.001c-23.333 -6.66699 -40.833 -13.667 -52.5 -21s-16.167 -14 -13.5 -20c10 -25.333 19.333 -53.333 28 -84c4.66699 -17.333 10 -32.666 16 -45.999s10.333 -20 13 -20
c2 0 5.5 4.5 10.5 13.5s11.167 21.667 18.5 38zM1836 1272c18 88 31.668 170.836 41.001 248.503s13.666 168.5 12.999 272.5c-1.33301 125.333 -10.833 230 -28.5 314s-37.167 139.667 -58.5 167c-18 21.333 -40.167 26.5 -66.5 15.5s-63.166 -41.167 -110.499 -90.5
c-51.333 -52.667 -118.333 -138.334 -201 -257.001s-166 -248.667 -250 -390c-62.667 -105.333 -128.834 -222.833 -198.501 -352.5s-104.5 -199.834 -104.5 -210.501c0 -8.66699 11.667 -10 35 -4c76 20 139.333 35.667 190 47c220 53.333 406.667 75.666 560 66.999
l143 -8z" />
    <glyph glyph-name="A" unicode="&#xc2;" horiz-adv-x="1980" 
d="M1974 1837c2 -211.333 -25 -436.666 -81 -675.999c-12.667 -54 -19.834 -93.667 -21.501 -119s0.833008 -47.333 7.5 -66c11.333 -31.333 17 -74 17 -128s-5.66699 -86.667 -17 -98c-13.333 -13.333 -26.833 -15.666 -40.5 -6.99902s-20.5 24 -20.5 46
c-0.666992 23.333 -2.66699 34.333 -6 33c-5.33301 -5.33301 -38 -103 -98 -293c-74.667 -232 -133.334 -406.333 -176.001 -523c-7.33301 -18.667 -20.833 -29.834 -40.5 -33.501s-32.834 2.83301 -39.501 19.5c-5.33301 13.333 2 48 22 104
c70 188.667 141.333 400.334 214 635.001l12 38c32.667 105.333 49.334 171 50.001 197c1.33301 29.333 -10.667 47.333 -36 54c-18.667 4.66699 -66.334 5 -143.001 1c-13.333 -0.666992 -23.333 -1 -30 -1c-88.667 -4 -194.5 -17.833 -317.5 -41.5
s-229.5 -50.834 -319.5 -81.501l-107 -35l-89 -222c-60.667 -151.333 -98.667 -270 -114 -356c-15.333 -88 -49.333 -237.667 -102 -449c-52 -209.333 -81.333 -361.666 -88 -456.999c-4 -55.333 -8.33301 -93.333 -13 -114s-11.667 -31.667 -21 -33
c-16.667 -3.33301 -28 -1.33301 -34 6c-8 6.66699 -12 18.667 -12 36c0 18 -11.667 26.333 -35 25c-12 0 -20.5 2.5 -25.5 7.5s-6.66699 16.167 -5 33.5s6 38.833 13 64.5s18.5 62.5 34.5 110.5c31.333 90.667 58 196.667 80 318c20 102 49 226 87 372
c28 101.333 44.667 185.5 50 252.5s0.666016 129.167 -14.001 186.5l-9.5 38c-2.33301 9.33301 -5.66602 18.666 -9.99902 27.999s-8 16.166 -11 20.499s-7.83301 8.16602 -14.5 11.499s-12.667 5.16602 -18 5.49902s-13.666 -0.166992 -24.999 -1.5
s-22 -3.16602 -32 -5.49902s-24 -5.83301 -42 -10.5c-65.333 -17.333 -119.666 -26.333 -162.999 -27s-82 6 -116 20c-47.333 20 -70 51.833 -68 95.5s28.667 83.5 80 119.5c42 29.333 87 46.5 135 51.5s96.667 -3.66699 146 -26s93 -58.166 131 -107.499l124 38l124 39
l111 212c140 268 285.5 516.833 436.5 746.5s264.167 374.5 339.5 434.5c66 52.667 127 65.667 183 39c22.667 -11.333 42.667 -27.333 60 -48s33.5 -50.334 48.5 -89c15 -38.667 26.833 -90.667 35.5 -156s13.334 -143.333 14.001 -234zM105 799
c17.333 -14 56.002 -17.832 116.002 -11.499s114.333 19.833 163 40.5c-14 24 -34.5 41.667 -61.5 53s-54 16 -81 14s-52.333 -6.66699 -76 -14s-41.5 -16 -53.5 -26c-18.667 -15.333 -28.334 -25.333 -29.001 -30s6.66602 -13.334 21.999 -26.001zM661.002 725.001
c28 68.667 40.332 104.667 36.999 108c-1.33301 1.33301 -27.666 -5.33398 -78.999 -20.001c-23.333 -6.66699 -40.833 -13.667 -52.5 -21s-16.167 -14 -13.5 -20c10 -25.333 19.333 -53.333 28 -84c4.66699 -17.333 10 -32.666 16 -45.999s10.333 -20 13 -20
c2 0 5.5 4.5 10.5 13.5s11.167 21.667 18.5 38zM1836 1272c18 88 31.668 170.836 41.001 248.503s13.666 168.5 12.999 272.5c-1.33301 125.333 -10.833 230 -28.5 314s-37.167 139.667 -58.5 167c-18 21.333 -40.167 26.5 -66.5 15.5s-63.166 -41.167 -110.499 -90.5
c-51.333 -52.667 -118.333 -138.334 -201 -257.001s-166 -248.667 -250 -390c-62.667 -105.333 -128.834 -222.833 -198.501 -352.5s-104.5 -199.834 -104.5 -210.501c0 -8.66699 11.667 -10 35 -4c76 20 139.333 35.667 190 47c220 53.333 406.667 75.666 560 66.999
l143 -8z" />
    <glyph glyph-name="A" unicode="&#xc1;" horiz-adv-x="1980" 
d="M1974 1837c2 -211.333 -25 -436.666 -81 -675.999c-12.667 -54 -19.834 -93.667 -21.501 -119s0.833008 -47.333 7.5 -66c11.333 -31.333 17 -74 17 -128s-5.66699 -86.667 -17 -98c-13.333 -13.333 -26.833 -15.666 -40.5 -6.99902s-20.5 24 -20.5 46
c-0.666992 23.333 -2.66699 34.333 -6 33c-5.33301 -5.33301 -38 -103 -98 -293c-74.667 -232 -133.334 -406.333 -176.001 -523c-7.33301 -18.667 -20.833 -29.834 -40.5 -33.501s-32.834 2.83301 -39.501 19.5c-5.33301 13.333 2 48 22 104
c70 188.667 141.333 400.334 214 635.001l12 38c32.667 105.333 49.334 171 50.001 197c1.33301 29.333 -10.667 47.333 -36 54c-18.667 4.66699 -66.334 5 -143.001 1c-13.333 -0.666992 -23.333 -1 -30 -1c-88.667 -4 -194.5 -17.833 -317.5 -41.5
s-229.5 -50.834 -319.5 -81.501l-107 -35l-89 -222c-60.667 -151.333 -98.667 -270 -114 -356c-15.333 -88 -49.333 -237.667 -102 -449c-52 -209.333 -81.333 -361.666 -88 -456.999c-4 -55.333 -8.33301 -93.333 -13 -114s-11.667 -31.667 -21 -33
c-16.667 -3.33301 -28 -1.33301 -34 6c-8 6.66699 -12 18.667 -12 36c0 18 -11.667 26.333 -35 25c-12 0 -20.5 2.5 -25.5 7.5s-6.66699 16.167 -5 33.5s6 38.833 13 64.5s18.5 62.5 34.5 110.5c31.333 90.667 58 196.667 80 318c20 102 49 226 87 372
c28 101.333 44.667 185.5 50 252.5s0.666016 129.167 -14.001 186.5l-9.5 38c-2.33301 9.33301 -5.66602 18.666 -9.99902 27.999s-8 16.166 -11 20.499s-7.83301 8.16602 -14.5 11.499s-12.667 5.16602 -18 5.49902s-13.666 -0.166992 -24.999 -1.5
s-22 -3.16602 -32 -5.49902s-24 -5.83301 -42 -10.5c-65.333 -17.333 -119.666 -26.333 -162.999 -27s-82 6 -116 20c-47.333 20 -70 51.833 -68 95.5s28.667 83.5 80 119.5c42 29.333 87 46.5 135 51.5s96.667 -3.66699 146 -26s93 -58.166 131 -107.499l124 38l124 39
l111 212c140 268 285.5 516.833 436.5 746.5s264.167 374.5 339.5 434.5c66 52.667 127 65.667 183 39c22.667 -11.333 42.667 -27.333 60 -48s33.5 -50.334 48.5 -89c15 -38.667 26.833 -90.667 35.5 -156s13.334 -143.333 14.001 -234zM105 799
c17.333 -14 56.002 -17.832 116.002 -11.499s114.333 19.833 163 40.5c-14 24 -34.5 41.667 -61.5 53s-54 16 -81 14s-52.333 -6.66699 -76 -14s-41.5 -16 -53.5 -26c-18.667 -15.333 -28.334 -25.333 -29.001 -30s6.66602 -13.334 21.999 -26.001zM661.002 725.001
c28 68.667 40.332 104.667 36.999 108c-1.33301 1.33301 -27.666 -5.33398 -78.999 -20.001c-23.333 -6.66699 -40.833 -13.667 -52.5 -21s-16.167 -14 -13.5 -20c10 -25.333 19.333 -53.333 28 -84c4.66699 -17.333 10 -32.666 16 -45.999s10.333 -20 13 -20
c2 0 5.5 4.5 10.5 13.5s11.167 21.667 18.5 38zM1836 1272c18 88 31.668 170.836 41.001 248.503s13.666 168.5 12.999 272.5c-1.33301 125.333 -10.833 230 -28.5 314s-37.167 139.667 -58.5 167c-18 21.333 -40.167 26.5 -66.5 15.5s-63.166 -41.167 -110.499 -90.5
c-51.333 -52.667 -118.333 -138.334 -201 -257.001s-166 -248.667 -250 -390c-62.667 -105.333 -128.834 -222.833 -198.501 -352.5s-104.5 -199.834 -104.5 -210.501c0 -8.66699 11.667 -10 35 -4c76 20 139.333 35.667 190 47c220 53.333 406.667 75.666 560 66.999
l143 -8z" />
    <glyph glyph-name="A" unicode="&#xc0;" horiz-adv-x="1980" 
d="M1974 1837c2 -211.333 -25 -436.666 -81 -675.999c-12.667 -54 -19.834 -93.667 -21.501 -119s0.833008 -47.333 7.5 -66c11.333 -31.333 17 -74 17 -128s-5.66699 -86.667 -17 -98c-13.333 -13.333 -26.833 -15.666 -40.5 -6.99902s-20.5 24 -20.5 46
c-0.666992 23.333 -2.66699 34.333 -6 33c-5.33301 -5.33301 -38 -103 -98 -293c-74.667 -232 -133.334 -406.333 -176.001 -523c-7.33301 -18.667 -20.833 -29.834 -40.5 -33.501s-32.834 2.83301 -39.501 19.5c-5.33301 13.333 2 48 22 104
c70 188.667 141.333 400.334 214 635.001l12 38c32.667 105.333 49.334 171 50.001 197c1.33301 29.333 -10.667 47.333 -36 54c-18.667 4.66699 -66.334 5 -143.001 1c-13.333 -0.666992 -23.333 -1 -30 -1c-88.667 -4 -194.5 -17.833 -317.5 -41.5
s-229.5 -50.834 -319.5 -81.501l-107 -35l-89 -222c-60.667 -151.333 -98.667 -270 -114 -356c-15.333 -88 -49.333 -237.667 -102 -449c-52 -209.333 -81.333 -361.666 -88 -456.999c-4 -55.333 -8.33301 -93.333 -13 -114s-11.667 -31.667 -21 -33
c-16.667 -3.33301 -28 -1.33301 -34 6c-8 6.66699 -12 18.667 -12 36c0 18 -11.667 26.333 -35 25c-12 0 -20.5 2.5 -25.5 7.5s-6.66699 16.167 -5 33.5s6 38.833 13 64.5s18.5 62.5 34.5 110.5c31.333 90.667 58 196.667 80 318c20 102 49 226 87 372
c28 101.333 44.667 185.5 50 252.5s0.666016 129.167 -14.001 186.5l-9.5 38c-2.33301 9.33301 -5.66602 18.666 -9.99902 27.999s-8 16.166 -11 20.499s-7.83301 8.16602 -14.5 11.499s-12.667 5.16602 -18 5.49902s-13.666 -0.166992 -24.999 -1.5
s-22 -3.16602 -32 -5.49902s-24 -5.83301 -42 -10.5c-65.333 -17.333 -119.666 -26.333 -162.999 -27s-82 6 -116 20c-47.333 20 -70 51.833 -68 95.5s28.667 83.5 80 119.5c42 29.333 87 46.5 135 51.5s96.667 -3.66699 146 -26s93 -58.166 131 -107.499l124 38l124 39
l111 212c140 268 285.5 516.833 436.5 746.5s264.167 374.5 339.5 434.5c66 52.667 127 65.667 183 39c22.667 -11.333 42.667 -27.333 60 -48s33.5 -50.334 48.5 -89c15 -38.667 26.833 -90.667 35.5 -156s13.334 -143.333 14.001 -234zM105 799
c17.333 -14 56.002 -17.832 116.002 -11.499s114.333 19.833 163 40.5c-14 24 -34.5 41.667 -61.5 53s-54 16 -81 14s-52.333 -6.66699 -76 -14s-41.5 -16 -53.5 -26c-18.667 -15.333 -28.334 -25.333 -29.001 -30s6.66602 -13.334 21.999 -26.001zM661.002 725.001
c28 68.667 40.332 104.667 36.999 108c-1.33301 1.33301 -27.666 -5.33398 -78.999 -20.001c-23.333 -6.66699 -40.833 -13.667 -52.5 -21s-16.167 -14 -13.5 -20c10 -25.333 19.333 -53.333 28 -84c4.66699 -17.333 10 -32.666 16 -45.999s10.333 -20 13 -20
c2 0 5.5 4.5 10.5 13.5s11.167 21.667 18.5 38zM1836 1272c18 88 31.668 170.836 41.001 248.503s13.666 168.5 12.999 272.5c-1.33301 125.333 -10.833 230 -28.5 314s-37.167 139.667 -58.5 167c-18 21.333 -40.167 26.5 -66.5 15.5s-63.166 -41.167 -110.499 -90.5
c-51.333 -52.667 -118.333 -138.334 -201 -257.001s-166 -248.667 -250 -390c-62.667 -105.333 -128.834 -222.833 -198.501 -352.5s-104.5 -199.834 -104.5 -210.501c0 -8.66699 11.667 -10 35 -4c76 20 139.333 35.667 190 47c220 53.333 406.667 75.666 560 66.999
l143 -8z" />
    <glyph glyph-name="B" unicode="B" horiz-adv-x="1775" 
d="M1557 1442c67.333 -53.333 119.502 -128.999 156.502 -226.999s55.333 -207.667 55 -329s-19.833 -241.333 -58.5 -360c-60.667 -185.333 -163.667 -359.166 -309 -521.499s-314.666 -292.166 -507.999 -389.499c-100.667 -50.667 -211.667 -84 -333 -100
s-225 -11 -311 15c-44.667 14 -90.167 43 -136.5 87s-76.5 87 -90.5 129c-24 73.333 -21 156.666 9 249.999s88.667 201.333 176 324l89 124l2 134c2.66699 149.333 32.667 316.5 90 501.5s133.666 363.167 228.999 534.5s197.666 313 306.999 425
c48 49.333 78 83.833 90 103.5s20.333 48.167 25 85.5c6 48.667 15.333 83.5 28 104.5s28.667 27.833 48 20.5c10.667 -4.66699 17 -11.834 19 -21.5c2 -9.66699 0.666992 -27.834 -4 -54.5c-6.66699 -46.667 -12 -77.334 -16 -92c-5.33301 -18 2.66699 -30 24 -36
c27.333 -8.66699 47.166 -31.834 59.499 -69.501s18.5 -93.5 18.5 -167.5c0 -94.667 -10.333 -177.334 -31 -248.001c-20.667 -75.333 -31 -114.333 -31 -117c0 -1.33301 9.16699 -1.83301 27.5 -1.5s40.5 1.5 66.5 3.5c57.333 4 109.833 -2.16699 157.5 -18.5
s98.167 -45.833 151.5 -88.5zM1092 2023c0 -32.667 -12.3311 -104.501 -36.998 -215.501s-48.667 -202.5 -72 -274.5c-7.33301 -24.667 -13.833 -47.5 -19.5 -68.5s-9.5 -37.5 -11.5 -49.5s-2.33301 -18 -1 -18c6.66699 0 23.667 14.333 51 43s53.666 82 78.999 160
s42.666 154.833 51.999 230.5s9.33301 139.834 0 192.501c-6.66699 26 -15.167 39 -25.5 39s-15.5 -13 -15.5 -39zM379.004 611l-0.00195312 -74l109 116c30.667 32.667 60.5 68.334 89.5 107.001s48.833 70 59.5 94c38.667 82 89.834 207 153.501 375
s106.834 292 129.501 372c17.333 60.667 33.333 122.167 48 184.5s25 113.833 31 154.5s6 61 0 61c-6.66699 0 -28 -21 -64 -63s-72 -88 -108 -138c-60.667 -82.667 -125.167 -191.834 -193.5 -327.501s-119.833 -257.167 -154.5 -364.5
c-25.333 -78 -48.333 -168.333 -69 -271s-31 -178 -31 -226zM433.002 451c16.667 18 23.333 28.333 20 31c-4.66699 0 -16.667 -10.333 -36 -31c-16.667 -18.667 -23 -29 -19 -31c4 0 15.667 10.333 35 31zM1633 547c34 103.333 51.0029 219.668 51.0029 349.001
s-16.667 233.333 -50 312c-20.667 48 -57.667 98.333 -111 151s-101 86 -143 100c-40.667 12.667 -81.667 16.667 -123 12c-60 -8 -101.667 -20.833 -125 -38.5s-49.666 -56.834 -78.999 -117.501c-41.333 -82.667 -72.333 -133 -93 -151s-44 -15.333 -70 8
c-10.667 10.667 -19.667 11.667 -27 3c-8.66699 -10 -24.667 -45.333 -48 -106c-32.667 -83.333 -47.334 -127.333 -44.001 -132c4 -4 39 21 105 75c100 80.667 210.167 156.167 330.5 226.5s192.166 101.166 215.499 92.499c35.333 -14 33.666 -35.667 -5.00098 -65
c-22 -16.667 -57.333 -37.667 -106 -63c-154 -79.333 -324.333 -198 -511 -356c-47.333 -40 -82.166 -74.833 -104.499 -104.5s-52.5 -81.167 -90.5 -154.5c-57.333 -109.333 -100 -180.666 -128 -213.999c-18 -22 -32.833 -35.5 -44.5 -40.5s-30.5 -5.5 -56.5 -1.5l-60 8
l-86 -130c-72.667 -108.667 -117.834 -199.167 -135.501 -271.5s-10.834 -138.833 20.499 -199.5c32.667 -64.667 92.167 -109.5 178.5 -134.5s187.833 -26.833 304.5 -5.5c224.667 42 444 168.333 658 379c106 105.333 186.5 199.5 241.5 282.5s100.167 178.5 135.5 286.5z
" />
    <glyph glyph-name="C" unicode="C" horiz-adv-x="1665" 
d="M1792 783c63.333 0 19.6699 -65.0059 -130.997 -195.006l-492 -424.5c-105.333 -88.333 -187.666 -153.833 -246.999 -196.5s-123 -82.667 -191 -120c-100.667 -55.333 -198.334 -90.166 -293.001 -104.499s-175.667 -8.66602 -243 17.001s-115 67.5 -143 125.5
s-43 128.667 -45 212s6.16699 168.5 24.5 255.5s45.666 182.167 81.999 285.5s74.5 200 114.5 290s84.667 183.667 134 281c299.333 586.667 589 894 869 922c128 12.667 215.667 -25.333 263 -114c51.333 -96.667 46.666 -260 -14.001 -490
c-16 -60 -53.667 -151.667 -113 -275s-117.5 -233.666 -174.5 -330.999s-91.167 -146 -102.5 -146c-12 0 -23.667 8.66699 -35 26c-6 10 -2.5 30.167 10.5 60.5s40.833 82.5 83.5 156.5c247.333 427.333 342 728 284 902c-14 42.667 -38.167 73.834 -72.5 93.501
s-75.333 27.334 -123 23.001s-103 -24 -166 -59s-127.5 -83.833 -193.5 -146.5c-71.333 -67.333 -140.833 -150.666 -208.5 -249.999s-141.5 -227 -221.5 -383c-212.667 -410.667 -332 -757.667 -358 -1041c-4 -48.667 0.5 -96.167 13.5 -142.5s38 -88 75 -125
s83.167 -58.5 138.5 -64.5c52 -6 107.167 -1.33301 165.5 14s130.166 44 215.499 86c72.667 36.667 158 93 256 169s252 204.667 462 386l253.5 214c73.667 59.333 114.5 89 122.5 89z" />
    <glyph glyph-name="C" unicode="&#xc7;" horiz-adv-x="1665" 
d="M1792 783c63.333 0 19.6699 -65.0059 -130.997 -195.006l-492 -424.5c-105.333 -88.333 -187.666 -153.833 -246.999 -196.5s-123 -82.667 -191 -120c-100.667 -55.333 -198.334 -90.166 -293.001 -104.499s-175.667 -8.66602 -243 17.001s-115 67.5 -143 125.5
s-43 128.667 -45 212s6.16699 168.5 24.5 255.5s45.666 182.167 81.999 285.5s74.5 200 114.5 290s84.667 183.667 134 281c299.333 586.667 589 894 869 922c128 12.667 215.667 -25.333 263 -114c51.333 -96.667 46.666 -260 -14.001 -490
c-16 -60 -53.667 -151.667 -113 -275s-117.5 -233.666 -174.5 -330.999s-91.167 -146 -102.5 -146c-12 0 -23.667 8.66699 -35 26c-6 10 -2.5 30.167 10.5 60.5s40.833 82.5 83.5 156.5c247.333 427.333 342 728 284 902c-14 42.667 -38.167 73.834 -72.5 93.501
s-75.333 27.334 -123 23.001s-103 -24 -166 -59s-127.5 -83.833 -193.5 -146.5c-71.333 -67.333 -140.833 -150.666 -208.5 -249.999s-141.5 -227 -221.5 -383c-212.667 -410.667 -332 -757.667 -358 -1041c-4 -48.667 0.5 -96.167 13.5 -142.5s38 -88 75 -125
s83.167 -58.5 138.5 -64.5c52 -6 107.167 -1.33301 165.5 14s130.166 44 215.499 86c72.667 36.667 158 93 256 169s252 204.667 462 386l253.5 214c73.667 59.333 114.5 89 122.5 89z" />
    <glyph glyph-name="D" unicode="D" horiz-adv-x="1388" 
d="M1274 2415c48.667 -12 93.1689 -46.6641 133.502 -103.997s71.666 -128 93.999 -212s36.666 -177.833 42.999 -281.5s0.166016 -207.834 -18.501 -312.501c-26.667 -157.333 -74.5 -322.833 -143.5 -496.5s-148.5 -327.5 -238.5 -461.5
c-44 -64.667 -102 -140.5 -174 -227.5s-125.667 -146.167 -161 -177.5c-38.667 -34.667 -89.167 -74.834 -151.5 -120.501s-112.166 -79.5 -149.499 -101.5c-86.667 -50 -176.334 -82.333 -269.001 -97s-158 -7 -196 23c-16 13.333 -26.167 27.333 -30.5 42
s-6.5 43.667 -6.5 87c0.666992 42.667 4.66699 77.5 12 104.5s23 65.167 47 114.5c79.333 161.333 213 332.666 401 513.999c98 94 190.833 172.833 278.5 236.5s190.834 126.5 309.501 188.5c92.667 48.667 153.5 77.334 182.5 86.001s46.833 4.33398 53.5 -12.999
c6.66699 -16.667 1.66699 -31.667 -15 -45s-60 -36.666 -130 -69.999c-121.333 -58.667 -244.166 -134.167 -368.499 -226.5s-235 -188.5 -332 -288.5s-178.667 -201.333 -245 -304s-105.166 -193 -116.499 -271c-6.66699 -46.667 -1.83398 -77 14.499 -91
s52.166 -18.667 107.499 -14c150 13.333 320.667 106.5 512 279.5s351.333 378.833 480 617.5c100 186 173.5 379.333 220.5 580s60.167 379.334 39.5 536.001c-17.333 139.333 -47.5 246.5 -90.5 321.5s-95.167 112.5 -156.5 112.5c-76 0 -171.167 -46.833 -285.5 -140.5
s-216.833 -208.834 -307.5 -345.501c-57.333 -86.667 -119.833 -199 -187.5 -337s-121.167 -261.667 -160.5 -371c-38 -108.667 -59.667 -208 -65 -298c-5.33301 -88 -1.66602 -133 11.001 -135c6.66699 -1.33301 17 6.33398 31 23.001c15.333 20 28.333 47 39 81
c14 38.667 30.333 59.667 49 63c13.333 2 23 -8 29 -30c0.666992 -0.666992 1 -1.33398 1 -2.00098c6 -24.667 1 -55.5 -15 -92.5s-37.5 -69 -64.5 -96s-51.833 -40.5 -74.5 -40.5c-24.667 0 -53.667 11.333 -87 34s-54.333 45.334 -63 68.001
c-26 68.667 -16.5 215.167 28.5 439.5s115.167 475.833 210.5 754.5c87.333 255.333 152.333 399.666 195 433c23.333 18.667 44 11 62 -23c16.667 -30.667 4.16699 -102.334 -37.5 -215.001s-94.167 -216.667 -157.5 -312c-25.333 -38.667 -68.333 -163.5 -129 -374.5
s-85.334 -322.167 -74.001 -333.5c0.666992 -0.666992 1.66699 0.166016 3 2.49902l5.5 10c2.33301 4.33301 4.83301 9.5 7.5 15.5s5.5 13.167 8.5 21.5s6.33301 17 10 26s7.33398 18.833 11.001 29.5l11.5 33c35.333 98.667 85 211.667 149 339
s126.667 237.666 188 330.999c60 89.333 132.667 178.166 218 266.499s159.666 150.833 222.999 187.5c44 26.667 92.833 45.667 146.5 57s98.5 12.333 134.5 3z" />
    <glyph glyph-name="E" unicode="E" horiz-adv-x="1292" 
d="M1240 1733c-16 2.66699 -26.668 7.49902 -32.001 14.499s-5.33301 16.167 0 27.5s15.666 25.333 30.999 42c28.667 30.667 55.667 72.167 81 124.5s44.333 104.166 57 155.499s20 99.666 22 145c2 45.333 -5.66699 76.333 -23 93c-78 86 -238.667 2 -482 -252
c-274 -287.333 -415.333 -495.666 -424 -624.999c-4.66699 -75.333 37.666 -118.333 126.999 -129c14 -1.33301 29 -2 45 -2c36 0 73.833 5 113.5 15s95.834 28.667 168.501 56c122 46 208 76.667 258 92s89.667 23 119 23c24 0 41.333 -5.83301 52 -17.5
s11.334 -25.167 2.00098 -40.5c-4.66699 -8.66699 -85.334 -52.667 -242.001 -132c-150 -74 -282 -147.667 -396 -221c-182.667 -118 -331.667 -257.833 -447 -419.5s-174.666 -313.834 -177.999 -456.501c-2 -87.333 14.667 -151.5 50 -192.5s94 -63.833 176 -68.5
c39.333 -2 73 -0.666992 101 4s63 15 105 31c75.333 28.667 182.5 85.334 321.5 170.001s268.167 172.334 387.5 263.001c120 90 193.667 136.333 221 139c14 -2.66699 21.667 -11.667 23 -27c0 -18 -48.833 -64.667 -146.5 -140s-212.167 -155.166 -343.5 -239.499
s-241 -148.166 -329 -191.499c-74.667 -37.333 -127 -60.166 -157 -68.499s-76.333 -13.833 -139 -16.5c-54.667 -2 -93.834 -1.33301 -117.501 2s-47.5 11.333 -71.5 24c-94.667 51.333 -149.167 131.5 -163.5 240.5s12.834 235.5 81.501 379.5
c56 119.333 130.333 229.666 223 330.999s209 200 349 296c83.333 56.667 125.333 88 126 94c0.666992 3.33301 -6.66602 3.66602 -21.999 0.999023c-3.33301 -0.666992 -7 -1.33398 -11 -2.00098c-82 -16 -155 -15.333 -219 2s-106.333 48.333 -127 93
c-37.333 82.667 -19.5 189.334 53.5 320.001s207.5 296.667 403.5 498c108.667 111.333 199 188.833 271 232.5s136.667 60.167 194 49.5c35.333 -6.66699 68.166 -25 98.499 -55s48.833 -62.333 55.5 -97c7.33301 -38 3 -90.167 -13 -156.5s-37.167 -130 -63.5 -191
s-55.666 -113.333 -87.999 -157s-59.5 -63.834 -81.5 -60.501z" />
    <glyph glyph-name="E" unicode="&#xcb;" horiz-adv-x="1292" 
d="M1240 1733c-16 2.66699 -26.668 7.49902 -32.001 14.499s-5.33301 16.167 0 27.5s15.666 25.333 30.999 42c28.667 30.667 55.667 72.167 81 124.5s44.333 104.166 57 155.499s20 99.666 22 145c2 45.333 -5.66699 76.333 -23 93c-78 86 -238.667 2 -482 -252
c-274 -287.333 -415.333 -495.666 -424 -624.999c-4.66699 -75.333 37.666 -118.333 126.999 -129c14 -1.33301 29 -2 45 -2c36 0 73.833 5 113.5 15s95.834 28.667 168.501 56c122 46 208 76.667 258 92s89.667 23 119 23c24 0 41.333 -5.83301 52 -17.5
s11.334 -25.167 2.00098 -40.5c-4.66699 -8.66699 -85.334 -52.667 -242.001 -132c-150 -74 -282 -147.667 -396 -221c-182.667 -118 -331.667 -257.833 -447 -419.5s-174.666 -313.834 -177.999 -456.501c-2 -87.333 14.667 -151.5 50 -192.5s94 -63.833 176 -68.5
c39.333 -2 73 -0.666992 101 4s63 15 105 31c75.333 28.667 182.5 85.334 321.5 170.001s268.167 172.334 387.5 263.001c120 90 193.667 136.333 221 139c14 -2.66699 21.667 -11.667 23 -27c0 -18 -48.833 -64.667 -146.5 -140s-212.167 -155.166 -343.5 -239.499
s-241 -148.166 -329 -191.499c-74.667 -37.333 -127 -60.166 -157 -68.499s-76.333 -13.833 -139 -16.5c-54.667 -2 -93.834 -1.33301 -117.501 2s-47.5 11.333 -71.5 24c-94.667 51.333 -149.167 131.5 -163.5 240.5s12.834 235.5 81.501 379.5
c56 119.333 130.333 229.666 223 330.999s209 200 349 296c83.333 56.667 125.333 88 126 94c0.666992 3.33301 -6.66602 3.66602 -21.999 0.999023c-3.33301 -0.666992 -7 -1.33398 -11 -2.00098c-82 -16 -155 -15.333 -219 2s-106.333 48.333 -127 93
c-37.333 82.667 -19.5 189.334 53.5 320.001s207.5 296.667 403.5 498c108.667 111.333 199 188.833 271 232.5s136.667 60.167 194 49.5c35.333 -6.66699 68.166 -25 98.499 -55s48.833 -62.333 55.5 -97c7.33301 -38 3 -90.167 -13 -156.5s-37.167 -130 -63.5 -191
s-55.666 -113.333 -87.999 -157s-59.5 -63.834 -81.5 -60.501z" />
    <glyph glyph-name="E" unicode="&#xca;" horiz-adv-x="1292" 
d="M1240 1733c-16 2.66699 -26.668 7.49902 -32.001 14.499s-5.33301 16.167 0 27.5s15.666 25.333 30.999 42c28.667 30.667 55.667 72.167 81 124.5s44.333 104.166 57 155.499s20 99.666 22 145c2 45.333 -5.66699 76.333 -23 93c-78 86 -238.667 2 -482 -252
c-274 -287.333 -415.333 -495.666 -424 -624.999c-4.66699 -75.333 37.666 -118.333 126.999 -129c14 -1.33301 29 -2 45 -2c36 0 73.833 5 113.5 15s95.834 28.667 168.501 56c122 46 208 76.667 258 92s89.667 23 119 23c24 0 41.333 -5.83301 52 -17.5
s11.334 -25.167 2.00098 -40.5c-4.66699 -8.66699 -85.334 -52.667 -242.001 -132c-150 -74 -282 -147.667 -396 -221c-182.667 -118 -331.667 -257.833 -447 -419.5s-174.666 -313.834 -177.999 -456.501c-2 -87.333 14.667 -151.5 50 -192.5s94 -63.833 176 -68.5
c39.333 -2 73 -0.666992 101 4s63 15 105 31c75.333 28.667 182.5 85.334 321.5 170.001s268.167 172.334 387.5 263.001c120 90 193.667 136.333 221 139c14 -2.66699 21.667 -11.667 23 -27c0 -18 -48.833 -64.667 -146.5 -140s-212.167 -155.166 -343.5 -239.499
s-241 -148.166 -329 -191.499c-74.667 -37.333 -127 -60.166 -157 -68.499s-76.333 -13.833 -139 -16.5c-54.667 -2 -93.834 -1.33301 -117.501 2s-47.5 11.333 -71.5 24c-94.667 51.333 -149.167 131.5 -163.5 240.5s12.834 235.5 81.501 379.5
c56 119.333 130.333 229.666 223 330.999s209 200 349 296c83.333 56.667 125.333 88 126 94c0.666992 3.33301 -6.66602 3.66602 -21.999 0.999023c-3.33301 -0.666992 -7 -1.33398 -11 -2.00098c-82 -16 -155 -15.333 -219 2s-106.333 48.333 -127 93
c-37.333 82.667 -19.5 189.334 53.5 320.001s207.5 296.667 403.5 498c108.667 111.333 199 188.833 271 232.5s136.667 60.167 194 49.5c35.333 -6.66699 68.166 -25 98.499 -55s48.833 -62.333 55.5 -97c7.33301 -38 3 -90.167 -13 -156.5s-37.167 -130 -63.5 -191
s-55.666 -113.333 -87.999 -157s-59.5 -63.834 -81.5 -60.501z" />
    <glyph glyph-name="E" unicode="&#xc9;" horiz-adv-x="1292" 
d="M1240 1733c-16 2.66699 -26.668 7.49902 -32.001 14.499s-5.33301 16.167 0 27.5s15.666 25.333 30.999 42c28.667 30.667 55.667 72.167 81 124.5s44.333 104.166 57 155.499s20 99.666 22 145c2 45.333 -5.66699 76.333 -23 93c-78 86 -238.667 2 -482 -252
c-274 -287.333 -415.333 -495.666 -424 -624.999c-4.66699 -75.333 37.666 -118.333 126.999 -129c14 -1.33301 29 -2 45 -2c36 0 73.833 5 113.5 15s95.834 28.667 168.501 56c122 46 208 76.667 258 92s89.667 23 119 23c24 0 41.333 -5.83301 52 -17.5
s11.334 -25.167 2.00098 -40.5c-4.66699 -8.66699 -85.334 -52.667 -242.001 -132c-150 -74 -282 -147.667 -396 -221c-182.667 -118 -331.667 -257.833 -447 -419.5s-174.666 -313.834 -177.999 -456.501c-2 -87.333 14.667 -151.5 50 -192.5s94 -63.833 176 -68.5
c39.333 -2 73 -0.666992 101 4s63 15 105 31c75.333 28.667 182.5 85.334 321.5 170.001s268.167 172.334 387.5 263.001c120 90 193.667 136.333 221 139c14 -2.66699 21.667 -11.667 23 -27c0 -18 -48.833 -64.667 -146.5 -140s-212.167 -155.166 -343.5 -239.499
s-241 -148.166 -329 -191.499c-74.667 -37.333 -127 -60.166 -157 -68.499s-76.333 -13.833 -139 -16.5c-54.667 -2 -93.834 -1.33301 -117.501 2s-47.5 11.333 -71.5 24c-94.667 51.333 -149.167 131.5 -163.5 240.5s12.834 235.5 81.501 379.5
c56 119.333 130.333 229.666 223 330.999s209 200 349 296c83.333 56.667 125.333 88 126 94c0.666992 3.33301 -6.66602 3.66602 -21.999 0.999023c-3.33301 -0.666992 -7 -1.33398 -11 -2.00098c-82 -16 -155 -15.333 -219 2s-106.333 48.333 -127 93
c-37.333 82.667 -19.5 189.334 53.5 320.001s207.5 296.667 403.5 498c108.667 111.333 199 188.833 271 232.5s136.667 60.167 194 49.5c35.333 -6.66699 68.166 -25 98.499 -55s48.833 -62.333 55.5 -97c7.33301 -38 3 -90.167 -13 -156.5s-37.167 -130 -63.5 -191
s-55.666 -113.333 -87.999 -157s-59.5 -63.834 -81.5 -60.501z" />
    <glyph glyph-name="E" unicode="&#xc8;" horiz-adv-x="1292" 
d="M1240 1733c-16 2.66699 -26.668 7.49902 -32.001 14.499s-5.33301 16.167 0 27.5s15.666 25.333 30.999 42c28.667 30.667 55.667 72.167 81 124.5s44.333 104.166 57 155.499s20 99.666 22 145c2 45.333 -5.66699 76.333 -23 93c-78 86 -238.667 2 -482 -252
c-274 -287.333 -415.333 -495.666 -424 -624.999c-4.66699 -75.333 37.666 -118.333 126.999 -129c14 -1.33301 29 -2 45 -2c36 0 73.833 5 113.5 15s95.834 28.667 168.501 56c122 46 208 76.667 258 92s89.667 23 119 23c24 0 41.333 -5.83301 52 -17.5
s11.334 -25.167 2.00098 -40.5c-4.66699 -8.66699 -85.334 -52.667 -242.001 -132c-150 -74 -282 -147.667 -396 -221c-182.667 -118 -331.667 -257.833 -447 -419.5s-174.666 -313.834 -177.999 -456.501c-2 -87.333 14.667 -151.5 50 -192.5s94 -63.833 176 -68.5
c39.333 -2 73 -0.666992 101 4s63 15 105 31c75.333 28.667 182.5 85.334 321.5 170.001s268.167 172.334 387.5 263.001c120 90 193.667 136.333 221 139c14 -2.66699 21.667 -11.667 23 -27c0 -18 -48.833 -64.667 -146.5 -140s-212.167 -155.166 -343.5 -239.499
s-241 -148.166 -329 -191.499c-74.667 -37.333 -127 -60.166 -157 -68.499s-76.333 -13.833 -139 -16.5c-54.667 -2 -93.834 -1.33301 -117.501 2s-47.5 11.333 -71.5 24c-94.667 51.333 -149.167 131.5 -163.5 240.5s12.834 235.5 81.501 379.5
c56 119.333 130.333 229.666 223 330.999s209 200 349 296c83.333 56.667 125.333 88 126 94c0.666992 3.33301 -6.66602 3.66602 -21.999 0.999023c-3.33301 -0.666992 -7 -1.33398 -11 -2.00098c-82 -16 -155 -15.333 -219 2s-106.333 48.333 -127 93
c-37.333 82.667 -19.5 189.334 53.5 320.001s207.5 296.667 403.5 498c108.667 111.333 199 188.833 271 232.5s136.667 60.167 194 49.5c35.333 -6.66699 68.166 -25 98.499 -55s48.833 -62.333 55.5 -97c7.33301 -38 3 -90.167 -13 -156.5s-37.167 -130 -63.5 -191
s-55.666 -113.333 -87.999 -157s-59.5 -63.834 -81.5 -60.501z" />
    <glyph glyph-name="F" unicode="F" horiz-adv-x="1878" 
d="M1777 901c-99.333 9.33301 -208.668 10.334 -328.001 3.00098l-176 -10l-81 -181l-243 -513c-106.667 -222.667 -158.667 -347.334 -156 -374.001c2 -30.667 -9.66699 -59 -35 -85s-50 -34.667 -74 -26c-12 4 -18.667 9.33301 -20 16c-4 17.333 19.667 83.333 71 198
l285 610l78 166l55.5 124c13 30 18.833 45.667 17.5 47c-6 6 -55.667 2.33301 -149 -11s-149 -24.666 -167 -33.999c-15.333 -6.66699 -27.333 -9 -36 -7s-20 10 -34 24c-16 16 -24.5 26.833 -25.5 32.5s4.83301 13.167 17.5 22.5c7.33301 5.33301 33 12 77 20
s92 14.333 144 19c130 14.667 202.333 27.667 217 39c14 11.333 58.667 105.833 134 283.5s129.666 317.834 162.999 420.501c42 129.333 57.667 200.666 47 213.999c-3.33301 4 -8.66602 4.66699 -15.999 2c-13.333 -6.66699 -59.666 -16 -138.999 -28
c-79.333 -14.667 -119 -23 -119 -25c0 -4.66699 16 -26.667 48 -66c45.333 -56.667 64.5 -119.167 57.5 -187.5s-43.5 -177.833 -109.5 -328.5c-52.667 -122 -89 -183 -109 -183c-22.667 0 -33.667 10.333 -33 31c0.666992 28 22.667 88.333 66 181
c45.333 97.333 75.666 172 90.999 224s19.666 95.667 12.999 131c-6 32.667 -20.333 63.334 -43 92.001s-48.667 49.334 -78 62.001c-25.333 10.667 -70.333 10.167 -135 -1.5s-237 -50.167 -517 -115.5c-228 -52.667 -372.667 -77.667 -434 -75
c-44.667 2.66699 -71.834 6.16699 -81.501 10.5s-14.5 15.166 -14.5 32.499c0 24.667 23.167 49.167 69.5 73.5s131.5 56.833 255.5 97.5c134.667 43.333 252.167 73 352.5 89s199.5 20.667 297.5 14c116 -8 179.667 -12 191 -12c28 -0.666992 102.833 11 224.5 35
s182.5 39 182.5 45s-11.667 9 -35 9c-13.333 -0.666992 -22.833 2 -28.5 8s-9.5 17.667 -11.5 35c-2.66699 28 2.33301 49.667 15 65s32.334 23 59.001 23c52.667 0 79 -26.667 79 -80c0 -28 4 -44 12 -48c8 -5.33301 91.667 4.66699 251 30c149.333 22 316.833 37 502.5 45
s305.834 5.33301 360.501 -8c49.333 -12.667 85.833 -30.167 109.5 -52.5s35.5 -50.833 35.5 -85.5c0 -33.333 -13.167 -70.833 -39.5 -112.5s-48.833 -60.5 -67.5 -56.5c-18.667 3.33301 -28 15 -28 35s9.33301 42.333 28 67c39.333 53.333 36 90.666 -10 111.999
c-42 18.667 -127 28.334 -255 29.001c-89.333 0.666992 -201 -5.33301 -335 -18s-267.667 -30 -401 -52c-92.667 -14.667 -142.667 -22 -150 -22c-2 0 -4.5 -3.5 -7.5 -10.5s-6.5 -16.833 -10.5 -29.5s-7.66699 -26.334 -11 -41.001
c-34 -142.667 -108.333 -347.334 -223 -614.001c-68 -158 -102 -238 -102 -240s86.333 -3 259 -3c151.333 0 251.833 -3.5 301.5 -10.5s74.5 -21.5 74.5 -43.5c0 -19.333 -3.66699 -31.333 -11 -36s-61.666 -1.66699 -162.999 9zM848.998 1850
c6.66699 6.66699 -8.00098 7.66895 -44.001 3.00195c-90.667 -10.667 -212 -36.334 -364 -77.001c-71.333 -18.667 -120.666 -34.334 -147.999 -47.001c-21.333 -10 -32 -16 -32 -18c-0.666992 -4 103.333 18.667 312 68h1h1l1 1h2c176 42 266.333 65.333 271 70z" />
    <glyph glyph-name="G" unicode="G" horiz-adv-x="1617" 
d="M1275 955c0 9.33301 49.1641 126.169 147.497 350.502s173.5 390.5 225.5 498.5l63 138c15.333 34.667 21.666 52 18.999 52c-11.333 0 -77.333 -54.333 -198 -163c-78.667 -70 -118 -116 -118 -138c0 -26.667 -5.5 -45.667 -16.5 -57s-26.833 -14.333 -47.5 -9
c-15.333 4 -40.166 -7.5 -74.499 -34.5s-104.166 -90.5 -209.499 -190.5c-166 -156.667 -299.833 -275.667 -401.5 -357s-185.167 -136.166 -250.5 -164.499s-122 -34.5 -170 -18.5c-35.333 11.333 -61 29.333 -77 54s-24 58.334 -24 101.001c0 126 45 269.833 135 431.5
s213.333 320.167 370 475.5c153.333 152 292.833 242.667 418.5 272s230.5 -4 314.5 -100c22 -24.667 37.167 -49.167 45.5 -73.5s15.833 -63.833 22.5 -118.5c1.33301 -11.333 4.66602 -17 9.99902 -17c8.66699 0 40.667 24 96 72c4 4 8.66699 8.33301 14 13
c97.333 85.333 171.166 142.166 221.499 170.5c50.333 28.333 82.166 30.833 95.499 7.5c5.33301 -8 -41.334 -118 -140.001 -330c-98 -206 -206.667 -447 -326 -723l-2 -4c-10 -23.333 -12.667 -35.333 -8 -36c7.33301 -0.666992 50.333 24.666 129 75.999l1 1l1 1h1l1 1
l1 1h1l1 1h1l1 1l1 1h1l1 1l1 1h1l1 1l1 1h1l1 1l1 1h1l1 1h1v1l1 1l2 1h1l1 1l1 1h1l1 1h1l1 1l1 1h1v1l1 1h1l1 1l1 1h1l1 1l1 1h1l1 1l2 1c88.667 58.667 169.667 106.334 243 143.001c48.667 25.333 80.834 40.166 96.501 44.499s28.834 2.16602 39.501 -6.50098
c9.33301 -8 14.5 -15.333 15.5 -22s-3.66699 -15 -14 -25s-25.833 -21.333 -46.5 -34s-50.667 -29.334 -90 -50.001c-84 -44.667 -172.167 -97.334 -264.5 -158.001s-157.166 -108.667 -194.499 -144c-39.333 -39.333 -68 -86.666 -86 -141.999
c-20 -58.667 -62.333 -161.667 -127 -309c-271.333 -610.667 -548.666 -988 -831.999 -1132c-66 -34 -126.167 -54 -180.5 -60s-92.166 2.66699 -113.499 26c-20 22 -27.5 58.667 -22.5 110s21.833 105.666 50.5 162.999c30.667 63.333 83 149.833 157 259.5
s147 209.5 219 299.5c68 85.333 184.333 209.833 349 373.5s291.334 281.5 380.001 353.5c30 23.333 56.167 45.333 78.5 66s33.5 32.667 33.5 36zM1175 712.003l22 58.0029l-44 -31c-46 -32.667 -145.833 -125.834 -299.5 -279.501s-261.5 -268.167 -323.5 -343.5
c-120.667 -145.333 -225.667 -290.833 -315 -436.5s-134 -244.167 -134 -295.5c0 -22 2.83301 -34.5 8.5 -37.5s24.834 -2.16699 57.501 2.5c41.333 6 94.333 26.333 159 61c64.667 34 137.667 92.167 219 174.5s152.666 170.166 213.999 263.499
c76.667 118 158 262.167 244 432.5s150 314.166 192 431.499zM1364 1872.01c6 72 -8.5 130.169 -43.5 174.502s-83.167 68.166 -144.5 71.5c-61.333 3.33301 -131.666 -13.334 -210.999 -50.001c-77.333 -39.333 -172.333 -115.833 -285 -229.5s-210.667 -232.5 -294 -356.5
c-51.333 -78 -93.833 -169.5 -127.5 -274.5s-44.167 -181.5 -31.5 -229.5c4.66699 -16.667 11.167 -27.334 19.5 -32.001s26.166 -7 53.499 -7c40 0 77.333 8.33301 112 25c61.333 31.333 151.5 98.166 270.5 200.499s310.833 278.5 575.5 528.5
c48 44.667 76.833 75.334 86.5 92.001s16.167 45.667 19.5 87z" />
    <glyph glyph-name="H" unicode="H" horiz-adv-x="2007" 
d="M1896 1051c-24 -38.667 -74.5068 -171.506 -151.507 -398.506s-142.167 -434.5 -195.5 -622.5c-51.333 -182 -86 -332 -104 -450s-16.333 -183.667 5 -197c10 -5.33301 30 2 60 22c52.667 37.333 87.334 42.333 104.001 15c6.66699 -10.667 1 -26 -17 -46
s-41.5 -37.667 -70.5 -53s-54.167 -23 -75.5 -23c-20.667 0 -41.667 11.333 -63 34c-26.667 27.333 -36 91 -28 191s32.333 229 73 387c82 318 182.333 635.667 301 953c42 110.667 63 171.667 63 183c0 8 -14.667 12 -44 12c-33.333 0 -127.5 -18.167 -282.5 -54.5
s-288.167 -71.5 -399.5 -105.5l-67 -20l-202 -394c-152 -297.333 -269.667 -514.833 -353 -652.5s-141.666 -212.167 -174.999 -223.5c-18.667 -6 -36 -2.66699 -52 10c-23.333 19.333 -18.5 77.833 14.5 175.5s100.833 255.5 203.5 473.5
c133.333 280.667 192 428.334 176 443.001c-4 5.33301 -37 -5.66699 -99 -33c-58 -26.667 -114.667 -40.667 -170 -42c-33.333 -1.33301 -54.666 -0.333008 -63.999 3s-15 12 -17 26c-2.66699 20 19.166 46.333 65.499 79s99.5 60.334 159.5 83.001
s105.667 31.334 137 26.001s88 6.66699 170 36l62 21.5c12.667 4.33301 27.334 12.666 44.001 24.999s28 22.5 34 30.5s15.333 25 28 51s23 50.333 31 73l38 110c54 158 91.833 308 113.5 450s24.834 260 9.50098 354s-47.666 152 -96.999 174
c-28 12.667 -70.333 13.334 -127 2c-84 -17.333 -180 -63.166 -288 -137.499s-210.333 -164 -307 -269s-171 -208.167 -223 -309.5c-12.667 -24 -19 -39.5 -19 -46.5s5.66699 -13.5 17 -19.5c20 -11.333 28.167 -26.666 24.5 -45.999s-17.5 -32.333 -41.5 -39
c-34.667 -8.66699 -59.834 -5.66699 -75.501 9s-20.834 39.167 -15.501 73.5s21 74.833 47 121.5c66.667 119.333 154.834 235.5 264.501 348.5s223.5 205.667 341.5 278s222 112.166 312 119.5c38.667 3.33301 66.834 3.33301 84.501 0s37.5 -12.666 59.5 -27.999
c90.667 -60.667 135.834 -184.5 135.501 -371.5s-46.166 -414.5 -137.499 -682.5c-32.667 -98 -54 -156 -64 -174c-0.666992 -1.33301 -2 -3.66602 -4 -6.99902c-5.33301 -10 -5 -15.333 1 -16c10.667 -1.33301 93 18 247 58h1l1 1h1h2h1v1h1h1h1l1 1h1h1h1l1 1h1h1h1l1 1h1
h1h1l1 1h1h1h1l1 1h1h1l1 1h1h1h1l1 1h1h1h1l1 1h1h1h1l1 1h1h1h1l1 1h1h1h1l1 1h1h1h1l1 1h1h1h1l2 1c156 40.667 278.333 67.667 367 81l124 18l115 312c76.667 204.667 127.5 345 152.5 421s52.167 171.667 81.5 287c15.333 60 27 102.833 35 128.5s15.5 43.334 22.5 53
c7 9.66699 15.833 15.5 26.5 17.5c14.667 2 23.834 0.166992 27.5 -5.5c3.66699 -5.66699 5.5 -19.834 5.5 -42.501c0 -40.667 -23.667 -139.167 -71 -295.5s-105.666 -327.166 -175 -512.499c-84.667 -225.333 -130 -354.333 -136 -387c-6 -34 -16 -60.667 -30 -80z
M485.993 55.9941l185 343.998c62.667 120.667 112.5 221 149.5 301s52.833 120.667 47.5 122c-10 3.33301 -38.333 -5.66699 -85 -27c-47.333 -20 -71 -41 -71 -63c0 -55.333 -57 -202.666 -171 -441.999c-169.333 -356 -240 -522.667 -212 -500
c3.33301 2.66699 9 9.33398 17 20.001c15.333 22 62 103.667 140 245z" />
    <glyph glyph-name="I" unicode="I" horiz-adv-x="1210" 
d="M812 2161c256 72 457.668 114 605.001 126s258.333 -4 333 -48c48 -28 70.333 -50.667 67 -68c-4 -20 -16.333 -30 -37 -30s-45 10 -73 30c-22.667 16 -45.834 26 -69.501 30s-73.5 5.66699 -149.5 5c-80 -0.666992 -129.5 -2.83398 -148.5 -6.5
c-19 -3.66699 -34.167 -14.167 -45.5 -31.5c-14 -20 -74.333 -164 -181 -432l-247 -614c-111.333 -270.667 -214.833 -540 -310.5 -808s-138.167 -407.333 -127.5 -418c6.66699 -6.66699 42.667 1.66602 108 24.999c57.333 20 157.5 45.333 300.5 76s218.833 43 227.5 37
c13.333 -8 17.166 -21.5 11.499 -40.5s-17.167 -30.5 -34.5 -34.5l-190 -40c-241.333 -50 -387.666 -102 -438.999 -156c-18 -19.333 -32 -31 -42 -35s-20.667 -2.66699 -32 4c-11.333 6 -26.666 6.83301 -45.999 2.5s-49.333 -15.166 -90 -32.499
c-118 -50.667 -182.667 -59.667 -194 -27c-1.33301 2.66699 -2 6 -2 10c0 10.667 11.167 22.334 33.5 35.001s61.833 30 118.5 52l153 59l119 360c88.667 263.333 180.667 511.666 276 744.999c330 815.333 489 1225.33 477 1230c-6.66699 2.66699 -59.5 -8 -158.5 -32
s-191.5 -48.333 -277.5 -73c-44 -12.667 -73.667 -19.667 -89 -21s-29.333 2.66699 -42 12c-19.333 15.333 -21.333 28.666 -6 40c19.333 14 86.666 37 201.999 69z" />
    <glyph glyph-name="I" unicode="&#xcf;" horiz-adv-x="1210" 
d="M812 2161c256 72 457.668 114 605.001 126s258.333 -4 333 -48c48 -28 70.333 -50.667 67 -68c-4 -20 -16.333 -30 -37 -30s-45 10 -73 30c-22.667 16 -45.834 26 -69.501 30s-73.5 5.66699 -149.5 5c-80 -0.666992 -129.5 -2.83398 -148.5 -6.5
c-19 -3.66699 -34.167 -14.167 -45.5 -31.5c-14 -20 -74.333 -164 -181 -432l-247 -614c-111.333 -270.667 -214.833 -540 -310.5 -808s-138.167 -407.333 -127.5 -418c6.66699 -6.66699 42.667 1.66602 108 24.999c57.333 20 157.5 45.333 300.5 76s218.833 43 227.5 37
c13.333 -8 17.166 -21.5 11.499 -40.5s-17.167 -30.5 -34.5 -34.5l-190 -40c-241.333 -50 -387.666 -102 -438.999 -156c-18 -19.333 -32 -31 -42 -35s-20.667 -2.66699 -32 4c-11.333 6 -26.666 6.83301 -45.999 2.5s-49.333 -15.166 -90 -32.499
c-118 -50.667 -182.667 -59.667 -194 -27c-1.33301 2.66699 -2 6 -2 10c0 10.667 11.167 22.334 33.5 35.001s61.833 30 118.5 52l153 59l119 360c88.667 263.333 180.667 511.666 276 744.999c330 815.333 489 1225.33 477 1230c-6.66699 2.66699 -59.5 -8 -158.5 -32
s-191.5 -48.333 -277.5 -73c-44 -12.667 -73.667 -19.667 -89 -21s-29.333 2.66699 -42 12c-19.333 15.333 -21.333 28.666 -6 40c19.333 14 86.666 37 201.999 69z" />
    <glyph glyph-name="I" unicode="&#xce;" horiz-adv-x="1210" 
d="M812 2161c256 72 457.668 114 605.001 126s258.333 -4 333 -48c48 -28 70.333 -50.667 67 -68c-4 -20 -16.333 -30 -37 -30s-45 10 -73 30c-22.667 16 -45.834 26 -69.501 30s-73.5 5.66699 -149.5 5c-80 -0.666992 -129.5 -2.83398 -148.5 -6.5
c-19 -3.66699 -34.167 -14.167 -45.5 -31.5c-14 -20 -74.333 -164 -181 -432l-247 -614c-111.333 -270.667 -214.833 -540 -310.5 -808s-138.167 -407.333 -127.5 -418c6.66699 -6.66699 42.667 1.66602 108 24.999c57.333 20 157.5 45.333 300.5 76s218.833 43 227.5 37
c13.333 -8 17.166 -21.5 11.499 -40.5s-17.167 -30.5 -34.5 -34.5l-190 -40c-241.333 -50 -387.666 -102 -438.999 -156c-18 -19.333 -32 -31 -42 -35s-20.667 -2.66699 -32 4c-11.333 6 -26.666 6.83301 -45.999 2.5s-49.333 -15.166 -90 -32.499
c-118 -50.667 -182.667 -59.667 -194 -27c-1.33301 2.66699 -2 6 -2 10c0 10.667 11.167 22.334 33.5 35.001s61.833 30 118.5 52l153 59l119 360c88.667 263.333 180.667 511.666 276 744.999c330 815.333 489 1225.33 477 1230c-6.66699 2.66699 -59.5 -8 -158.5 -32
s-191.5 -48.333 -277.5 -73c-44 -12.667 -73.667 -19.667 -89 -21s-29.333 2.66699 -42 12c-19.333 15.333 -21.333 28.666 -6 40c19.333 14 86.666 37 201.999 69z" />
    <glyph glyph-name="I" unicode="&#xcd;" horiz-adv-x="1210" 
d="M812 2161c256 72 457.668 114 605.001 126s258.333 -4 333 -48c48 -28 70.333 -50.667 67 -68c-4 -20 -16.333 -30 -37 -30s-45 10 -73 30c-22.667 16 -45.834 26 -69.501 30s-73.5 5.66699 -149.5 5c-80 -0.666992 -129.5 -2.83398 -148.5 -6.5
c-19 -3.66699 -34.167 -14.167 -45.5 -31.5c-14 -20 -74.333 -164 -181 -432l-247 -614c-111.333 -270.667 -214.833 -540 -310.5 -808s-138.167 -407.333 -127.5 -418c6.66699 -6.66699 42.667 1.66602 108 24.999c57.333 20 157.5 45.333 300.5 76s218.833 43 227.5 37
c13.333 -8 17.166 -21.5 11.499 -40.5s-17.167 -30.5 -34.5 -34.5l-190 -40c-241.333 -50 -387.666 -102 -438.999 -156c-18 -19.333 -32 -31 -42 -35s-20.667 -2.66699 -32 4c-11.333 6 -26.666 6.83301 -45.999 2.5s-49.333 -15.166 -90 -32.499
c-118 -50.667 -182.667 -59.667 -194 -27c-1.33301 2.66699 -2 6 -2 10c0 10.667 11.167 22.334 33.5 35.001s61.833 30 118.5 52l153 59l119 360c88.667 263.333 180.667 511.666 276 744.999c330 815.333 489 1225.33 477 1230c-6.66699 2.66699 -59.5 -8 -158.5 -32
s-191.5 -48.333 -277.5 -73c-44 -12.667 -73.667 -19.667 -89 -21s-29.333 2.66699 -42 12c-19.333 15.333 -21.333 28.666 -6 40c19.333 14 86.666 37 201.999 69z" />
    <glyph glyph-name="I" unicode="&#xcc;" horiz-adv-x="1210" 
d="M812 2161c256 72 457.668 114 605.001 126s258.333 -4 333 -48c48 -28 70.333 -50.667 67 -68c-4 -20 -16.333 -30 -37 -30s-45 10 -73 30c-22.667 16 -45.834 26 -69.501 30s-73.5 5.66699 -149.5 5c-80 -0.666992 -129.5 -2.83398 -148.5 -6.5
c-19 -3.66699 -34.167 -14.167 -45.5 -31.5c-14 -20 -74.333 -164 -181 -432l-247 -614c-111.333 -270.667 -214.833 -540 -310.5 -808s-138.167 -407.333 -127.5 -418c6.66699 -6.66699 42.667 1.66602 108 24.999c57.333 20 157.5 45.333 300.5 76s218.833 43 227.5 37
c13.333 -8 17.166 -21.5 11.499 -40.5s-17.167 -30.5 -34.5 -34.5l-190 -40c-241.333 -50 -387.666 -102 -438.999 -156c-18 -19.333 -32 -31 -42 -35s-20.667 -2.66699 -32 4c-11.333 6 -26.666 6.83301 -45.999 2.5s-49.333 -15.166 -90 -32.499
c-118 -50.667 -182.667 -59.667 -194 -27c-1.33301 2.66699 -2 6 -2 10c0 10.667 11.167 22.334 33.5 35.001s61.833 30 118.5 52l153 59l119 360c88.667 263.333 180.667 511.666 276 744.999c330 815.333 489 1225.33 477 1230c-6.66699 2.66699 -59.5 -8 -158.5 -32
s-191.5 -48.333 -277.5 -73c-44 -12.667 -73.667 -19.667 -89 -21s-29.333 2.66699 -42 12c-19.333 15.333 -21.333 28.666 -6 40c19.333 14 86.666 37 201.999 69z" />
    <glyph glyph-name="J" unicode="J" horiz-adv-x="1382" 
d="M1259 1272c95.333 190.667 172.67 366 232.003 526s91.333 279.667 96 359c2.66699 40.667 2.33398 65.334 -0.999023 74c-3.33301 8.66699 -14.666 14.334 -33.999 17c-31.333 3.33301 -106.333 -26.834 -225 -90.501s-224 -130.5 -316 -200.5
c-97.333 -73.333 -208.333 -172.666 -333 -297.999s-204 -217.666 -238 -276.999c-28.667 -50.667 -44.834 -96.167 -48.501 -136.5s6.16602 -67.166 29.499 -80.499c29.333 -15.333 86.5 -20 171.5 -14s175.5 21 271.5 45c47.333 12 86 21 116 27s54.5 9.16699 73.5 9.5
s32.167 -1.83398 39.5 -6.50098s11 -12.334 11 -23.001c0 -7.33301 -2.5 -13.666 -7.5 -18.999s-16.333 -11.5 -34 -18.5s-41.5 -14.5 -71.5 -22.5s-72.333 -18.333 -127 -31c-114 -26.667 -218.667 -40 -314 -40c-68 0 -111.167 2.16699 -129.5 6.5
s-39.833 17.166 -64.5 38.499c-22.667 20.667 -36.667 37.667 -42 51s-7.33301 37.666 -6 72.999c2.66699 81.333 50 180 142 296c49.333 62 128.833 144.667 238.5 248s205.5 185.666 287.5 246.999c144 108.667 283.833 190.834 419.5 246.5
c135.667 55.667 218.834 65.167 249.501 28.5c39.333 -48 36.666 -155.5 -8.00098 -322.5s-127.334 -377.167 -248.001 -630.5c-62.667 -132 -87.334 -198 -74.001 -198c0.666992 0 1.66699 0.333008 3 1c86.667 37.333 157.334 62.5 212.001 75.5
s123.334 20.833 206.001 23.5c119.333 4 188 -2.33301 206 -19c8.66699 -8 10 -19.333 4 -34c-2.66699 -8.66699 -14.667 -14.5 -36 -17.5s-59.333 -4.5 -114 -4.5c-84.667 0 -160.667 -7.5 -228 -22.5s-140.333 -40.5 -219 -76.5c-45.333 -20 -78.833 -38.167 -100.5 -54.5
s-41.667 -37.666 -60 -63.999s-43.166 -70.166 -74.499 -131.499c-54.667 -106.667 -141.834 -262.334 -261.501 -467.001l-366.5 -609c-108.667 -174.667 -188.834 -293.5 -240.501 -356.5s-94.834 -94.5 -129.501 -94.5c-13.333 0 -27.166 3 -41.499 9
s-24.833 13.333 -31.5 22c-35.333 39.333 -45.5 104.333 -30.5 195s53.833 201.334 116.5 332.001c105.333 218 236.166 424.667 392.499 620s319.166 356 488.499 482l152 111zM751.004 351l158.998 274.999l92 163c22.667 41.333 37.334 69 44.001 83
s9.33398 21.667 8.00098 23c-8 8 -63 -36.167 -165 -132.5s-182.667 -180.166 -242 -251.499c-166.667 -199.333 -306 -408 -418 -626s-158.333 -371 -139 -459c4 -20 8.5 -32.333 13.5 -37s12 -4 21 2s23.833 20 44.5 42c82.667 88 276.667 394 582 918z" />
    <glyph glyph-name="K" unicode="K" horiz-adv-x="1570" 
d="M2215 1711c-5.33301 9.33301 20.0059 42.001 76.0059 98.001c56.667 56.667 85 98.334 85 125.001c0 19.333 -3.33301 31.166 -10 35.499s-25.667 6.5 -57 6.5c-45.333 0 -108.666 -13.333 -190 -40c-67.333 -21.333 -178 -69 -332 -143s-285.667 -142.667 -395 -206
c-123.333 -71.333 -281 -173.333 -473 -306s-310.667 -221.667 -356 -267c-16.667 -16.667 -50 -87.667 -100 -213l-28 -70c-5.33301 -12.667 -11.333 -30.167 -18 -52.5l-12.5 -42c-1.66699 -5.66699 -1.83398 -16 -0.500977 -31s3.16602 -24.167 5.49902 -27.5
s8.5 -11.666 18.5 -24.999s18.333 -22.833 25 -28.5s19 -16.834 37 -33.501c111.333 -102.667 246.5 -159.667 405.5 -171s350.5 22 574.5 100c102 36 168.333 56.667 199 62c19.333 4 31.166 4.5 35.499 1.5s5.16602 -12.167 2.49902 -27.5
c-2 -14 -10.833 -26.5 -26.5 -37.5s-45.5 -25.167 -89.5 -42.5c-250.667 -99.333 -476.167 -143.5 -676.5 -132.5s-363.166 76.833 -488.499 197.5l-78 74l-41 -103c-91.333 -226.667 -156 -416.667 -194 -570s-40.667 -236.333 -8 -249
c6.66699 -2 12.334 -6.66699 17.001 -14s7 -15 7 -23c0 -13.333 -7.5 -22.5 -22.5 -27.5s-31.333 -5 -49 0s-29.834 14.167 -36.501 27.5c-13.333 25.333 -18 69 -14 131s16 130.333 36 205c19.333 73.333 52.166 175.833 98.499 307.5s84.166 230.5 113.499 296.5
c21.333 52.667 31.666 110.667 30.999 174c-2 55.333 6.16699 104.666 24.5 147.999s52.166 95 101.499 155c18 22 38 52.667 60 92s40.333 78.333 55 117c33.333 84.667 96.5 265.334 189.5 542.001s152.833 461.334 179.5 554.001c22 76 39.667 125 53 147
s28.666 27.667 45.999 17c16.667 -10.667 13.834 -56.834 -8.49902 -138.501s-86.166 -280.167 -191.499 -595.5l-126 -381.5c-34 -105 -50.333 -157.5 -49 -157.5c2.66699 0 41.667 27.667 117 83c226 166 472 322.833 738 470.5s481.333 247.167 646 298.5
c62 19.333 118 29.833 168 31.5s88.833 -4.83301 116.5 -19.5s46.167 -34.667 55.5 -60s5.33301 -56.5 -12 -93.5s-47 -76.167 -89 -117.5c-31.333 -30.667 -60.666 -50.834 -88 -60.501c-27.333 -9.66699 -46.333 -6.5 -57 9.5z" />
    <glyph glyph-name="L" unicode="L" horiz-adv-x="1224" 
d="M1597 182c-8 -3.33301 -42.833 -7.83105 -104.5 -13.498s-149.5 -19 -263.5 -40s-232.667 -50.833 -356 -89.5c-148.667 -46.667 -284.5 -107.5 -407.5 -182.5s-228.167 -159.833 -315.5 -254.5c-44.667 -49.333 -73.834 -78.833 -87.501 -88.5
s-27.5 -9.83398 -41.5 -0.500977c-9.33301 6 -14.166 12.667 -14.499 20s2.83398 19.666 9.50098 36.999c26 64.667 81.667 195.334 167 392.001c186.667 437.333 312.167 739.333 376.5 906s128.166 356 191.499 568c52 174.667 76.333 265.334 73 272.001
c-1.33301 3.33301 -7.33301 -3 -18 -19l-2 -2c-14 -20 -29.167 -28.333 -45.5 -25s-24.5 16.666 -24.5 39.999c0 8.66699 6.83301 26.834 20.5 54.501s30.167 56.5 49.5 86.5c47.333 78.667 81.333 145.667 102 201c23.333 59.333 44 89 62 89s30.333 -5.33301 37 -16
c9.33301 -14.667 -23.167 -155.5 -97.5 -422.5s-144.833 -496.167 -211.5 -687.5c-52.667 -150.667 -120.667 -323.667 -204 -519c-200.667 -476.667 -301 -717.334 -301 -722.001c0 -1.33301 5 1.33398 15 8.00098l42.5 29.5c18.333 13 37.166 27.167 56.499 42.5
c92.667 69.333 227.834 139 405.501 209s322.5 115.667 434.5 137c58.667 11.333 121.667 21.5 189 30.5s125.5 16.167 174.5 21.5s74.833 8.33301 77.5 9c16.667 3.33301 28.667 0.166016 36 -9.50098s8.5 -20.834 3.5 -33.501s-14.5 -22 -28.5 -28z" />
    <glyph glyph-name="M" unicode="M" horiz-adv-x="2099" 
d="M2084 1391c10.667 -54 8.82812 -121.329 -5.50488 -201.996s-46.5 -205.334 -96.5 -374.001c-128.667 -432.667 -193 -676 -193 -730c0 -30 -5.16699 -49.667 -15.5 -59s-24.166 -6.66602 -41.499 8.00098c-17.333 15.333 -21.5 54.833 -12.5 118.5
s32.5 160.5 70.5 290.5c100.667 340.667 161.834 553.167 183.501 637.5s32.5 153.166 32.5 206.499c0 72 -3 115.667 -9 131c-12.667 34.667 -64 30.667 -154 -12c-104.667 -49.333 -229.167 -149 -373.5 -299s-274.833 -315.667 -391.5 -497
c-30 -46.667 -58.667 -88 -86 -124s-44.333 -55.333 -51 -58c-18 -6 -34.333 -1.66699 -49 13c-10.667 10.667 -10.667 27.167 0 49.5s44.334 74.833 101.001 157.5c74.667 108.667 163.834 258.834 267.501 450.501s179.5 346.834 227.5 465.501
c97.333 238 146 437.333 146 598c0 78.667 -6.16699 129.167 -18.5 151.5s-38.166 29.5 -77.499 21.5c-43.333 -8 -106.666 -43.5 -189.999 -106.5s-174 -143.833 -272 -242.5c-116 -116 -209.667 -220.5 -281 -313.5s-107 -157.5 -107 -193.5
c0 -124.667 -32.333 -308.834 -97 -552.501s-136 -448.167 -214 -613.5c-32.667 -70.667 -73.5 -142.334 -122.5 -215.001s-84.833 -115.334 -107.5 -128.001c-39.333 -20.667 -72.666 -20.167 -99.999 1.5s-41 58.834 -41 111.501c0 37.333 10.667 103.666 32 198.999
c24 100 71 244.333 141 433c42 112 95.333 233.667 160 365s126.334 243.666 185.001 336.999l86 136v131c0 84.667 -8 170 -24 256c-16.667 83.333 -19.334 130.666 -8.00098 141.999c19.333 20 38.666 7.66699 57.999 -37c12 -28 22 -64.333 30 -109
c13.333 -68.667 20.666 -128.667 21.999 -180c0 -7.33301 0.166992 -14.333 0.5 -21s1 -12.5 2 -17.5s2 -9.5 3 -13.5s2 -7 3 -9s2.16699 -3 3.5 -3c6 0 35.667 33.333 89 100c74.667 98 162.834 195.5 264.501 292.5s198.167 176.667 289.5 239
s160.666 95.166 207.999 98.5c62 4 105 -12.833 129 -50.5s36 -107.167 36 -208.5c0 -230 -86.333 -516 -259 -858c-47.333 -94.667 -71 -145 -71 -151s40 28 120 102c188.667 174 336 262 442 264c74 1.33301 119.333 -41.667 136 -129zM425.994 649.004
c38 112.667 77.999 256.333 119.999 431s57 267.334 45 278.001c-12 12 -70.333 -95.5 -175 -322.5s-174.334 -389.5 -209.001 -487.5c-66 -188 -104.667 -326.667 -116 -416c-6.66699 -52.667 -5 -80.167 5 -82.5s33.667 18.5 71 62.5
c30.667 35.333 71.834 105.166 123.501 209.499s96.834 213.5 135.501 327.5z" />
    <glyph glyph-name="N" unicode="N" horiz-adv-x="1748" 
d="M136 -61c-18.667 -39.333 -41.499 -60.0039 -68.499 -62.0039s-45.167 15.667 -54.5 53c-10.667 40 -10.334 126.667 0.999023 260s29 257.333 53 372c36.667 178.667 80.334 335.167 131.001 469.5s112.667 258.166 186 371.499c57.333 90 107.833 150.167 151.5 180.5
s87.834 36.166 132.501 17.499c39.333 -16.667 71.833 -61.834 97.5 -135.501s47.167 -184.834 64.5 -333.501s32.333 -349 45 -601c20 -373.333 43.667 -607.666 71 -702.999c10.667 -35.333 20.5 -59.166 29.5 -71.499s24.833 -23.166 47.5 -32.499
c73.333 -30.667 144.166 -2.5 212.499 84.5s135.833 235.167 202.5 444.5c70 218 121.333 445.5 154 682.5s55.334 545.167 68.001 924.5c5.33301 158.667 6.83301 254.334 4.5 287.001s-12.166 60.334 -29.499 83c-10.667 14.667 -18 28.834 -22 42.5
c-4 13.667 -4.16699 24.334 -0.5 32c3.66699 7.66699 9.16699 13.167 16.5 16.5s17.166 2.5 29.499 -2.5s24.833 -13.833 37.5 -26.5c22.667 -23.333 36.667 -64.166 42 -122.499s5.33301 -176.166 0 -353.499c-9.33301 -282 -23 -510.833 -41 -686.5
s-46.667 -356.5 -86 -542.5c-33.333 -160 -80.833 -322.5 -142.5 -487.5s-117.5 -279.833 -167.5 -344.5c-39.333 -51.333 -89.166 -87.666 -149.499 -108.999s-114.166 -21.333 -161.499 0c-27.333 12 -49.833 28.5 -67.5 49.5s-33.5 49.667 -47.5 86
s-25.5 88.333 -34.5 156s-16.833 146.334 -23.5 236.001s-13.334 206.167 -20.001 349.5c-16 350.667 -38 604 -66 760s-66 237.667 -114 245c-31.333 4.66699 -80.333 -41.666 -147 -138.999s-126.334 -210.333 -179.001 -339
c-46.667 -112.667 -89.834 -255.667 -129.501 -429s-63.834 -326 -72.501 -458c-2 -35.333 -3.33301 -61.833 -4 -79.5s-0.5 -32.334 0.5 -44.001s2.83301 -18.5 5.5 -20.5s6.66699 -2 12 0c13.333 5.33301 24.333 4.83301 33 -1.5s13 -16.5 13 -30.5s-4.33301 -30 -13 -48z
" />
    <glyph glyph-name="N" unicode="&#xd1;" horiz-adv-x="1748" 
d="M136 -61c-18.667 -39.333 -41.499 -60.0039 -68.499 -62.0039s-45.167 15.667 -54.5 53c-10.667 40 -10.334 126.667 0.999023 260s29 257.333 53 372c36.667 178.667 80.334 335.167 131.001 469.5s112.667 258.166 186 371.499c57.333 90 107.833 150.167 151.5 180.5
s87.834 36.166 132.501 17.499c39.333 -16.667 71.833 -61.834 97.5 -135.501s47.167 -184.834 64.5 -333.501s32.333 -349 45 -601c20 -373.333 43.667 -607.666 71 -702.999c10.667 -35.333 20.5 -59.166 29.5 -71.499s24.833 -23.166 47.5 -32.499
c73.333 -30.667 144.166 -2.5 212.499 84.5s135.833 235.167 202.5 444.5c70 218 121.333 445.5 154 682.5s55.334 545.167 68.001 924.5c5.33301 158.667 6.83301 254.334 4.5 287.001s-12.166 60.334 -29.499 83c-10.667 14.667 -18 28.834 -22 42.5
c-4 13.667 -4.16699 24.334 -0.5 32c3.66699 7.66699 9.16699 13.167 16.5 16.5s17.166 2.5 29.499 -2.5s24.833 -13.833 37.5 -26.5c22.667 -23.333 36.667 -64.166 42 -122.499s5.33301 -176.166 0 -353.499c-9.33301 -282 -23 -510.833 -41 -686.5
s-46.667 -356.5 -86 -542.5c-33.333 -160 -80.833 -322.5 -142.5 -487.5s-117.5 -279.833 -167.5 -344.5c-39.333 -51.333 -89.166 -87.666 -149.499 -108.999s-114.166 -21.333 -161.499 0c-27.333 12 -49.833 28.5 -67.5 49.5s-33.5 49.667 -47.5 86
s-25.5 88.333 -34.5 156s-16.833 146.334 -23.5 236.001s-13.334 206.167 -20.001 349.5c-16 350.667 -38 604 -66 760s-66 237.667 -114 245c-31.333 4.66699 -80.333 -41.666 -147 -138.999s-126.334 -210.333 -179.001 -339
c-46.667 -112.667 -89.834 -255.667 -129.501 -429s-63.834 -326 -72.501 -458c-2 -35.333 -3.33301 -61.833 -4 -79.5s-0.5 -32.334 0.5 -44.001s2.83301 -18.5 5.5 -20.5s6.66699 -2 12 0c13.333 5.33301 24.333 4.83301 33 -1.5s13 -16.5 13 -30.5s-4.33301 -30 -13 -48z
" />
    <glyph glyph-name="O" unicode="O" horiz-adv-x="1646" 
d="M1926 924c1.33301 -11.333 -11.501 -27.6699 -38.501 -49.0029s-78.833 -56.666 -155.5 -105.999c-140.667 -89.333 -251.334 -155.333 -332.001 -198c-60 -33.333 -101.167 -59.666 -123.5 -78.999s-50.833 -54.333 -85.5 -105
c-108.667 -160.667 -231.5 -308.167 -368.5 -442.5s-254.5 -222.833 -352.5 -265.5c-40.667 -17.333 -85.167 -29.333 -133.5 -36s-88.833 -6 -121.5 2c-74 17.333 -129 63.333 -165 138c-32.667 66.667 -47.167 178.334 -43.5 335.001s24.5 306 62.5 448
c20 76.667 30 155 30 235c0 113.333 26.333 239 79 377s122.5 266.833 209.5 386.5s178.167 211.5 273.5 275.5c55.333 36.667 109.666 62.667 162.999 78s116.666 23 189.999 23c114.667 0 207.334 -20 278.001 -60s127.334 -104.333 170.001 -193
c59.333 -120.667 85 -260.667 77 -420s-48.333 -321.666 -121 -486.999c-33.333 -76.667 -47.666 -117.334 -42.999 -122.001c5.33301 -5.33301 52.333 17.667 141 69s171.334 103 248.001 155c33.333 22 59.5 38.5 78.5 49.5s34.667 18 47 21s21 2.16699 26 -2.5
s8.5 -13.667 10.5 -27zM772.999 9.99609c60.667 62 133.997 144.17 219.997 246.503s129 158.833 129 169.5c0 2.66699 -13.667 0.166992 -41 -7.5s-61.333 -18.167 -102 -31.5c-61.333 -20.667 -110.666 -33.834 -147.999 -39.501s-92.666 -8.83398 -165.999 -9.50098
c-77.333 -0.666992 -130 1.33301 -158 6s-64.333 17.334 -109 38.001c-63.333 28.667 -119.333 68.667 -168 120c-47.333 52 -73 76 -77 72c-10.667 -11.333 -23.167 -66.333 -37.5 -165s-23.166 -187.334 -26.499 -266.001c-5.33301 -112 -2.83301 -194.333 7.5 -247
s31.833 -95.334 64.5 -128.001c18.667 -18 35.834 -29.833 51.501 -35.5s39.167 -8.5 70.5 -8.5c51.333 0 93.666 6 126.999 18c100 34.667 221 124 363 268zM1124 525.999c49.333 22.667 81.5 41.6689 96.5 57.002s38.833 54 71.5 116c139.333 266 192 512 158 738
c-14 100 -36.667 179.333 -68 238s-76 105 -134 139c-33.333 18.667 -62 30.334 -86 35.001s-70.667 7 -140 7c-104 0 -185.667 -13.5 -245 -40.5s-130 -82.5 -212 -166.5c-124 -126 -225.333 -289.333 -304 -490c-48.667 -123.333 -66 -179 -52 -167
c11.333 9.33301 40.666 60.666 87.999 153.999c80 156 166 295.333 258 418s168.667 199.667 230 231c30.667 16 59.667 22.167 87 18.5s41 -15.167 41 -34.5c0 -21.333 -18 -36 -54 -44c-33.333 -8.66699 -68.5 -30 -105.5 -64s-84.167 -88.667 -141.5 -164
c-71.333 -94.667 -131.5 -185.834 -180.5 -273.501s-105.167 -205.5 -168.5 -353.5c-29.333 -68 -47.166 -116.833 -53.499 -146.5s-5.33301 -55.5 3 -77.5s29.166 -52 62.499 -90c132.667 -150.667 333.334 -191.334 602.001 -122.001c96 22.667 178.333 50 247 82z" />
    <glyph glyph-name="O" unicode="&#xd8;" horiz-adv-x="1646" 
d="M1926 924c1.33301 -11.333 -11.501 -27.6699 -38.501 -49.0029s-78.833 -56.666 -155.5 -105.999c-140.667 -89.333 -251.334 -155.333 -332.001 -198c-60 -33.333 -101.167 -59.666 -123.5 -78.999s-50.833 -54.333 -85.5 -105
c-108.667 -160.667 -231.5 -308.167 -368.5 -442.5s-254.5 -222.833 -352.5 -265.5c-40.667 -17.333 -85.167 -29.333 -133.5 -36s-88.833 -6 -121.5 2c-74 17.333 -129 63.333 -165 138c-32.667 66.667 -47.167 178.334 -43.5 335.001s24.5 306 62.5 448
c20 76.667 30 155 30 235c0 113.333 26.333 239 79 377s122.5 266.833 209.5 386.5s178.167 211.5 273.5 275.5c55.333 36.667 109.666 62.667 162.999 78s116.666 23 189.999 23c114.667 0 207.334 -20 278.001 -60s127.334 -104.333 170.001 -193
c59.333 -120.667 85 -260.667 77 -420s-48.333 -321.666 -121 -486.999c-33.333 -76.667 -47.666 -117.334 -42.999 -122.001c5.33301 -5.33301 52.333 17.667 141 69s171.334 103 248.001 155c33.333 22 59.5 38.5 78.5 49.5s34.667 18 47 21s21 2.16699 26 -2.5
s8.5 -13.667 10.5 -27zM772.999 9.99609c60.667 62 133.997 144.17 219.997 246.503s129 158.833 129 169.5c0 2.66699 -13.667 0.166992 -41 -7.5s-61.333 -18.167 -102 -31.5c-61.333 -20.667 -110.666 -33.834 -147.999 -39.501s-92.666 -8.83398 -165.999 -9.50098
c-77.333 -0.666992 -130 1.33301 -158 6s-64.333 17.334 -109 38.001c-63.333 28.667 -119.333 68.667 -168 120c-47.333 52 -73 76 -77 72c-10.667 -11.333 -23.167 -66.333 -37.5 -165s-23.166 -187.334 -26.499 -266.001c-5.33301 -112 -2.83301 -194.333 7.5 -247
s31.833 -95.334 64.5 -128.001c18.667 -18 35.834 -29.833 51.501 -35.5s39.167 -8.5 70.5 -8.5c51.333 0 93.666 6 126.999 18c100 34.667 221 124 363 268zM1124 525.999c49.333 22.667 81.5 41.6689 96.5 57.002s38.833 54 71.5 116c139.333 266 192 512 158 738
c-14 100 -36.667 179.333 -68 238s-76 105 -134 139c-33.333 18.667 -62 30.334 -86 35.001s-70.667 7 -140 7c-104 0 -185.667 -13.5 -245 -40.5s-130 -82.5 -212 -166.5c-124 -126 -225.333 -289.333 -304 -490c-48.667 -123.333 -66 -179 -52 -167
c11.333 9.33301 40.666 60.666 87.999 153.999c80 156 166 295.333 258 418s168.667 199.667 230 231c30.667 16 59.667 22.167 87 18.5s41 -15.167 41 -34.5c0 -21.333 -18 -36 -54 -44c-33.333 -8.66699 -68.5 -30 -105.5 -64s-84.167 -88.667 -141.5 -164
c-71.333 -94.667 -131.5 -185.834 -180.5 -273.501s-105.167 -205.5 -168.5 -353.5c-29.333 -68 -47.166 -116.833 -53.499 -146.5s-5.33301 -55.5 3 -77.5s29.166 -52 62.499 -90c132.667 -150.667 333.334 -191.334 602.001 -122.001c96 22.667 178.333 50 247 82z" />
    <glyph glyph-name="O" unicode="&#xd6;" horiz-adv-x="1646" 
d="M1926 924c1.33301 -11.333 -11.501 -27.6699 -38.501 -49.0029s-78.833 -56.666 -155.5 -105.999c-140.667 -89.333 -251.334 -155.333 -332.001 -198c-60 -33.333 -101.167 -59.666 -123.5 -78.999s-50.833 -54.333 -85.5 -105
c-108.667 -160.667 -231.5 -308.167 -368.5 -442.5s-254.5 -222.833 -352.5 -265.5c-40.667 -17.333 -85.167 -29.333 -133.5 -36s-88.833 -6 -121.5 2c-74 17.333 -129 63.333 -165 138c-32.667 66.667 -47.167 178.334 -43.5 335.001s24.5 306 62.5 448
c20 76.667 30 155 30 235c0 113.333 26.333 239 79 377s122.5 266.833 209.5 386.5s178.167 211.5 273.5 275.5c55.333 36.667 109.666 62.667 162.999 78s116.666 23 189.999 23c114.667 0 207.334 -20 278.001 -60s127.334 -104.333 170.001 -193
c59.333 -120.667 85 -260.667 77 -420s-48.333 -321.666 -121 -486.999c-33.333 -76.667 -47.666 -117.334 -42.999 -122.001c5.33301 -5.33301 52.333 17.667 141 69s171.334 103 248.001 155c33.333 22 59.5 38.5 78.5 49.5s34.667 18 47 21s21 2.16699 26 -2.5
s8.5 -13.667 10.5 -27zM772.999 9.99609c60.667 62 133.997 144.17 219.997 246.503s129 158.833 129 169.5c0 2.66699 -13.667 0.166992 -41 -7.5s-61.333 -18.167 -102 -31.5c-61.333 -20.667 -110.666 -33.834 -147.999 -39.501s-92.666 -8.83398 -165.999 -9.50098
c-77.333 -0.666992 -130 1.33301 -158 6s-64.333 17.334 -109 38.001c-63.333 28.667 -119.333 68.667 -168 120c-47.333 52 -73 76 -77 72c-10.667 -11.333 -23.167 -66.333 -37.5 -165s-23.166 -187.334 -26.499 -266.001c-5.33301 -112 -2.83301 -194.333 7.5 -247
s31.833 -95.334 64.5 -128.001c18.667 -18 35.834 -29.833 51.501 -35.5s39.167 -8.5 70.5 -8.5c51.333 0 93.666 6 126.999 18c100 34.667 221 124 363 268zM1124 525.999c49.333 22.667 81.5 41.6689 96.5 57.002s38.833 54 71.5 116c139.333 266 192 512 158 738
c-14 100 -36.667 179.333 -68 238s-76 105 -134 139c-33.333 18.667 -62 30.334 -86 35.001s-70.667 7 -140 7c-104 0 -185.667 -13.5 -245 -40.5s-130 -82.5 -212 -166.5c-124 -126 -225.333 -289.333 -304 -490c-48.667 -123.333 -66 -179 -52 -167
c11.333 9.33301 40.666 60.666 87.999 153.999c80 156 166 295.333 258 418s168.667 199.667 230 231c30.667 16 59.667 22.167 87 18.5s41 -15.167 41 -34.5c0 -21.333 -18 -36 -54 -44c-33.333 -8.66699 -68.5 -30 -105.5 -64s-84.167 -88.667 -141.5 -164
c-71.333 -94.667 -131.5 -185.834 -180.5 -273.501s-105.167 -205.5 -168.5 -353.5c-29.333 -68 -47.166 -116.833 -53.499 -146.5s-5.33301 -55.5 3 -77.5s29.166 -52 62.499 -90c132.667 -150.667 333.334 -191.334 602.001 -122.001c96 22.667 178.333 50 247 82z" />
    <glyph glyph-name="O" unicode="&#xd5;" horiz-adv-x="1646" 
d="M1926 924c1.33301 -11.333 -11.501 -27.6699 -38.501 -49.0029s-78.833 -56.666 -155.5 -105.999c-140.667 -89.333 -251.334 -155.333 -332.001 -198c-60 -33.333 -101.167 -59.666 -123.5 -78.999s-50.833 -54.333 -85.5 -105
c-108.667 -160.667 -231.5 -308.167 -368.5 -442.5s-254.5 -222.833 -352.5 -265.5c-40.667 -17.333 -85.167 -29.333 -133.5 -36s-88.833 -6 -121.5 2c-74 17.333 -129 63.333 -165 138c-32.667 66.667 -47.167 178.334 -43.5 335.001s24.5 306 62.5 448
c20 76.667 30 155 30 235c0 113.333 26.333 239 79 377s122.5 266.833 209.5 386.5s178.167 211.5 273.5 275.5c55.333 36.667 109.666 62.667 162.999 78s116.666 23 189.999 23c114.667 0 207.334 -20 278.001 -60s127.334 -104.333 170.001 -193
c59.333 -120.667 85 -260.667 77 -420s-48.333 -321.666 -121 -486.999c-33.333 -76.667 -47.666 -117.334 -42.999 -122.001c5.33301 -5.33301 52.333 17.667 141 69s171.334 103 248.001 155c33.333 22 59.5 38.5 78.5 49.5s34.667 18 47 21s21 2.16699 26 -2.5
s8.5 -13.667 10.5 -27zM772.999 9.99609c60.667 62 133.997 144.17 219.997 246.503s129 158.833 129 169.5c0 2.66699 -13.667 0.166992 -41 -7.5s-61.333 -18.167 -102 -31.5c-61.333 -20.667 -110.666 -33.834 -147.999 -39.501s-92.666 -8.83398 -165.999 -9.50098
c-77.333 -0.666992 -130 1.33301 -158 6s-64.333 17.334 -109 38.001c-63.333 28.667 -119.333 68.667 -168 120c-47.333 52 -73 76 -77 72c-10.667 -11.333 -23.167 -66.333 -37.5 -165s-23.166 -187.334 -26.499 -266.001c-5.33301 -112 -2.83301 -194.333 7.5 -247
s31.833 -95.334 64.5 -128.001c18.667 -18 35.834 -29.833 51.501 -35.5s39.167 -8.5 70.5 -8.5c51.333 0 93.666 6 126.999 18c100 34.667 221 124 363 268zM1124 525.999c49.333 22.667 81.5 41.6689 96.5 57.002s38.833 54 71.5 116c139.333 266 192 512 158 738
c-14 100 -36.667 179.333 -68 238s-76 105 -134 139c-33.333 18.667 -62 30.334 -86 35.001s-70.667 7 -140 7c-104 0 -185.667 -13.5 -245 -40.5s-130 -82.5 -212 -166.5c-124 -126 -225.333 -289.333 -304 -490c-48.667 -123.333 -66 -179 -52 -167
c11.333 9.33301 40.666 60.666 87.999 153.999c80 156 166 295.333 258 418s168.667 199.667 230 231c30.667 16 59.667 22.167 87 18.5s41 -15.167 41 -34.5c0 -21.333 -18 -36 -54 -44c-33.333 -8.66699 -68.5 -30 -105.5 -64s-84.167 -88.667 -141.5 -164
c-71.333 -94.667 -131.5 -185.834 -180.5 -273.501s-105.167 -205.5 -168.5 -353.5c-29.333 -68 -47.166 -116.833 -53.499 -146.5s-5.33301 -55.5 3 -77.5s29.166 -52 62.499 -90c132.667 -150.667 333.334 -191.334 602.001 -122.001c96 22.667 178.333 50 247 82z" />
    <glyph glyph-name="O" unicode="&#xd4;" horiz-adv-x="1646" 
d="M1926 924c1.33301 -11.333 -11.501 -27.6699 -38.501 -49.0029s-78.833 -56.666 -155.5 -105.999c-140.667 -89.333 -251.334 -155.333 -332.001 -198c-60 -33.333 -101.167 -59.666 -123.5 -78.999s-50.833 -54.333 -85.5 -105
c-108.667 -160.667 -231.5 -308.167 -368.5 -442.5s-254.5 -222.833 -352.5 -265.5c-40.667 -17.333 -85.167 -29.333 -133.5 -36s-88.833 -6 -121.5 2c-74 17.333 -129 63.333 -165 138c-32.667 66.667 -47.167 178.334 -43.5 335.001s24.5 306 62.5 448
c20 76.667 30 155 30 235c0 113.333 26.333 239 79 377s122.5 266.833 209.5 386.5s178.167 211.5 273.5 275.5c55.333 36.667 109.666 62.667 162.999 78s116.666 23 189.999 23c114.667 0 207.334 -20 278.001 -60s127.334 -104.333 170.001 -193
c59.333 -120.667 85 -260.667 77 -420s-48.333 -321.666 -121 -486.999c-33.333 -76.667 -47.666 -117.334 -42.999 -122.001c5.33301 -5.33301 52.333 17.667 141 69s171.334 103 248.001 155c33.333 22 59.5 38.5 78.5 49.5s34.667 18 47 21s21 2.16699 26 -2.5
s8.5 -13.667 10.5 -27zM772.999 9.99609c60.667 62 133.997 144.17 219.997 246.503s129 158.833 129 169.5c0 2.66699 -13.667 0.166992 -41 -7.5s-61.333 -18.167 -102 -31.5c-61.333 -20.667 -110.666 -33.834 -147.999 -39.501s-92.666 -8.83398 -165.999 -9.50098
c-77.333 -0.666992 -130 1.33301 -158 6s-64.333 17.334 -109 38.001c-63.333 28.667 -119.333 68.667 -168 120c-47.333 52 -73 76 -77 72c-10.667 -11.333 -23.167 -66.333 -37.5 -165s-23.166 -187.334 -26.499 -266.001c-5.33301 -112 -2.83301 -194.333 7.5 -247
s31.833 -95.334 64.5 -128.001c18.667 -18 35.834 -29.833 51.501 -35.5s39.167 -8.5 70.5 -8.5c51.333 0 93.666 6 126.999 18c100 34.667 221 124 363 268zM1124 525.999c49.333 22.667 81.5 41.6689 96.5 57.002s38.833 54 71.5 116c139.333 266 192 512 158 738
c-14 100 -36.667 179.333 -68 238s-76 105 -134 139c-33.333 18.667 -62 30.334 -86 35.001s-70.667 7 -140 7c-104 0 -185.667 -13.5 -245 -40.5s-130 -82.5 -212 -166.5c-124 -126 -225.333 -289.333 -304 -490c-48.667 -123.333 -66 -179 -52 -167
c11.333 9.33301 40.666 60.666 87.999 153.999c80 156 166 295.333 258 418s168.667 199.667 230 231c30.667 16 59.667 22.167 87 18.5s41 -15.167 41 -34.5c0 -21.333 -18 -36 -54 -44c-33.333 -8.66699 -68.5 -30 -105.5 -64s-84.167 -88.667 -141.5 -164
c-71.333 -94.667 -131.5 -185.834 -180.5 -273.501s-105.167 -205.5 -168.5 -353.5c-29.333 -68 -47.166 -116.833 -53.499 -146.5s-5.33301 -55.5 3 -77.5s29.166 -52 62.499 -90c132.667 -150.667 333.334 -191.334 602.001 -122.001c96 22.667 178.333 50 247 82z" />
    <glyph glyph-name="O" unicode="&#xd3;" horiz-adv-x="1646" 
d="M1926 924c1.33301 -11.333 -11.501 -27.6699 -38.501 -49.0029s-78.833 -56.666 -155.5 -105.999c-140.667 -89.333 -251.334 -155.333 -332.001 -198c-60 -33.333 -101.167 -59.666 -123.5 -78.999s-50.833 -54.333 -85.5 -105
c-108.667 -160.667 -231.5 -308.167 -368.5 -442.5s-254.5 -222.833 -352.5 -265.5c-40.667 -17.333 -85.167 -29.333 -133.5 -36s-88.833 -6 -121.5 2c-74 17.333 -129 63.333 -165 138c-32.667 66.667 -47.167 178.334 -43.5 335.001s24.5 306 62.5 448
c20 76.667 30 155 30 235c0 113.333 26.333 239 79 377s122.5 266.833 209.5 386.5s178.167 211.5 273.5 275.5c55.333 36.667 109.666 62.667 162.999 78s116.666 23 189.999 23c114.667 0 207.334 -20 278.001 -60s127.334 -104.333 170.001 -193
c59.333 -120.667 85 -260.667 77 -420s-48.333 -321.666 -121 -486.999c-33.333 -76.667 -47.666 -117.334 -42.999 -122.001c5.33301 -5.33301 52.333 17.667 141 69s171.334 103 248.001 155c33.333 22 59.5 38.5 78.5 49.5s34.667 18 47 21s21 2.16699 26 -2.5
s8.5 -13.667 10.5 -27zM772.999 9.99609c60.667 62 133.997 144.17 219.997 246.503s129 158.833 129 169.5c0 2.66699 -13.667 0.166992 -41 -7.5s-61.333 -18.167 -102 -31.5c-61.333 -20.667 -110.666 -33.834 -147.999 -39.501s-92.666 -8.83398 -165.999 -9.50098
c-77.333 -0.666992 -130 1.33301 -158 6s-64.333 17.334 -109 38.001c-63.333 28.667 -119.333 68.667 -168 120c-47.333 52 -73 76 -77 72c-10.667 -11.333 -23.167 -66.333 -37.5 -165s-23.166 -187.334 -26.499 -266.001c-5.33301 -112 -2.83301 -194.333 7.5 -247
s31.833 -95.334 64.5 -128.001c18.667 -18 35.834 -29.833 51.501 -35.5s39.167 -8.5 70.5 -8.5c51.333 0 93.666 6 126.999 18c100 34.667 221 124 363 268zM1124 525.999c49.333 22.667 81.5 41.6689 96.5 57.002s38.833 54 71.5 116c139.333 266 192 512 158 738
c-14 100 -36.667 179.333 -68 238s-76 105 -134 139c-33.333 18.667 -62 30.334 -86 35.001s-70.667 7 -140 7c-104 0 -185.667 -13.5 -245 -40.5s-130 -82.5 -212 -166.5c-124 -126 -225.333 -289.333 -304 -490c-48.667 -123.333 -66 -179 -52 -167
c11.333 9.33301 40.666 60.666 87.999 153.999c80 156 166 295.333 258 418s168.667 199.667 230 231c30.667 16 59.667 22.167 87 18.5s41 -15.167 41 -34.5c0 -21.333 -18 -36 -54 -44c-33.333 -8.66699 -68.5 -30 -105.5 -64s-84.167 -88.667 -141.5 -164
c-71.333 -94.667 -131.5 -185.834 -180.5 -273.501s-105.167 -205.5 -168.5 -353.5c-29.333 -68 -47.166 -116.833 -53.499 -146.5s-5.33301 -55.5 3 -77.5s29.166 -52 62.499 -90c132.667 -150.667 333.334 -191.334 602.001 -122.001c96 22.667 178.333 50 247 82z" />
    <glyph glyph-name="O" unicode="&#xd2;" horiz-adv-x="1646" 
d="M1926 924c1.33301 -11.333 -11.501 -27.6699 -38.501 -49.0029s-78.833 -56.666 -155.5 -105.999c-140.667 -89.333 -251.334 -155.333 -332.001 -198c-60 -33.333 -101.167 -59.666 -123.5 -78.999s-50.833 -54.333 -85.5 -105
c-108.667 -160.667 -231.5 -308.167 -368.5 -442.5s-254.5 -222.833 -352.5 -265.5c-40.667 -17.333 -85.167 -29.333 -133.5 -36s-88.833 -6 -121.5 2c-74 17.333 -129 63.333 -165 138c-32.667 66.667 -47.167 178.334 -43.5 335.001s24.5 306 62.5 448
c20 76.667 30 155 30 235c0 113.333 26.333 239 79 377s122.5 266.833 209.5 386.5s178.167 211.5 273.5 275.5c55.333 36.667 109.666 62.667 162.999 78s116.666 23 189.999 23c114.667 0 207.334 -20 278.001 -60s127.334 -104.333 170.001 -193
c59.333 -120.667 85 -260.667 77 -420s-48.333 -321.666 -121 -486.999c-33.333 -76.667 -47.666 -117.334 -42.999 -122.001c5.33301 -5.33301 52.333 17.667 141 69s171.334 103 248.001 155c33.333 22 59.5 38.5 78.5 49.5s34.667 18 47 21s21 2.16699 26 -2.5
s8.5 -13.667 10.5 -27zM772.999 9.99609c60.667 62 133.997 144.17 219.997 246.503s129 158.833 129 169.5c0 2.66699 -13.667 0.166992 -41 -7.5s-61.333 -18.167 -102 -31.5c-61.333 -20.667 -110.666 -33.834 -147.999 -39.501s-92.666 -8.83398 -165.999 -9.50098
c-77.333 -0.666992 -130 1.33301 -158 6s-64.333 17.334 -109 38.001c-63.333 28.667 -119.333 68.667 -168 120c-47.333 52 -73 76 -77 72c-10.667 -11.333 -23.167 -66.333 -37.5 -165s-23.166 -187.334 -26.499 -266.001c-5.33301 -112 -2.83301 -194.333 7.5 -247
s31.833 -95.334 64.5 -128.001c18.667 -18 35.834 -29.833 51.501 -35.5s39.167 -8.5 70.5 -8.5c51.333 0 93.666 6 126.999 18c100 34.667 221 124 363 268zM1124 525.999c49.333 22.667 81.5 41.6689 96.5 57.002s38.833 54 71.5 116c139.333 266 192 512 158 738
c-14 100 -36.667 179.333 -68 238s-76 105 -134 139c-33.333 18.667 -62 30.334 -86 35.001s-70.667 7 -140 7c-104 0 -185.667 -13.5 -245 -40.5s-130 -82.5 -212 -166.5c-124 -126 -225.333 -289.333 -304 -490c-48.667 -123.333 -66 -179 -52 -167
c11.333 9.33301 40.666 60.666 87.999 153.999c80 156 166 295.333 258 418s168.667 199.667 230 231c30.667 16 59.667 22.167 87 18.5s41 -15.167 41 -34.5c0 -21.333 -18 -36 -54 -44c-33.333 -8.66699 -68.5 -30 -105.5 -64s-84.167 -88.667 -141.5 -164
c-71.333 -94.667 -131.5 -185.834 -180.5 -273.501s-105.167 -205.5 -168.5 -353.5c-29.333 -68 -47.166 -116.833 -53.499 -146.5s-5.33301 -55.5 3 -77.5s29.166 -52 62.499 -90c132.667 -150.667 333.334 -191.334 602.001 -122.001c96 22.667 178.333 50 247 82z" />
    <glyph glyph-name="P" unicode="P" horiz-adv-x="1460" 
d="M1630 2177c20 -52.667 29.1709 -144.835 27.5039 -276.502s-13.5 -247.5 -35.5 -347.5c-50.667 -227.333 -109.334 -415.5 -176.001 -564.5s-155.667 -290.167 -267 -423.5c-77.333 -92.667 -155.333 -164.5 -234 -215.5s-176.334 -93.167 -293.001 -126.5l-137 -40
l-53 -160c-32.667 -102.667 -61 -174 -85 -214c-28.667 -46 -60.167 -72.833 -94.5 -80.5s-62.833 5.5 -85.5 39.5c-11.333 17.333 -19 42.833 -23 76.5s-6.66699 96.5 -8 188.5l-2 221l-47 39c-24 20.667 -48.5 53.334 -73.5 98.001s-37.5 78.334 -37.5 101.001
c0 18.667 7.66699 27.667 23 27c20.667 -1.33301 40.667 -16 60 -44l10 -16c12.667 -24 25 -45 37 -63s22.167 -31.167 30.5 -39.5s14.166 -10.833 17.499 -7.5c4.66699 4 20.667 58 48 162c49.333 190 135 416.333 257 679c70.667 155.333 106 250.666 106 285.999
c0 39.333 -8.5 112.5 -25.5 219.5s-32.167 184.833 -45.5 233.5c-24.667 86 -36 134 -34 144c3.33301 6.66699 11.333 10 24 10c29.333 0 52.166 -21 68.499 -63s35.833 -129.333 58.5 -262c20.667 -116.667 33 -177 37 -181c1.33301 -1.33301 4.33301 1.33398 9 8.00098
s10.667 16 18 28s14.666 25.333 21.999 40c47.333 86 108.5 180.833 183.5 284.5s140.5 183.5 196.5 239.5c46.667 47.333 83.334 80.833 110.001 100.5s56.667 34.834 90 45.5c158 52 265.667 3.33301 323 -146zM337.004 -91.001
c17.333 40.667 36.166 92.334 56.499 155.001s30.5 100.667 30.5 114c0 7.33301 -28.333 12.666 -85 15.999c-56 4 -87 -1 -93 -15c-5.33301 -13.333 -7.66602 -65.333 -6.99902 -156s4 -146.667 10 -168c16 -57.333 45.333 -39.333 88 54zM493.004 443.999
c39.333 170.667 69.833 336.332 91.5 496.999s25.5 248.667 11.5 264c-4 4 -16 -13.5 -36 -52.5s-44 -90.833 -72 -155.5l-84 -203c-27.333 -70 -58 -169.667 -92 -299c-28.667 -111.333 -40 -176.666 -34 -195.999s40.333 -29.333 103 -30h72zM1542 1572
c54.667 272 57.6689 468.335 9.00195 589.002c-38.667 93.333 -103.667 125 -195 95c-42 -13.333 -88 -40 -138 -80c-122 -95.333 -271 -299.333 -447 -612l-79 -140l-9 -232c-9.33301 -243.333 -46 -496.333 -110 -759c-17.333 -72.667 -25 -115.334 -23 -128.001
c2 -16 14.667 -22 38 -18c12 2 46.667 11.667 104 29c99.333 31.333 197.166 88.666 293.499 171.999s186.5 189.333 270.5 318c66.667 102 122.667 213.667 168 335s84.666 265 117.999 431z" />
    <glyph glyph-name="Q" unicode="Q" horiz-adv-x="1767" 
d="M1607 2361c42.667 -19.333 83.1641 -51.168 121.497 -95.502c38.333 -44.333 66.166 -91.166 83.499 -140.5c20 -58 30 -172.333 30 -343s-10 -306.667 -30 -408c-37.333 -184 -97.833 -357.5 -181.5 -520.5s-196.5 -325.833 -338.5 -488.5l-122 -140l122 -17
c134.667 -17.333 227.334 -66.333 278.001 -147c17.333 -28.667 26 -57.167 26 -85.5s-9 -42.5 -27 -42.5c-6 0 -14.833 6.5 -26.5 19.5s-22.834 28.5 -33.501 46.5c-28 50.667 -63.5 85 -106.5 103s-108.5 25.333 -196.5 22c-70 -2.66699 -117.167 -7.66699 -141.5 -15
s-68.5 -30.333 -132.5 -69c-74.667 -45.333 -130.167 -75.666 -166.5 -90.999s-83.833 -28.666 -142.5 -39.999c-105.333 -18.667 -218.666 -94.334 -339.999 -227.001c-52 -57.333 -83.667 -88.333 -95 -93c-8 -4 -15.333 0 -22 12c-11.333 17.333 -8 40.833 10 70.5
s53.333 69.834 106 120.501c72.667 71.333 109 108.333 109 111c0 4 -6.66699 6 -20 6c-22 0 -60 15.333 -114 46s-94.333 60.334 -121 89.001c-76 76 -118.667 175 -128 297c-11.333 136.667 18.834 296.5 90.501 479.5s169.167 348.833 292.5 497.5
c40 49.333 64.667 84.166 74 104.499s16.333 56.5 21 108.5c9.33301 101.333 52 208 128 320s179.667 221.333 311 328c114.667 93.333 235.334 156.833 362.001 190.5s233.334 30.834 320.001 -8.5zM1129 306.998c447.333 451.333 660.334 970.01 639.001 1556.01
c-4.66699 132 -24.834 232.333 -60.501 301s-90.167 113 -163.5 133c-64 18 -134.833 18.667 -212.5 2s-157.5 -49.334 -239.5 -98.001c-53.333 -31.333 -128.166 -94 -224.499 -188s-164.166 -170 -203.499 -228c-28.667 -42.667 -54 -91.834 -76 -147.501
s-28.667 -87.5 -20 -95.5c1.33301 -1.33301 6.16602 1.16699 14.499 7.5s18.833 15.666 31.5 27.999s26.334 26.5 41.001 42.5c50 55.333 115.5 115.666 196.5 180.999s141.833 107.333 182.5 126c42.667 20 84.5 28.667 125.5 26s77.333 -12.334 109 -29.001
s56.5 -41.334 74.5 -74.001s25.333 -69 22 -109c-2 -22.667 -5.5 -37.834 -10.5 -45.501s-13.833 -11.5 -26.5 -11.5c-20 0 -31.333 13 -34 39c-4.66699 42 -11.5 71.5 -20.5 88.5s-24.833 31.833 -47.5 44.5c-31.333 16 -64.333 20.667 -99 14
s-78.334 -26.334 -131.001 -59.001c-40 -24.667 -117.333 -91.834 -232 -201.501s-172 -171.167 -172 -184.5c0 -8.66699 11.833 -24.5 35.5 -47.5s53.167 -47.833 88.5 -74.5c24 -18 37.833 -30.667 41.5 -38s1.16699 -16.666 -7.5 -27.999
c-9.33301 -11.333 -17.666 -17 -24.999 -17s-22.333 5.66699 -45 17c-32.667 15.333 -65.334 39 -98.001 71c-13.333 12.667 -26.333 22.667 -39 30s-21.334 9.66602 -26.001 6.99902c-23.333 -14 -68 -70.5 -134 -169.5s-117.667 -186.833 -155 -263.5
c-53.333 -110 -89.5 -201 -108.5 -273s-28.5 -152.333 -28.5 -241c0 -90.667 9.83301 -158.667 29.5 -204s58.167 -89.333 115.5 -132c66 -48.667 130.333 -73.5 193 -74.5s143.667 21.5 243 67.5c97.333 45.333 176.666 77.666 237.999 96.999c40 12.667 72.833 28 98.5 46
s65.834 54.333 120.501 109z" />
    <glyph glyph-name="R" unicode="R" horiz-adv-x="1406" 
d="M1182 997c-80 -84.667 -152.332 -152.332 -216.999 -202.999s-140.667 -99 -228 -145l-133 -71l70 -36c55.333 -28 137.166 -62.833 245.499 -104.5s194.833 -71.5 259.5 -89.5c80.667 -22 169.334 -36 266.001 -42c66.667 -4 108 -8.16699 124 -12.5s24 -13.5 24 -27.5
s-6.66699 -22.833 -20 -26.5s-49 -6.5 -107 -8.5c-98.667 -4 -220 15 -364 57s-296.667 103 -458 183l-142 71l-91 -26c-59.333 -16.667 -105.666 -25 -138.999 -25c-12.667 0 -25.167 -2 -37.5 -6s-20.5 -8.66699 -24.5 -14c-10.667 -14 -29.834 -85.167 -57.501 -213.5
s-46.167 -231.5 -55.5 -309.5c-22 -187.333 -19.667 -299 7 -335c18 -24 25.667 -44 23 -60s-15.334 -24 -38.001 -24c-15.333 0 -27.333 4 -36 12s-17.334 22.333 -26.001 43c-22 51.333 -27.167 149.166 -15.5 293.499s37.167 298.166 76.5 461.499l36 152l-38 23
c-21.333 14 -33 34.167 -35 60.5s5.5 52.166 22.5 77.499s40.167 44 69.5 56c22.667 9.33301 38.667 23.5 48 42.5s14 46.833 14 83.5c0 26.667 16 83.667 48 171c24.667 64.667 79.667 234.334 165 509.001l145 469c15.333 51.333 18.666 77.333 9.99902 77.999
c-7.33301 0 -19.333 -20 -36 -60c-23.333 -58.667 -51.333 -68.667 -84 -30c-9.33301 12.667 -6.33301 34.5 9 65.5s51.666 86.833 108.999 167.5c37.333 52.667 66.833 87.834 88.5 105.5c21.667 17.667 39.167 20.834 52.5 9.5c8 -7.33301 13.5 -13.833 16.5 -19.5
s2.83301 -18.5 -0.5 -38.5s-8.83301 -42.5 -16.5 -67.5l-39.5 -126.5l-121.5 -392.5c-42.333 -142.333 -62.166 -215.166 -59.499 -218.499c4 -1.33301 35.667 42.334 95 131.001c60 88.667 158 201.667 294 339c82.667 83.333 143.834 141.5 183.501 174.5
s81.167 60.167 124.5 81.5c190 92.667 325 71 405 -65c23.333 -39.333 34.333 -106.833 33 -202.5s-14.666 -180.167 -39.999 -253.5c-81.333 -244.667 -216 -466 -404 -664zM391.001 594.002c2.66699 2.66699 1 6.83301 -5 12.5s-15.333 11.5 -28 17.5s-26 11 -40 15
c-24.667 7.33301 -44.5 7.16602 -59.5 -0.500977s-22.5 -21.167 -22.5 -40.5c0 -15.333 3.83301 -24.166 11.5 -26.499s28.5 -0.833008 62.5 4.5c48 6 75 12 81 18zM520.001 647.001c19.333 -1.33301 79.666 24.001 180.999 76.001c190.667 98 362.667 241.667 516 431
s255.333 384.333 306 585c24 93.333 33 174 27 242s-26.667 117.667 -62 149c-24 21.333 -61 30.166 -111 26.5c-50 -3.66699 -101.667 -18.834 -155 -45.501c-112.667 -57.333 -251.667 -183 -417 -377s-294.333 -383.667 -387 -569c-24 -46.667 -52.5 -121.667 -85.5 -225
s-49.5 -169 -49.5 -197c0 -5.33301 2.83301 -10 8.5 -14s11.834 -6 18.501 -6c18.667 0 53.334 -12.333 104.001 -37c53.333 -26 88.666 -39 105.999 -39z" />
    <glyph glyph-name="S" unicode="S" horiz-adv-x="1032" 
d="M1111 2337c86.667 -45.333 138 -107.333 154 -186s-3.66699 -171.334 -59 -278.001c-34 -65.333 -92.167 -149.666 -174.5 -252.999s-132.5 -155 -150.5 -155c-8.66699 0 -15.5 2.33301 -20.5 7s-7.16699 11.334 -6.5 20.001c0 13.333 10 34.833 30 64.5
s63 86.167 129 169.5c74.667 95.333 126 182.166 154 260.499s30 140.833 6 187.5c-28.667 56 -78.667 91.667 -150 107s-147.666 7.33301 -228.999 -24c-90 -35.333 -192 -99.666 -306 -192.999s-197.333 -180.333 -250 -261c-34.667 -53.333 -62.167 -99 -82.5 -137
s-36.333 -76 -48 -114s-17.667 -72 -18 -102s5 -63.667 16 -101s26.5 -74.166 46.5 -110.499s46.667 -79.833 80 -130.5c30.667 -46.667 86.834 -114 168.501 -202s151.167 -156 208.5 -204l72 -60l160 137c99.333 85.333 168 141.333 206 168s64.333 37 79 31
c30 -11.333 26.333 -35.333 -11 -72c-14.667 -15.333 -36 -33.666 -64 -54.999c-53.333 -41.333 -120.333 -97.333 -201 -168l-103 -93l89 -94c55.333 -57.333 92.666 -104.166 111.999 -140.499s29 -77.5 29 -123.5c0 -30.667 -3.66699 -53.834 -11 -69.501
s-25.666 -38.167 -54.999 -67.5c-66.667 -66.667 -164.5 -126.667 -293.5 -180s-249.833 -83.333 -362.5 -90c-57.333 -4 -94.333 -4.66699 -111 -2s-32.667 11.667 -48 27c-22.667 22.667 -34 41.667 -34 57c0 40 27.833 96.667 83.5 170s153.834 182.333 294.501 327
l173 180l-217 219c-88 88.667 -151 156.167 -189 202.5s-71.667 96.166 -101 149.499c-34.667 63.333 -59.834 114.833 -75.501 154.5s-23.834 81.167 -24.501 124.5s6.16602 85.166 20.499 125.499s37.833 93.166 70.5 158.499c32.667 64 62.167 114 88.5 150
s65.5 79.667 117.5 131c158 157.333 308 265.666 450 325c142 59.333 261.333 63.666 358 13zM690 519c-11.333 0 -87.168 -71.4971 -227.501 -214.497s-226.166 -236.5 -257.499 -280.5c-35.333 -48.667 -51.666 -81.667 -48.999 -99s25 -26 67 -26
c45.333 0 108.666 10.333 189.999 31c75.333 19.333 153.166 47.666 233.499 84.999s142.833 74 187.5 110c28.667 23.333 46.834 41.666 54.501 54.999s11.5 32.333 11.5 57c0 37.333 -8.33301 69.333 -25 96c-20 29.333 -53.5 67.666 -100.5 114.999s-75.167 71 -84.5 71z
" />
    <glyph glyph-name="T" unicode="T" horiz-adv-x="1167" 
d="M2491 2017c-40.667 22.667 -73.8301 36.0068 -99.4961 40.0068c-25.667 4 -87.5 5.66699 -185.5 5c-78.667 0 -145.834 -2.83301 -201.5 -8.5c-55.667 -5.66699 -123.5 -16.834 -203.5 -33.501l-69 -14c-118 -23.333 -190.667 -45.333 -218 -66
s-65.666 -82.667 -114.999 -186c-12.667 -25.333 -22.334 -45.333 -29.001 -60c-128.667 -265.333 -330 -642.666 -604 -1132c-60 -108 -101.333 -191 -124 -249c-26.667 -72.667 -73.334 -173.667 -140.001 -303s-111.667 -206.333 -135 -231
c-20 -21.333 -41 -35.333 -63 -42s-38.667 -4.33398 -50 6.99902c-15.333 15.333 -6.33301 58.666 27 129.999s103.666 197.333 210.999 378c60.667 100.667 106 194.667 136 282s50.667 183.333 62 288c11.333 110 6.83301 208.833 -13.5 296.5
s-59.833 177.167 -118.5 268.5c-46 71.333 -98.5 120.5 -157.5 147.5s-142.5 39.5 -250.5 37.5c-83.333 -2.66699 -129.333 3.33301 -138 18c-10.667 16.667 -7.83398 30.5 8.49902 41.5s46.166 19.167 89.499 24.5c52.667 7.33301 164 37.666 334 90.999
c183.333 57.333 390.666 116.333 621.999 177c171.333 45.333 272 73.666 302 84.999c47.333 17.333 79.666 39.666 96.999 66.999c10 15.333 25.333 54 46 116l4 12c9.33301 28.667 17.833 48.667 25.5 60s16.167 16 25.5 14c18.667 -3.33301 28.334 -20 29.001 -50
s-7.66602 -64.667 -24.999 -104c-14.667 -32 -21.334 -50.667 -20.001 -56c2.66699 -10.667 26 -12 70 -4c18.667 2.66699 70.334 13 155.001 31c112.667 22.667 233 37.834 361 45.5c128 7.66699 220 4.83398 276 -8.5c63.333 -14.667 117.666 -41.334 163 -80.001
c36 -30 47 -52.333 33 -67c-3.33301 -3.33301 -7.66602 -6 -13 -8c-12 -4.66699 -46.667 8.66602 -104 39.999zM994.004 1144.01l277.501 530c77.667 155.333 113.5 235.333 107.5 240c-10.667 10 -179.5 -30.833 -506.5 -122.5s-490.5 -143.834 -490.5 -156.501
c0 -9.33301 13.333 -17 40 -23c30 -7.33301 68.5 -34.166 115.5 -80.499s84.833 -94.833 113.5 -145.5c48 -85.333 80.167 -159.333 96.5 -222s24.5 -143.667 24.5 -243c0 -81.333 0.333008 -125 1 -131c3.33301 -18 12.666 -16.667 27.999 4
c14.667 20.667 68.667 118 162 292z" />
    <glyph glyph-name="U" unicode="U" horiz-adv-x="1691" 
d="M1981 2301c54.667 28 95.0039 32.998 121.004 14.998s36.333 -58 31 -120c-7.33301 -78 -41.666 -175.333 -103 -292c-61.333 -116.667 -142.333 -237.667 -243 -363c-30.667 -38.667 -53.667 -72.334 -69 -101.001s-32.833 -70 -52.5 -124s-54.167 -157 -103.5 -309
c-82 -253.333 -136 -431.666 -162 -534.999s-39 -191.666 -39 -264.999c0 -58 5.83301 -98.167 17.5 -120.5s34.167 -36.833 67.5 -43.5c8.66699 -1.33301 16.5 -5.83301 23.5 -13.5s11.167 -16.5 12.5 -26.5c2 -14.667 0.5 -24.167 -4.5 -28.5s-17.167 -6.5 -36.5 -6.5
c-30 0 -61.333 13.333 -94 40c-60.667 51.333 -84 135.333 -70 252c7.33301 64 30.166 168 68.499 312s82.166 289 131.499 435c56.667 168.667 85 255.667 85 261c0 2 -32.167 -28.167 -96.5 -90.5l-271.5 -265.5c-196.667 -194 -337.667 -326.833 -423 -398.5
s-167.666 -126.5 -246.999 -164.5c-42.667 -20 -77.334 -33 -104.001 -39s-64.334 -9 -113.001 -9c-66 0 -118.5 8.83301 -157.5 26.5s-70.5 47.167 -94.5 88.5c-43.333 73.333 -58.166 196.166 -44.499 368.499s52.834 357.5 117.501 555.5
c20.667 62.667 78.834 206.167 174.501 430.5s150.5 345.5 164.5 363.5c10.667 13.333 22.667 20 36 20c19.333 0 29.666 -10.667 30.999 -32s-6 -48.666 -22 -81.999c-22.667 -44 -56.334 -117.333 -101.001 -220c-120.667 -270 -204.334 -488.333 -251.001 -655
s-70 -331 -70 -493c0 -68 2 -113.833 6 -137.5s14 -47.5 30 -71.5c46 -68.667 118.667 -96.5 218 -83.5s208.333 64.5 327 154.5c61.333 46 186.166 159.833 374.499 341.5s332.5 326.834 432.5 435.501l161 176l107 330c55.333 173.333 98.833 292.5 130.5 357.5
s66.5 107.167 104.5 126.5zM1924 1875c62 105.333 104.665 201.334 127.998 288c14 55.333 12.333 83.333 -5 84c-14 0 -33.167 -15 -57.5 -45s-45.166 -63.667 -62.499 -101c-17.333 -39.333 -43.666 -113.5 -78.999 -222.5s-52.666 -170.167 -51.999 -183.5
c0 -11.333 13.333 2 40 40c23.333 33.333 52.666 80 87.999 140z" />
    <glyph glyph-name="U" unicode="&#xdc;" horiz-adv-x="1691" 
d="M1981 2301c54.667 28 95.0039 32.998 121.004 14.998s36.333 -58 31 -120c-7.33301 -78 -41.666 -175.333 -103 -292c-61.333 -116.667 -142.333 -237.667 -243 -363c-30.667 -38.667 -53.667 -72.334 -69 -101.001s-32.833 -70 -52.5 -124s-54.167 -157 -103.5 -309
c-82 -253.333 -136 -431.666 -162 -534.999s-39 -191.666 -39 -264.999c0 -58 5.83301 -98.167 17.5 -120.5s34.167 -36.833 67.5 -43.5c8.66699 -1.33301 16.5 -5.83301 23.5 -13.5s11.167 -16.5 12.5 -26.5c2 -14.667 0.5 -24.167 -4.5 -28.5s-17.167 -6.5 -36.5 -6.5
c-30 0 -61.333 13.333 -94 40c-60.667 51.333 -84 135.333 -70 252c7.33301 64 30.166 168 68.499 312s82.166 289 131.499 435c56.667 168.667 85 255.667 85 261c0 2 -32.167 -28.167 -96.5 -90.5l-271.5 -265.5c-196.667 -194 -337.667 -326.833 -423 -398.5
s-167.666 -126.5 -246.999 -164.5c-42.667 -20 -77.334 -33 -104.001 -39s-64.334 -9 -113.001 -9c-66 0 -118.5 8.83301 -157.5 26.5s-70.5 47.167 -94.5 88.5c-43.333 73.333 -58.166 196.166 -44.499 368.499s52.834 357.5 117.501 555.5
c20.667 62.667 78.834 206.167 174.501 430.5s150.5 345.5 164.5 363.5c10.667 13.333 22.667 20 36 20c19.333 0 29.666 -10.667 30.999 -32s-6 -48.666 -22 -81.999c-22.667 -44 -56.334 -117.333 -101.001 -220c-120.667 -270 -204.334 -488.333 -251.001 -655
s-70 -331 -70 -493c0 -68 2 -113.833 6 -137.5s14 -47.5 30 -71.5c46 -68.667 118.667 -96.5 218 -83.5s208.333 64.5 327 154.5c61.333 46 186.166 159.833 374.499 341.5s332.5 326.834 432.5 435.501l161 176l107 330c55.333 173.333 98.833 292.5 130.5 357.5
s66.5 107.167 104.5 126.5zM1924 1875c62 105.333 104.665 201.334 127.998 288c14 55.333 12.333 83.333 -5 84c-14 0 -33.167 -15 -57.5 -45s-45.166 -63.667 -62.499 -101c-17.333 -39.333 -43.666 -113.5 -78.999 -222.5s-52.666 -170.167 -51.999 -183.5
c0 -11.333 13.333 2 40 40c23.333 33.333 52.666 80 87.999 140z" />
    <glyph glyph-name="U" unicode="&#xdb;" horiz-adv-x="1691" 
d="M1981 2301c54.667 28 95.0039 32.998 121.004 14.998s36.333 -58 31 -120c-7.33301 -78 -41.666 -175.333 -103 -292c-61.333 -116.667 -142.333 -237.667 -243 -363c-30.667 -38.667 -53.667 -72.334 -69 -101.001s-32.833 -70 -52.5 -124s-54.167 -157 -103.5 -309
c-82 -253.333 -136 -431.666 -162 -534.999s-39 -191.666 -39 -264.999c0 -58 5.83301 -98.167 17.5 -120.5s34.167 -36.833 67.5 -43.5c8.66699 -1.33301 16.5 -5.83301 23.5 -13.5s11.167 -16.5 12.5 -26.5c2 -14.667 0.5 -24.167 -4.5 -28.5s-17.167 -6.5 -36.5 -6.5
c-30 0 -61.333 13.333 -94 40c-60.667 51.333 -84 135.333 -70 252c7.33301 64 30.166 168 68.499 312s82.166 289 131.499 435c56.667 168.667 85 255.667 85 261c0 2 -32.167 -28.167 -96.5 -90.5l-271.5 -265.5c-196.667 -194 -337.667 -326.833 -423 -398.5
s-167.666 -126.5 -246.999 -164.5c-42.667 -20 -77.334 -33 -104.001 -39s-64.334 -9 -113.001 -9c-66 0 -118.5 8.83301 -157.5 26.5s-70.5 47.167 -94.5 88.5c-43.333 73.333 -58.166 196.166 -44.499 368.499s52.834 357.5 117.501 555.5
c20.667 62.667 78.834 206.167 174.501 430.5s150.5 345.5 164.5 363.5c10.667 13.333 22.667 20 36 20c19.333 0 29.666 -10.667 30.999 -32s-6 -48.666 -22 -81.999c-22.667 -44 -56.334 -117.333 -101.001 -220c-120.667 -270 -204.334 -488.333 -251.001 -655
s-70 -331 -70 -493c0 -68 2 -113.833 6 -137.5s14 -47.5 30 -71.5c46 -68.667 118.667 -96.5 218 -83.5s208.333 64.5 327 154.5c61.333 46 186.166 159.833 374.499 341.5s332.5 326.834 432.5 435.501l161 176l107 330c55.333 173.333 98.833 292.5 130.5 357.5
s66.5 107.167 104.5 126.5zM1924 1875c62 105.333 104.665 201.334 127.998 288c14 55.333 12.333 83.333 -5 84c-14 0 -33.167 -15 -57.5 -45s-45.166 -63.667 -62.499 -101c-17.333 -39.333 -43.666 -113.5 -78.999 -222.5s-52.666 -170.167 -51.999 -183.5
c0 -11.333 13.333 2 40 40c23.333 33.333 52.666 80 87.999 140z" />
    <glyph glyph-name="U" unicode="&#xda;" horiz-adv-x="1691" 
d="M1981 2301c54.667 28 95.0039 32.998 121.004 14.998s36.333 -58 31 -120c-7.33301 -78 -41.666 -175.333 -103 -292c-61.333 -116.667 -142.333 -237.667 -243 -363c-30.667 -38.667 -53.667 -72.334 -69 -101.001s-32.833 -70 -52.5 -124s-54.167 -157 -103.5 -309
c-82 -253.333 -136 -431.666 -162 -534.999s-39 -191.666 -39 -264.999c0 -58 5.83301 -98.167 17.5 -120.5s34.167 -36.833 67.5 -43.5c8.66699 -1.33301 16.5 -5.83301 23.5 -13.5s11.167 -16.5 12.5 -26.5c2 -14.667 0.5 -24.167 -4.5 -28.5s-17.167 -6.5 -36.5 -6.5
c-30 0 -61.333 13.333 -94 40c-60.667 51.333 -84 135.333 -70 252c7.33301 64 30.166 168 68.499 312s82.166 289 131.499 435c56.667 168.667 85 255.667 85 261c0 2 -32.167 -28.167 -96.5 -90.5l-271.5 -265.5c-196.667 -194 -337.667 -326.833 -423 -398.5
s-167.666 -126.5 -246.999 -164.5c-42.667 -20 -77.334 -33 -104.001 -39s-64.334 -9 -113.001 -9c-66 0 -118.5 8.83301 -157.5 26.5s-70.5 47.167 -94.5 88.5c-43.333 73.333 -58.166 196.166 -44.499 368.499s52.834 357.5 117.501 555.5
c20.667 62.667 78.834 206.167 174.501 430.5s150.5 345.5 164.5 363.5c10.667 13.333 22.667 20 36 20c19.333 0 29.666 -10.667 30.999 -32s-6 -48.666 -22 -81.999c-22.667 -44 -56.334 -117.333 -101.001 -220c-120.667 -270 -204.334 -488.333 -251.001 -655
s-70 -331 -70 -493c0 -68 2 -113.833 6 -137.5s14 -47.5 30 -71.5c46 -68.667 118.667 -96.5 218 -83.5s208.333 64.5 327 154.5c61.333 46 186.166 159.833 374.499 341.5s332.5 326.834 432.5 435.501l161 176l107 330c55.333 173.333 98.833 292.5 130.5 357.5
s66.5 107.167 104.5 126.5zM1924 1875c62 105.333 104.665 201.334 127.998 288c14 55.333 12.333 83.333 -5 84c-14 0 -33.167 -15 -57.5 -45s-45.166 -63.667 -62.499 -101c-17.333 -39.333 -43.666 -113.5 -78.999 -222.5s-52.666 -170.167 -51.999 -183.5
c0 -11.333 13.333 2 40 40c23.333 33.333 52.666 80 87.999 140z" />
    <glyph glyph-name="U" unicode="&#xd9;" horiz-adv-x="1691" 
d="M1981 2301c54.667 28 95.0039 32.998 121.004 14.998s36.333 -58 31 -120c-7.33301 -78 -41.666 -175.333 -103 -292c-61.333 -116.667 -142.333 -237.667 -243 -363c-30.667 -38.667 -53.667 -72.334 -69 -101.001s-32.833 -70 -52.5 -124s-54.167 -157 -103.5 -309
c-82 -253.333 -136 -431.666 -162 -534.999s-39 -191.666 -39 -264.999c0 -58 5.83301 -98.167 17.5 -120.5s34.167 -36.833 67.5 -43.5c8.66699 -1.33301 16.5 -5.83301 23.5 -13.5s11.167 -16.5 12.5 -26.5c2 -14.667 0.5 -24.167 -4.5 -28.5s-17.167 -6.5 -36.5 -6.5
c-30 0 -61.333 13.333 -94 40c-60.667 51.333 -84 135.333 -70 252c7.33301 64 30.166 168 68.499 312s82.166 289 131.499 435c56.667 168.667 85 255.667 85 261c0 2 -32.167 -28.167 -96.5 -90.5l-271.5 -265.5c-196.667 -194 -337.667 -326.833 -423 -398.5
s-167.666 -126.5 -246.999 -164.5c-42.667 -20 -77.334 -33 -104.001 -39s-64.334 -9 -113.001 -9c-66 0 -118.5 8.83301 -157.5 26.5s-70.5 47.167 -94.5 88.5c-43.333 73.333 -58.166 196.166 -44.499 368.499s52.834 357.5 117.501 555.5
c20.667 62.667 78.834 206.167 174.501 430.5s150.5 345.5 164.5 363.5c10.667 13.333 22.667 20 36 20c19.333 0 29.666 -10.667 30.999 -32s-6 -48.666 -22 -81.999c-22.667 -44 -56.334 -117.333 -101.001 -220c-120.667 -270 -204.334 -488.333 -251.001 -655
s-70 -331 -70 -493c0 -68 2 -113.833 6 -137.5s14 -47.5 30 -71.5c46 -68.667 118.667 -96.5 218 -83.5s208.333 64.5 327 154.5c61.333 46 186.166 159.833 374.499 341.5s332.5 326.834 432.5 435.501l161 176l107 330c55.333 173.333 98.833 292.5 130.5 357.5
s66.5 107.167 104.5 126.5zM1924 1875c62 105.333 104.665 201.334 127.998 288c14 55.333 12.333 83.333 -5 84c-14 0 -33.167 -15 -57.5 -45s-45.166 -63.667 -62.499 -101c-17.333 -39.333 -43.666 -113.5 -78.999 -222.5s-52.666 -170.167 -51.999 -183.5
c0 -11.333 13.333 2 40 40c23.333 33.333 52.666 80 87.999 140z" />
    <glyph glyph-name="V" unicode="V" horiz-adv-x="1331" 
d="M1999 1882c1.33301 -6 -11.9961 -26 -39.9961 -60s-63 -72.667 -105 -116c-152.667 -156.667 -289.334 -321.334 -410.001 -494.001s-272.667 -421.334 -456 -746.001c-188 -331.333 -328 -562 -420 -692s-170 -207 -234 -231c-34 -13.333 -72.5 -18.166 -115.5 -14.499
s-75.5 14.167 -97.5 31.5c-51.333 40.667 -85.166 113.834 -101.499 219.501s-17.5 260.5 -3.5 464.5c15.333 226.667 37.833 421.5 67.5 584.5s85.5 398.167 167.5 705.5c108.667 412.667 182.667 662 222 748c24.667 55.333 47 76 67 62l6 -5
c12 -12.667 4.66699 -59.334 -22 -140c-52.667 -160.667 -119 -394 -199 -700s-133 -529 -159 -669c-36 -196.667 -60.833 -394.667 -74.5 -594s-12.5 -346.333 3.5 -441c11.333 -70.667 27.166 -120 47.499 -148s50.166 -42 89.499 -42c27.333 0 52.166 4.5 74.499 13.5
s49.166 28.667 80.499 59s63.333 67.5 96 111.5s75.167 108 127.5 192l167.5 279l224 392c146 258 279.667 471.5 401 640.5s254 326.5 398 472.5c87.333 89.333 143.333 137 168 143c15.333 4 25.333 -4.66699 30 -26z" />
    <glyph glyph-name="W" unicode="W" horiz-adv-x="2043" 
d="M2128 2294c42 -22 68.6689 -56.667 80.002 -104s14.666 -136.666 9.99902 -267.999c-14 -403.333 -116.333 -836 -307 -1298c-76 -184.667 -145.333 -332.167 -208 -442.5s-131.667 -206.166 -207 -287.499c-134 -144.667 -265.667 -192.667 -395 -144
c-56 20.667 -109.833 62.5 -161.5 125.5s-92.167 137.167 -121.5 222.5c-20 57.333 -32 123.833 -36 199.5s0.666992 149.167 14 220.5c10.667 54.667 14 84 10 88c-1.33301 2 -10 -11 -26 -39l-63 -113c-73.333 -140 -143.666 -254.667 -210.999 -344
s-126.666 -147.333 -177.999 -174s-102.5 -29.667 -153.5 -9s-91.833 61.334 -122.5 122.001c-27.333 54 -42.666 135.5 -45.999 244.5s6.66699 220.167 30 333.5c31.333 156.667 86.333 339 165 547s174 424.333 286 649c51.333 103.333 91.166 173.166 119.499 209.499
s53.5 50.166 75.5 41.499c14 -6 20.833 -18.333 20.5 -37s-7.5 -30.667 -21.5 -36c-12.667 -4.66699 -55.5 -80.5 -128.5 -227.5s-139.833 -291.5 -200.5 -433.5c-132.667 -309.333 -216.334 -585.166 -251.001 -827.499s-14 -403.5 62 -483.5
c35.333 -38 76 -45.667 122 -23s101.333 78 166 166c60 81.333 151 233.833 273 457.5s211 401.167 267 532.5c86 203.333 153.667 303.666 203 300.999c9.33301 -0.666992 18 -5 26 -13c11.333 -11.333 9.5 -35.666 -5.5 -72.999s-52.833 -111.333 -113.5 -222
c-78 -141.333 -139 -292.166 -183 -452.499s-62.667 -299.833 -56 -418.5c4 -73.333 21.167 -144.333 51.5 -213s70.833 -128.334 121.5 -179.001c33.333 -34 57.666 -54.333 72.999 -61s45 -10 89 -10c38 0 66.5 2.83301 85.5 8.5s41.167 17.5 66.5 35.5
c60.667 44.667 124 113.167 190 205.5s126.667 198.5 182 318.5c134.667 287.333 239 572.166 313 854.499s111 536.166 111 761.499c0 64.667 -2 108.667 -6 132s-13 43.666 -27 61c-18 24 -43.167 37.667 -75.5 41s-60.833 -4.33398 -85.5 -23
c-28.667 -21.333 -54 -26.666 -76 -16c-18 8 -22.667 21.667 -14 41c3.33301 7.33301 8.66602 14.666 15.999 22c28 28 67.333 45 118 51s95 -0.666992 133 -20z" />
    <glyph glyph-name="X" unicode="X" horiz-adv-x="1898" 
d="M2198 2117c28.667 -11.333 28.0029 -32.6641 -1.99707 -63.998c-14.667 -16.667 -38.667 -38 -72 -64c-120.667 -95.333 -253.167 -211.833 -397.5 -349.5s-284.833 -281.834 -421.5 -432.501c-88.667 -97.333 -191.334 -216.333 -308.001 -357
s-179.667 -221.334 -189 -242.001c-6.66699 -13.333 -5.83398 -32.166 2.49902 -56.499s28.5 -67.5 60.5 -129.5c72.667 -140 148 -248.167 226 -324.5s152.333 -114.5 223 -114.5c46 0 91 10.333 135 31c59.333 29.333 131.166 90 215.499 182s166.833 200.333 247.5 325
c59.333 92 99 127 119 105c3.33301 -4 6.33301 -9.33301 9 -16c9.33301 -24 -28.667 -96.167 -114 -216.5s-171 -222.833 -257 -307.5c-122 -120.667 -237.167 -181.334 -345.5 -182.001s-217.5 58.666 -327.5 177.999c-42 46 -94.667 120.167 -158 222.5
s-95 164.833 -95 187.5c0 16.667 -7.33301 18.334 -22 5.00098c-21.333 -19.333 -79.333 -94 -174 -224c-160.667 -220 -276.5 -391.667 -347.5 -515s-110.833 -223.333 -119.5 -300c-8 -58.667 -20.667 -89.667 -38 -93c-16.667 -2.66699 -29 9 -37 35
c-18.667 74.667 16 193.667 104 357s235 382.333 441 657l143 190l-60 151c-52.667 128 -108.334 295.833 -167.001 503.5s-105.667 404.167 -141 589.5c-19.333 102 -29.666 192.833 -30.999 272.5s6.66699 126.5 24 140.5c32 28 50.333 10 55 -54
c1.33301 -18 1.33301 -40 0 -66c-5.33301 -122 40.334 -368.667 137.001 -740c29.333 -114 69.166 -247.667 119.499 -401s85.166 -248 104.499 -284c8 -15.333 14.333 -23 19 -23c7.33301 0.666992 24.333 17.667 51 51l25 32c66 85.333 162 199.833 288 343.5
s238.333 266.834 337 369.501c154.667 161.333 310.334 308.666 467.001 441.999s247 195.333 271 186z" />
    <glyph glyph-name="Y" unicode="Y" horiz-adv-x="1515" 
d="M1743 1258c15.333 -15.333 12.166 -34.499 -9.50098 -57.499s-76.834 -64.5 -165.501 -124.5l-1 -1h-1l-1 -1l-1 -1l-1 -1h-1l-1 -1l-1 -1h-1l-1 -1l-1 -1h-1l-1 -1l-1 -1l-1 -1h-1l-1 -1l-1 -1h-1l-1 -1l-1 -1h-1l-2 -1l-1 -1l-1 -1h-1l-1 -1l-1 -1h-1l-1 -1l-1 -1
l-1 -1c-136.667 -93.333 -221 -154.666 -253 -183.999c-37.333 -32.667 -69.333 -73.667 -96 -123c-8 -14.667 -21 -40 -39 -76l-12 -24c-60.667 -121.333 -115 -223.833 -163 -307.5s-132 -221.834 -252 -414.501c-116 -186 -203.167 -318.667 -261.5 -398
s-109.166 -134.666 -152.499 -165.999c-38 -28 -77.833 -45.667 -119.5 -53s-73.834 -2.33301 -96.501 15c-50.667 38 -41.834 138.333 26.499 301s177.833 344.667 328.5 546c84 110.667 165.5 208.5 244.5 293.5s165.833 167.5 260.5 247.5l1 1l1 1l1 1h1l1 1l1 1l1 1l1 1
l1 1l1 1c96 80.667 155.667 134.334 179 161.001c28 31.333 54 75.666 78 132.999c5.33301 12.667 14 35 26 67c2.66699 6 4.66699 10.667 6 14c42.667 107.333 82.667 218.333 120 333c22 69.333 50.167 164 84.5 284s63.5 226.333 87.5 319s34.333 139 31 139
c-10 0 -297.333 -232.667 -862 -698c-122 -100.667 -212.5 -172.667 -271.5 -216s-107.167 -73.666 -144.5 -90.999s-77.333 -27.666 -120 -30.999c-41.333 -2.66699 -69.5 -2.33398 -84.5 0.999023s-30.5 12.666 -46.5 27.999
c-35.333 33.333 -45.166 100.833 -29.499 202.5s61.5 266.5 137.5 494.5c66.667 201.333 122 344.666 166 429.999s84.667 128 122 128c12.667 0 21.667 -4.5 27 -13.5s6 -19.667 2 -32s-11.667 -23.5 -23 -33.5c-43.333 -35.333 -112.333 -193.333 -207 -474
c-107.333 -318.667 -158 -515.334 -152 -590.001c2 -28 6 -45 12 -51s23 -10.333 51 -13c82 -6 220 73.667 414 239l670 554c230 185.333 356.667 282.333 380 291c20.667 8 39.334 9.33301 56.001 4s25 -15.333 25 -30s-12.333 -60.334 -37 -137.001
c-23.333 -69.333 -62.666 -205 -117.999 -407c-58 -211.333 -110 -378.333 -156 -501c-50.667 -142 -76 -215 -76 -219c0 -2 5.5 0 16.5 6s26.333 15.5 46 28.5l63.5 43.5c100 71.333 174.333 120.833 223 148.5s77.667 36.834 87 27.501zM474 -317.999
c131.333 202 261.667 413.332 391 633.999s194 341.334 194 362.001c0 16.667 -40.667 -12 -122 -86c-56.667 -51.333 -117.667 -111.333 -183 -180c-98 -102 -194.5 -219.167 -289.5 -351.5s-172.167 -256 -231.5 -371s-89 -200.167 -89 -255.5
c0 -30.667 4.66699 -48 14 -52s29.666 2 60.999 18c30 15.333 69.833 50.5 119.5 105.5s94.834 113.833 135.501 176.5z" />
    <glyph glyph-name="Y" unicode="&#x178;" horiz-adv-x="1515" 
d="M1743 1258c15.333 -15.333 12.166 -34.499 -9.50098 -57.499s-76.834 -64.5 -165.501 -124.5l-1 -1h-1l-1 -1l-1 -1l-1 -1h-1l-1 -1l-1 -1h-1l-1 -1l-1 -1h-1l-1 -1l-1 -1l-1 -1h-1l-1 -1l-1 -1h-1l-1 -1l-1 -1h-1l-2 -1l-1 -1l-1 -1h-1l-1 -1l-1 -1h-1l-1 -1l-1 -1
l-1 -1c-136.667 -93.333 -221 -154.666 -253 -183.999c-37.333 -32.667 -69.333 -73.667 -96 -123c-8 -14.667 -21 -40 -39 -76l-12 -24c-60.667 -121.333 -115 -223.833 -163 -307.5s-132 -221.834 -252 -414.501c-116 -186 -203.167 -318.667 -261.5 -398
s-109.166 -134.666 -152.499 -165.999c-38 -28 -77.833 -45.667 -119.5 -53s-73.834 -2.33301 -96.501 15c-50.667 38 -41.834 138.333 26.499 301s177.833 344.667 328.5 546c84 110.667 165.5 208.5 244.5 293.5s165.833 167.5 260.5 247.5l1 1l1 1l1 1h1l1 1l1 1l1 1l1 1
l1 1l1 1c96 80.667 155.667 134.334 179 161.001c28 31.333 54 75.666 78 132.999c5.33301 12.667 14 35 26 67c2.66699 6 4.66699 10.667 6 14c42.667 107.333 82.667 218.333 120 333c22 69.333 50.167 164 84.5 284s63.5 226.333 87.5 319s34.333 139 31 139
c-10 0 -297.333 -232.667 -862 -698c-122 -100.667 -212.5 -172.667 -271.5 -216s-107.167 -73.666 -144.5 -90.999s-77.333 -27.666 -120 -30.999c-41.333 -2.66699 -69.5 -2.33398 -84.5 0.999023s-30.5 12.666 -46.5 27.999
c-35.333 33.333 -45.166 100.833 -29.499 202.5s61.5 266.5 137.5 494.5c66.667 201.333 122 344.666 166 429.999s84.667 128 122 128c12.667 0 21.667 -4.5 27 -13.5s6 -19.667 2 -32s-11.667 -23.5 -23 -33.5c-43.333 -35.333 -112.333 -193.333 -207 -474
c-107.333 -318.667 -158 -515.334 -152 -590.001c2 -28 6 -45 12 -51s23 -10.333 51 -13c82 -6 220 73.667 414 239l670 554c230 185.333 356.667 282.333 380 291c20.667 8 39.334 9.33301 56.001 4s25 -15.333 25 -30s-12.333 -60.334 -37 -137.001
c-23.333 -69.333 -62.666 -205 -117.999 -407c-58 -211.333 -110 -378.333 -156 -501c-50.667 -142 -76 -215 -76 -219c0 -2 5.5 0 16.5 6s26.333 15.5 46 28.5l63.5 43.5c100 71.333 174.333 120.833 223 148.5s77.667 36.834 87 27.501zM474 -317.999
c131.333 202 261.667 413.332 391 633.999s194 341.334 194 362.001c0 16.667 -40.667 -12 -122 -86c-56.667 -51.333 -117.667 -111.333 -183 -180c-98 -102 -194.5 -219.167 -289.5 -351.5s-172.167 -256 -231.5 -371s-89 -200.167 -89 -255.5
c0 -30.667 4.66699 -48 14 -52s29.666 2 60.999 18c30 15.333 69.833 50.5 119.5 105.5s94.834 113.833 135.501 176.5z" />
    <glyph glyph-name="Y" unicode="&#xdd;" horiz-adv-x="1515" 
d="M1743 1258c15.333 -15.333 12.166 -34.499 -9.50098 -57.499s-76.834 -64.5 -165.501 -124.5l-1 -1h-1l-1 -1l-1 -1l-1 -1h-1l-1 -1l-1 -1h-1l-1 -1l-1 -1h-1l-1 -1l-1 -1l-1 -1h-1l-1 -1l-1 -1h-1l-1 -1l-1 -1h-1l-2 -1l-1 -1l-1 -1h-1l-1 -1l-1 -1h-1l-1 -1l-1 -1
l-1 -1c-136.667 -93.333 -221 -154.666 -253 -183.999c-37.333 -32.667 -69.333 -73.667 -96 -123c-8 -14.667 -21 -40 -39 -76l-12 -24c-60.667 -121.333 -115 -223.833 -163 -307.5s-132 -221.834 -252 -414.501c-116 -186 -203.167 -318.667 -261.5 -398
s-109.166 -134.666 -152.499 -165.999c-38 -28 -77.833 -45.667 -119.5 -53s-73.834 -2.33301 -96.501 15c-50.667 38 -41.834 138.333 26.499 301s177.833 344.667 328.5 546c84 110.667 165.5 208.5 244.5 293.5s165.833 167.5 260.5 247.5l1 1l1 1l1 1h1l1 1l1 1l1 1l1 1
l1 1l1 1c96 80.667 155.667 134.334 179 161.001c28 31.333 54 75.666 78 132.999c5.33301 12.667 14 35 26 67c2.66699 6 4.66699 10.667 6 14c42.667 107.333 82.667 218.333 120 333c22 69.333 50.167 164 84.5 284s63.5 226.333 87.5 319s34.333 139 31 139
c-10 0 -297.333 -232.667 -862 -698c-122 -100.667 -212.5 -172.667 -271.5 -216s-107.167 -73.666 -144.5 -90.999s-77.333 -27.666 -120 -30.999c-41.333 -2.66699 -69.5 -2.33398 -84.5 0.999023s-30.5 12.666 -46.5 27.999
c-35.333 33.333 -45.166 100.833 -29.499 202.5s61.5 266.5 137.5 494.5c66.667 201.333 122 344.666 166 429.999s84.667 128 122 128c12.667 0 21.667 -4.5 27 -13.5s6 -19.667 2 -32s-11.667 -23.5 -23 -33.5c-43.333 -35.333 -112.333 -193.333 -207 -474
c-107.333 -318.667 -158 -515.334 -152 -590.001c2 -28 6 -45 12 -51s23 -10.333 51 -13c82 -6 220 73.667 414 239l670 554c230 185.333 356.667 282.333 380 291c20.667 8 39.334 9.33301 56.001 4s25 -15.333 25 -30s-12.333 -60.334 -37 -137.001
c-23.333 -69.333 -62.666 -205 -117.999 -407c-58 -211.333 -110 -378.333 -156 -501c-50.667 -142 -76 -215 -76 -219c0 -2 5.5 0 16.5 6s26.333 15.5 46 28.5l63.5 43.5c100 71.333 174.333 120.833 223 148.5s77.667 36.834 87 27.501zM474 -317.999
c131.333 202 261.667 413.332 391 633.999s194 341.334 194 362.001c0 16.667 -40.667 -12 -122 -86c-56.667 -51.333 -117.667 -111.333 -183 -180c-98 -102 -194.5 -219.167 -289.5 -351.5s-172.167 -256 -231.5 -371s-89 -200.167 -89 -255.5
c0 -30.667 4.66699 -48 14 -52s29.666 2 60.999 18c30 15.333 69.833 50.5 119.5 105.5s94.834 113.833 135.501 176.5z" />
    <glyph glyph-name="Z" unicode="Z" horiz-adv-x="2220" 
d="M2235 360c62.667 -24 115.502 -51.8311 158.502 -83.498s64.5 -58.834 64.5 -81.501c0 -26.667 -15.333 -33.667 -46 -21c-18 7.33301 -43.667 22.333 -77 45c-60 40 -120 67.667 -180 83s-146 25.333 -258 30c-232.667 9.33301 -488 -21 -766 -91
c-104 -26 -174.333 -47.5 -211 -64.5s-85 -50.5 -145 -100.5c-154.667 -128.667 -304.167 -229.834 -448.5 -303.501s-243.833 -99.5 -298.5 -77.5c-22.667 8.66699 -28.167 28.834 -16.5 60.501s37.167 65.834 76.5 102.501c43.333 41.333 131.5 97 264.5 167
s258.833 127.333 377.5 172l139 53l248 248c167.333 167.333 339.166 359.333 515.499 576s298.5 386 366.5 508c34 62 60 125.833 78 191.5s23.667 118.5 17 158.5c-11.333 65.333 -45 111.333 -101 138s-139.667 36 -251 28
c-428.667 -30.667 -868.334 -207.334 -1319 -530.001c-59.333 -41.333 -97 -53.333 -113 -36c-4.66699 4.66699 -7 11.334 -7 20.001c0 24 64.167 78.667 192.5 164s265.5 164.666 411.5 237.999c164.667 82.667 358.5 145.667 581.5 189.001
c223 43.333 388.5 50.333 496.5 21c40.667 -11.333 78 -34.666 112 -70c34 -35.333 56.333 -74.333 67 -117c26 -93.333 12.5 -200.833 -40.5 -322.5s-155.167 -279.834 -306.5 -474.501c-204.667 -263.333 -401.667 -492.666 -591 -687.999
c-100 -102.667 -152.333 -162.667 -157 -180c-0.666992 -2 0 -2.66699 2 -2c106.667 33.333 238 59.333 394 78s302 25.667 438 21c96.667 -2.66699 164 -6.83398 202 -12.501s81.333 -17.834 130 -36.501zM276.002 -162.998c26.667 14 56 30.334 88 49.001l91.5 55
c29 18 55.5 35.167 79.5 51.5s42.5 30 55.5 41s18.5 17.5 16.5 19.5c-6.66699 6.66699 -50.667 -10.333 -132 -51s-161.333 -84.834 -240 -132.501s-118 -76.5 -118 -86.5c0 -18 45.333 -4 136 42z" />
    <glyph glyph-name="bracketleft" unicode="[" horiz-adv-x="874" 
d="M851 1643c12.667 -24.667 18.8281 -42.832 18.4951 -54.499s-7.16602 -32.167 -20.499 -61.5c-18 -41.333 -37.333 -62 -58 -62c-7.33301 0 -12.666 0.666992 -15.999 2s-5.66602 5.16602 -6.99902 11.499s-1.66602 14.5 -0.999023 24.5s2.33398 25.667 5.00098 47l11 85
h-249l-24 -73c-89.333 -275.333 -175.333 -557.833 -258 -847.5s-131.667 -478.5 -147 -566.5c-9.33301 -50.667 -16 -101.5 -20 -152.5s-4.83301 -92.667 -2.5 -125s7.5 -48.5 15.5 -48.5c16 0 51 7.33301 105 22c64.667 16 124 26.667 178 32
c44.667 6 70.667 7.66699 78 5s9.66602 -13 6.99902 -31c-2.66699 -16 -13 -27.833 -31 -35.5s-63.667 -19.167 -137 -34.5c-100.667 -21.333 -166.667 -32.333 -198 -33s-54.666 8 -69.999 26c-18 20 -26.5 73.667 -25.5 161s11.167 178.333 30.5 273
c23.333 114.667 78.333 320 165 616s165.667 548.667 237 758l41 124l139 4c88.667 3.33301 146 1.33301 172 -6s46.667 -27.333 62 -60z" />
    <glyph glyph-name="bracketright" unicode="]" horiz-adv-x="841" 
d="M834 1639c6 -64 -4.5 -146.667 -31.5 -248s-81.833 -265.666 -164.5 -492.999c-86 -236 -141.167 -399.5 -165.5 -490.5s-36.5 -179.5 -36.5 -265.5c0 -79.333 -4.83301 -134.333 -14.5 -165s-29.834 -53.667 -60.501 -69c-33.333 -17.333 -75.666 -28 -126.999 -32
s-93.666 0.333008 -126.999 13c-40 15.333 -67.667 30 -83 44s-21.666 30.667 -18.999 50c2 14 9.83301 24.667 23.5 32s27.834 9 42.501 5s24 -13 28 -27c5.33301 -20.667 28.166 -34.167 68.499 -40.5s79.666 -4.5 117.999 5.5s57.833 25.333 58.5 46
c4 145.333 14.167 258.833 30.5 340.5s51.166 194.167 104.499 337.5c117.333 314 197 549.833 239 707.5s51.333 255.167 28 292.5c-6.66699 9.33301 -15.5 12.666 -26.5 9.99902s-34.5 -13.334 -70.5 -32.001c-74 -39.333 -117.667 -46.333 -131 -21
c-2.66699 4.66699 -4 10.334 -4 17.001c0 14.667 31.167 38.167 93.5 70.5s107.833 48.5 136.5 48.5c30.667 0 52.167 -9.33301 64.5 -28s20.833 -54.667 25.5 -108z" />
    <glyph glyph-name="a" unicode="a" horiz-adv-x="739" 
d="M974 618l5.99707 -1.99805c4.66699 -0.666992 8.16699 -2.83398 10.5 -6.50098s2.83301 -9.16699 1.5 -16.5c-2 -8.66699 -13.167 -23 -33.5 -43s-53.833 -46.167 -100.5 -78.5s-99 -63.5 -157 -93.5c-60 -31.333 -109.833 -50.5 -149.5 -57.5
s-76.167 -2.83301 -109.5 12.5c-55.333 25.333 -83 69.666 -83 132.999v48l-111 -79c-48.667 -34 -83.167 -55.5 -103.5 -64.5s-43.5 -12.5 -69.5 -10.5c-18.667 1.33301 -33.667 6.66602 -45 15.999s-18.333 21 -21 35s-3.16699 28.333 -1.5 43s4.83398 29.667 9.50098 45
c13.333 42.667 39.833 83.834 79.5 123.501s81.167 65.834 124.5 78.501c27.333 8 49.333 11.667 66 11s39.667 -6.33398 69 -17.001l69 -25l77 60c64.667 50.667 103.667 63.667 117 39c2.66699 -5.33301 4 -12 4 -20c0 -14 -24.667 -45.667 -74 -95
c-42.667 -40.667 -73.667 -83.5 -93 -128.5s-20.666 -77.5 -3.99902 -97.5c24 -30 67.5 -34.667 130.5 -14s155.833 70.334 278.5 149.001c20.667 13.333 39.834 24.666 57.501 33.999s31 15.5 40 18.5s14.167 3.83301 15.5 2.5zM335.997 605.002
c7.33301 12 -0.333008 19.999 -23 23.999c-31.333 6 -61 1.66699 -89 -13c-38.667 -20.667 -75.667 -54.667 -111 -102c-31.333 -42 -41 -67.667 -29 -77c2 -1.33301 5 -2 9 -2c10.667 0 51.667 26 123 78c28.667 19.333 55.167 38.333 79.5 57s37.833 30.334 40.5 35.001z
" />
    <glyph glyph-name="a" unicode="&#xe5;" horiz-adv-x="739" 
d="M974 618l5.99707 -1.99805c4.66699 -0.666992 8.16699 -2.83398 10.5 -6.50098s2.83301 -9.16699 1.5 -16.5c-2 -8.66699 -13.167 -23 -33.5 -43s-53.833 -46.167 -100.5 -78.5s-99 -63.5 -157 -93.5c-60 -31.333 -109.833 -50.5 -149.5 -57.5
s-76.167 -2.83301 -109.5 12.5c-55.333 25.333 -83 69.666 -83 132.999v48l-111 -79c-48.667 -34 -83.167 -55.5 -103.5 -64.5s-43.5 -12.5 -69.5 -10.5c-18.667 1.33301 -33.667 6.66602 -45 15.999s-18.333 21 -21 35s-3.16699 28.333 -1.5 43s4.83398 29.667 9.50098 45
c13.333 42.667 39.833 83.834 79.5 123.501s81.167 65.834 124.5 78.501c27.333 8 49.333 11.667 66 11s39.667 -6.33398 69 -17.001l69 -25l77 60c64.667 50.667 103.667 63.667 117 39c2.66699 -5.33301 4 -12 4 -20c0 -14 -24.667 -45.667 -74 -95
c-42.667 -40.667 -73.667 -83.5 -93 -128.5s-20.666 -77.5 -3.99902 -97.5c24 -30 67.5 -34.667 130.5 -14s155.833 70.334 278.5 149.001c20.667 13.333 39.834 24.666 57.501 33.999s31 15.5 40 18.5s14.167 3.83301 15.5 2.5zM335.997 605.002
c7.33301 12 -0.333008 19.999 -23 23.999c-31.333 6 -61 1.66699 -89 -13c-38.667 -20.667 -75.667 -54.667 -111 -102c-31.333 -42 -41 -67.667 -29 -77c2 -1.33301 5 -2 9 -2c10.667 0 51.667 26 123 78c28.667 19.333 55.167 38.333 79.5 57s37.833 30.334 40.5 35.001z
" />
    <glyph glyph-name="a" unicode="&#xe4;" horiz-adv-x="739" 
d="M974 618l5.99707 -1.99805c4.66699 -0.666992 8.16699 -2.83398 10.5 -6.50098s2.83301 -9.16699 1.5 -16.5c-2 -8.66699 -13.167 -23 -33.5 -43s-53.833 -46.167 -100.5 -78.5s-99 -63.5 -157 -93.5c-60 -31.333 -109.833 -50.5 -149.5 -57.5
s-76.167 -2.83301 -109.5 12.5c-55.333 25.333 -83 69.666 -83 132.999v48l-111 -79c-48.667 -34 -83.167 -55.5 -103.5 -64.5s-43.5 -12.5 -69.5 -10.5c-18.667 1.33301 -33.667 6.66602 -45 15.999s-18.333 21 -21 35s-3.16699 28.333 -1.5 43s4.83398 29.667 9.50098 45
c13.333 42.667 39.833 83.834 79.5 123.501s81.167 65.834 124.5 78.501c27.333 8 49.333 11.667 66 11s39.667 -6.33398 69 -17.001l69 -25l77 60c64.667 50.667 103.667 63.667 117 39c2.66699 -5.33301 4 -12 4 -20c0 -14 -24.667 -45.667 -74 -95
c-42.667 -40.667 -73.667 -83.5 -93 -128.5s-20.666 -77.5 -3.99902 -97.5c24 -30 67.5 -34.667 130.5 -14s155.833 70.334 278.5 149.001c20.667 13.333 39.834 24.666 57.501 33.999s31 15.5 40 18.5s14.167 3.83301 15.5 2.5zM335.997 605.002
c7.33301 12 -0.333008 19.999 -23 23.999c-31.333 6 -61 1.66699 -89 -13c-38.667 -20.667 -75.667 -54.667 -111 -102c-31.333 -42 -41 -67.667 -29 -77c2 -1.33301 5 -2 9 -2c10.667 0 51.667 26 123 78c28.667 19.333 55.167 38.333 79.5 57s37.833 30.334 40.5 35.001z
" />
    <glyph glyph-name="a" unicode="&#xe3;" horiz-adv-x="739" 
d="M974 618l5.99707 -1.99805c4.66699 -0.666992 8.16699 -2.83398 10.5 -6.50098s2.83301 -9.16699 1.5 -16.5c-2 -8.66699 -13.167 -23 -33.5 -43s-53.833 -46.167 -100.5 -78.5s-99 -63.5 -157 -93.5c-60 -31.333 -109.833 -50.5 -149.5 -57.5
s-76.167 -2.83301 -109.5 12.5c-55.333 25.333 -83 69.666 -83 132.999v48l-111 -79c-48.667 -34 -83.167 -55.5 -103.5 -64.5s-43.5 -12.5 -69.5 -10.5c-18.667 1.33301 -33.667 6.66602 -45 15.999s-18.333 21 -21 35s-3.16699 28.333 -1.5 43s4.83398 29.667 9.50098 45
c13.333 42.667 39.833 83.834 79.5 123.501s81.167 65.834 124.5 78.501c27.333 8 49.333 11.667 66 11s39.667 -6.33398 69 -17.001l69 -25l77 60c64.667 50.667 103.667 63.667 117 39c2.66699 -5.33301 4 -12 4 -20c0 -14 -24.667 -45.667 -74 -95
c-42.667 -40.667 -73.667 -83.5 -93 -128.5s-20.666 -77.5 -3.99902 -97.5c24 -30 67.5 -34.667 130.5 -14s155.833 70.334 278.5 149.001c20.667 13.333 39.834 24.666 57.501 33.999s31 15.5 40 18.5s14.167 3.83301 15.5 2.5zM335.997 605.002
c7.33301 12 -0.333008 19.999 -23 23.999c-31.333 6 -61 1.66699 -89 -13c-38.667 -20.667 -75.667 -54.667 -111 -102c-31.333 -42 -41 -67.667 -29 -77c2 -1.33301 5 -2 9 -2c10.667 0 51.667 26 123 78c28.667 19.333 55.167 38.333 79.5 57s37.833 30.334 40.5 35.001z
" />
    <glyph glyph-name="a" unicode="&#xe2;" horiz-adv-x="739" 
d="M974 618l5.99707 -1.99805c4.66699 -0.666992 8.16699 -2.83398 10.5 -6.50098s2.83301 -9.16699 1.5 -16.5c-2 -8.66699 -13.167 -23 -33.5 -43s-53.833 -46.167 -100.5 -78.5s-99 -63.5 -157 -93.5c-60 -31.333 -109.833 -50.5 -149.5 -57.5
s-76.167 -2.83301 -109.5 12.5c-55.333 25.333 -83 69.666 -83 132.999v48l-111 -79c-48.667 -34 -83.167 -55.5 -103.5 -64.5s-43.5 -12.5 -69.5 -10.5c-18.667 1.33301 -33.667 6.66602 -45 15.999s-18.333 21 -21 35s-3.16699 28.333 -1.5 43s4.83398 29.667 9.50098 45
c13.333 42.667 39.833 83.834 79.5 123.501s81.167 65.834 124.5 78.501c27.333 8 49.333 11.667 66 11s39.667 -6.33398 69 -17.001l69 -25l77 60c64.667 50.667 103.667 63.667 117 39c2.66699 -5.33301 4 -12 4 -20c0 -14 -24.667 -45.667 -74 -95
c-42.667 -40.667 -73.667 -83.5 -93 -128.5s-20.666 -77.5 -3.99902 -97.5c24 -30 67.5 -34.667 130.5 -14s155.833 70.334 278.5 149.001c20.667 13.333 39.834 24.666 57.501 33.999s31 15.5 40 18.5s14.167 3.83301 15.5 2.5zM335.997 605.002
c7.33301 12 -0.333008 19.999 -23 23.999c-31.333 6 -61 1.66699 -89 -13c-38.667 -20.667 -75.667 -54.667 -111 -102c-31.333 -42 -41 -67.667 -29 -77c2 -1.33301 5 -2 9 -2c10.667 0 51.667 26 123 78c28.667 19.333 55.167 38.333 79.5 57s37.833 30.334 40.5 35.001z
" />
    <glyph glyph-name="a" unicode="&#xe1;" horiz-adv-x="739" 
d="M974 618l5.99707 -1.99805c4.66699 -0.666992 8.16699 -2.83398 10.5 -6.50098s2.83301 -9.16699 1.5 -16.5c-2 -8.66699 -13.167 -23 -33.5 -43s-53.833 -46.167 -100.5 -78.5s-99 -63.5 -157 -93.5c-60 -31.333 -109.833 -50.5 -149.5 -57.5
s-76.167 -2.83301 -109.5 12.5c-55.333 25.333 -83 69.666 -83 132.999v48l-111 -79c-48.667 -34 -83.167 -55.5 -103.5 -64.5s-43.5 -12.5 -69.5 -10.5c-18.667 1.33301 -33.667 6.66602 -45 15.999s-18.333 21 -21 35s-3.16699 28.333 -1.5 43s4.83398 29.667 9.50098 45
c13.333 42.667 39.833 83.834 79.5 123.501s81.167 65.834 124.5 78.501c27.333 8 49.333 11.667 66 11s39.667 -6.33398 69 -17.001l69 -25l77 60c64.667 50.667 103.667 63.667 117 39c2.66699 -5.33301 4 -12 4 -20c0 -14 -24.667 -45.667 -74 -95
c-42.667 -40.667 -73.667 -83.5 -93 -128.5s-20.666 -77.5 -3.99902 -97.5c24 -30 67.5 -34.667 130.5 -14s155.833 70.334 278.5 149.001c20.667 13.333 39.834 24.666 57.501 33.999s31 15.5 40 18.5s14.167 3.83301 15.5 2.5zM335.997 605.002
c7.33301 12 -0.333008 19.999 -23 23.999c-31.333 6 -61 1.66699 -89 -13c-38.667 -20.667 -75.667 -54.667 -111 -102c-31.333 -42 -41 -67.667 -29 -77c2 -1.33301 5 -2 9 -2c10.667 0 51.667 26 123 78c28.667 19.333 55.167 38.333 79.5 57s37.833 30.334 40.5 35.001z
" />
    <glyph glyph-name="a" unicode="&#xe0;" horiz-adv-x="739" 
d="M974 618l5.99707 -1.99805c4.66699 -0.666992 8.16699 -2.83398 10.5 -6.50098s2.83301 -9.16699 1.5 -16.5c-2 -8.66699 -13.167 -23 -33.5 -43s-53.833 -46.167 -100.5 -78.5s-99 -63.5 -157 -93.5c-60 -31.333 -109.833 -50.5 -149.5 -57.5
s-76.167 -2.83301 -109.5 12.5c-55.333 25.333 -83 69.666 -83 132.999v48l-111 -79c-48.667 -34 -83.167 -55.5 -103.5 -64.5s-43.5 -12.5 -69.5 -10.5c-18.667 1.33301 -33.667 6.66602 -45 15.999s-18.333 21 -21 35s-3.16699 28.333 -1.5 43s4.83398 29.667 9.50098 45
c13.333 42.667 39.833 83.834 79.5 123.501s81.167 65.834 124.5 78.501c27.333 8 49.333 11.667 66 11s39.667 -6.33398 69 -17.001l69 -25l77 60c64.667 50.667 103.667 63.667 117 39c2.66699 -5.33301 4 -12 4 -20c0 -14 -24.667 -45.667 -74 -95
c-42.667 -40.667 -73.667 -83.5 -93 -128.5s-20.666 -77.5 -3.99902 -97.5c24 -30 67.5 -34.667 130.5 -14s155.833 70.334 278.5 149.001c20.667 13.333 39.834 24.666 57.501 33.999s31 15.5 40 18.5s14.167 3.83301 15.5 2.5zM335.997 605.002
c7.33301 12 -0.333008 19.999 -23 23.999c-31.333 6 -61 1.66699 -89 -13c-38.667 -20.667 -75.667 -54.667 -111 -102c-31.333 -42 -41 -67.667 -29 -77c2 -1.33301 5 -2 9 -2c10.667 0 51.667 26 123 78c28.667 19.333 55.167 38.333 79.5 57s37.833 30.334 40.5 35.001z
" />
    <glyph glyph-name="b" unicode="b" horiz-adv-x="702" 
d="M920 679c3.33301 -2.66699 3.50098 -10.167 0.500977 -22.5s-9.5 -22.166 -19.5 -29.499c-7.33301 -5.33301 -47.666 -23.666 -120.999 -54.999s-119.333 -52 -138 -62c-52 -28 -84 -48.833 -96 -62.5s-26.667 -45.5 -44 -95.5c-74.667 -227.333 -163 -341 -265 -341
c-35.333 0 -63.333 10.333 -84 31c-18 18 -27.833 41.833 -29.5 71.5s5.5 55.167 21.5 76.5s23 35.166 21 41.499s-15 8.5 -39 6.5c-32.667 -2 -54.667 12.167 -66 42.5s-14.666 85.166 -9.99902 164.499c5.33301 95.333 16.333 164.333 33 207
c10.667 28.667 16.5 50.834 17.5 66.501s-1.83301 30.834 -8.5 45.501c-6.66699 16 -8.83398 27.5 -6.50098 34.5s11.5 16.167 27.5 27.5c25.333 18 51.666 63.333 78.999 136c91.333 242 182 465.667 272 671c24.667 56 44.5 95 59.5 117s31.5 37 49.5 45
c18 7.33301 32.167 10.5 42.5 9.5s23.166 -6.5 38.499 -16.5c62.667 -40 64.334 -134.5 5.00098 -283.5s-177 -345.833 -353 -590.5c-40 -55.333 -77 -118.5 -111 -189.5s-46.333 -111.167 -37 -120.5c0.666992 -0.666992 4.16699 2.16602 10.5 8.49902s14.333 15.5 24 27.5
l30.5 39c31.333 43.333 70.833 82.166 118.5 116.499s85.5 51.833 113.5 52.5c30 0.666992 54.333 -9.5 73 -30.5s30.667 -47.5 36 -79.5s7.5 -63.667 6.5 -95s-4.83301 -60 -11.5 -86c10.667 6.66699 26.167 15 46.5 25l53.5 26l22 10
c139.333 70 218.666 90.333 237.999 61zM545.001 1627c-22.667 -50.667 -60.167 -141.502 -112.5 -272.502s-78.5 -199.167 -78.5 -204.5c0 -13.333 9.33301 -6.66602 28 20.001l46 69c63.333 97.333 109 175.833 137 235.5s44.333 111.834 49 156.501
c6 59.333 2 87.333 -12 84c-13.333 -4.66699 -32.333 -34 -57 -88zM314.001 139.998c21.333 27.333 44.3311 66.999 68.998 118.999s34.334 80.667 29.001 86c-6 6 -33.5 -14 -82.5 -60s-82.167 -83 -99.5 -111c-23.333 -37.333 -27.666 -63.666 -12.999 -78.999
c12 -14 31 -12 57 6c14 9.33301 27.333 22.333 40 39zM488.999 645.997c2 33.333 2.16797 59.334 0.500977 78.001s-6.83398 31 -15.501 37s-18.167 7.66699 -28.5 5s-23.5 -9 -39.5 -19c-48 -30.667 -96.5 -81.334 -145.5 -152.001s-80.167 -135 -93.5 -193
c-4.66699 -23.333 -5.66699 -40 -3 -50s11 -20.667 25 -32c16.667 -13.333 29.667 -18.333 39 -15s31.333 20.666 66 51.999l127 113c26.667 22.667 43.5 43.834 50.5 63.501s12.833 57.167 17.5 112.5z" />
    <glyph glyph-name="c" unicode="c" horiz-adv-x="471" 
d="M665 660c13.333 -12 0.99707 -35 -37.0029 -69c-22 -19.333 -72.667 -56.833 -152 -112.5s-135.333 -91.167 -168 -106.5c-89.333 -40 -159 -38 -209 6c-34.667 30 -48.334 71 -41.001 123c10.667 74 36.334 143 77.001 207c44 74.667 87.333 126.334 130 155.001
s77.667 29.334 105 2.00098c20 -20 24.5 -59.833 13.5 -119.5s-29.833 -96.5 -56.5 -110.5c-15.333 -8 -28 -9.33301 -38 -4s-15 15.166 -15 29.499s4.66699 31.5 14 51.5c26 49.333 33 75.666 21 78.999c-11.333 4 -32.666 -16 -63.999 -60l-15 -22
c-51.333 -80 -82 -144.5 -92 -193.5s2 -78.833 36 -89.5c22.667 -8 54.334 -2.33301 95.001 17s109 61 205 125c72.667 48.667 120.334 78.5 143.001 89.5s38.667 11.833 48 2.5z" />
    <glyph glyph-name="c" unicode="&#xe7;" horiz-adv-x="471" 
d="M665 660c13.333 -12 0.99707 -35 -37.0029 -69c-22 -19.333 -72.667 -56.833 -152 -112.5s-135.333 -91.167 -168 -106.5c-89.333 -40 -159 -38 -209 6c-34.667 30 -48.334 71 -41.001 123c10.667 74 36.334 143 77.001 207c44 74.667 87.333 126.334 130 155.001
s77.667 29.334 105 2.00098c20 -20 24.5 -59.833 13.5 -119.5s-29.833 -96.5 -56.5 -110.5c-15.333 -8 -28 -9.33301 -38 -4s-15 15.166 -15 29.499s4.66699 31.5 14 51.5c26 49.333 33 75.666 21 78.999c-11.333 4 -32.666 -16 -63.999 -60l-15 -22
c-51.333 -80 -82 -144.5 -92 -193.5s2 -78.833 36 -89.5c22.667 -8 54.334 -2.33301 95.001 17s109 61 205 125c72.667 48.667 120.334 78.5 143.001 89.5s38.667 11.833 48 2.5z" />
    <glyph glyph-name="d" unicode="d" horiz-adv-x="563" 
d="M883 1553c16 -34.667 -7.16895 -123.169 -69.502 -265.502s-142.166 -281.833 -239.499 -418.5c-53.333 -74.667 -92.5 -138.834 -117.5 -192.501s-54.833 -138.5 -89.5 -254.5c-44.667 -148 -70 -277.333 -76 -388s8 -184.667 42 -222
c16.667 -20.667 25 -41.334 25 -62.001c0 -22.667 -9.33301 -33.667 -28 -33c-22 0 -43 14.333 -63 43c-23.333 32.667 -40 76.167 -50 130.5s-12 112.5 -6 174.5c4.66699 49.333 16.667 122 36 218s35.666 163 48.999 201c-9.33301 -13.333 -34.333 -40.666 -75 -81.999
c-42.667 -43.333 -77.667 -69.166 -105 -77.499s-52.666 -0.833008 -75.999 22.5c-14 14 -21 35.667 -21 65s5.66699 61.333 17 96s26.833 70.334 46.5 107.001s41.167 69.834 64.5 99.501s48 54.167 74 73.5s50 29 72 29c28.667 0 53.334 -7.33301 74.001 -22
c14.667 -10.667 31.667 -0.5 51 30.5s72 132.5 158 304.5l136 262.5c44 81 71.667 128.5 83 142.5c19.333 22.667 37 35.5 53 38.5s27.667 -3.83301 35 -20.5zM279.998 604.998c52.667 70.667 70.3311 114.001 52.998 130.001c-3.33301 1.33301 -7.16602 2.33301 -11.499 3
s-10.833 -1 -19.5 -5s-18 -9.33301 -28 -16s-22 -16.834 -36 -30.501s-28.333 -29.834 -43 -48.501c-33.333 -41.333 -61.333 -90.666 -84 -147.999c-20.667 -50.667 -22 -76 -4 -76c8 0 28 16.667 60 50c30.667 31.333 68.334 78.333 113.001 141z" />
    <glyph glyph-name="e" unicode="e" horiz-adv-x="450" 
d="M626 645c6.66699 -16.667 0.498047 -34.332 -18.502 -52.999s-71.5 -58.334 -157.5 -119.001c-97.333 -69.333 -171.666 -113.333 -222.999 -132s-99 -19 -143 -1c-40 16 -61 54.167 -63 114.5s15.333 129.166 52 206.499c23.333 49.333 46.833 89.166 70.5 119.499
s51.834 50.833 84.501 61.5c34 10.667 61.5 4.83398 82.5 -17.499s28.5 -48.5 22.5 -78.5c-6 -32 -28.333 -68.833 -67 -110.5s-72 -62.5 -100 -62.5c-22 0 -36.333 -3.5 -43 -10.5s-13.334 -26.833 -20.001 -59.5c-6 -31.333 -2.33301 -57 11 -77
c10.667 -13.333 20.334 -20.5 29.001 -21.5s27 2.5 55 10.5c38 10.667 111.667 55.667 221 135l99 70.5c24 16.333 44 28 60 35s27 9.33301 33 7s11 -8.16602 15 -17.499zM196.998 720.002c-24 -34.667 -31.334 -54.333 -22.001 -59c6.66699 -2 18.334 4.66699 35.001 20
c25.333 24 38 43 38 57c0 18 -6 24 -18 18c-10 -4.66699 -21 -16.667 -33 -36z" />
    <glyph glyph-name="e" unicode="&#xeb;" horiz-adv-x="450" 
d="M626 645c6.66699 -16.667 0.498047 -34.332 -18.502 -52.999s-71.5 -58.334 -157.5 -119.001c-97.333 -69.333 -171.666 -113.333 -222.999 -132s-99 -19 -143 -1c-40 16 -61 54.167 -63 114.5s15.333 129.166 52 206.499c23.333 49.333 46.833 89.166 70.5 119.499
s51.834 50.833 84.501 61.5c34 10.667 61.5 4.83398 82.5 -17.499s28.5 -48.5 22.5 -78.5c-6 -32 -28.333 -68.833 -67 -110.5s-72 -62.5 -100 -62.5c-22 0 -36.333 -3.5 -43 -10.5s-13.334 -26.833 -20.001 -59.5c-6 -31.333 -2.33301 -57 11 -77
c10.667 -13.333 20.334 -20.5 29.001 -21.5s27 2.5 55 10.5c38 10.667 111.667 55.667 221 135l99 70.5c24 16.333 44 28 60 35s27 9.33301 33 7s11 -8.16602 15 -17.499zM196.998 720.002c-24 -34.667 -31.334 -54.333 -22.001 -59c6.66699 -2 18.334 4.66699 35.001 20
c25.333 24 38 43 38 57c0 18 -6 24 -18 18c-10 -4.66699 -21 -16.667 -33 -36z" />
    <glyph glyph-name="e" unicode="&#xea;" horiz-adv-x="450" 
d="M626 645c6.66699 -16.667 0.498047 -34.332 -18.502 -52.999s-71.5 -58.334 -157.5 -119.001c-97.333 -69.333 -171.666 -113.333 -222.999 -132s-99 -19 -143 -1c-40 16 -61 54.167 -63 114.5s15.333 129.166 52 206.499c23.333 49.333 46.833 89.166 70.5 119.499
s51.834 50.833 84.501 61.5c34 10.667 61.5 4.83398 82.5 -17.499s28.5 -48.5 22.5 -78.5c-6 -32 -28.333 -68.833 -67 -110.5s-72 -62.5 -100 -62.5c-22 0 -36.333 -3.5 -43 -10.5s-13.334 -26.833 -20.001 -59.5c-6 -31.333 -2.33301 -57 11 -77
c10.667 -13.333 20.334 -20.5 29.001 -21.5s27 2.5 55 10.5c38 10.667 111.667 55.667 221 135l99 70.5c24 16.333 44 28 60 35s27 9.33301 33 7s11 -8.16602 15 -17.499zM196.998 720.002c-24 -34.667 -31.334 -54.333 -22.001 -59c6.66699 -2 18.334 4.66699 35.001 20
c25.333 24 38 43 38 57c0 18 -6 24 -18 18c-10 -4.66699 -21 -16.667 -33 -36z" />
    <glyph glyph-name="e" unicode="&#xe9;" horiz-adv-x="450" 
d="M626 645c6.66699 -16.667 0.498047 -34.332 -18.502 -52.999s-71.5 -58.334 -157.5 -119.001c-97.333 -69.333 -171.666 -113.333 -222.999 -132s-99 -19 -143 -1c-40 16 -61 54.167 -63 114.5s15.333 129.166 52 206.499c23.333 49.333 46.833 89.166 70.5 119.499
s51.834 50.833 84.501 61.5c34 10.667 61.5 4.83398 82.5 -17.499s28.5 -48.5 22.5 -78.5c-6 -32 -28.333 -68.833 -67 -110.5s-72 -62.5 -100 -62.5c-22 0 -36.333 -3.5 -43 -10.5s-13.334 -26.833 -20.001 -59.5c-6 -31.333 -2.33301 -57 11 -77
c10.667 -13.333 20.334 -20.5 29.001 -21.5s27 2.5 55 10.5c38 10.667 111.667 55.667 221 135l99 70.5c24 16.333 44 28 60 35s27 9.33301 33 7s11 -8.16602 15 -17.499zM196.998 720.002c-24 -34.667 -31.334 -54.333 -22.001 -59c6.66699 -2 18.334 4.66699 35.001 20
c25.333 24 38 43 38 57c0 18 -6 24 -18 18c-10 -4.66699 -21 -16.667 -33 -36z" />
    <glyph glyph-name="e" unicode="&#xe8;" horiz-adv-x="450" 
d="M626 645c6.66699 -16.667 0.498047 -34.332 -18.502 -52.999s-71.5 -58.334 -157.5 -119.001c-97.333 -69.333 -171.666 -113.333 -222.999 -132s-99 -19 -143 -1c-40 16 -61 54.167 -63 114.5s15.333 129.166 52 206.499c23.333 49.333 46.833 89.166 70.5 119.499
s51.834 50.833 84.501 61.5c34 10.667 61.5 4.83398 82.5 -17.499s28.5 -48.5 22.5 -78.5c-6 -32 -28.333 -68.833 -67 -110.5s-72 -62.5 -100 -62.5c-22 0 -36.333 -3.5 -43 -10.5s-13.334 -26.833 -20.001 -59.5c-6 -31.333 -2.33301 -57 11 -77
c10.667 -13.333 20.334 -20.5 29.001 -21.5s27 2.5 55 10.5c38 10.667 111.667 55.667 221 135l99 70.5c24 16.333 44 28 60 35s27 9.33301 33 7s11 -8.16602 15 -17.499zM196.998 720.002c-24 -34.667 -31.334 -54.333 -22.001 -59c6.66699 -2 18.334 4.66699 35.001 20
c25.333 24 38 43 38 57c0 18 -6 24 -18 18c-10 -4.66699 -21 -16.667 -33 -36z" />
    <glyph glyph-name="f" unicode="f" horiz-adv-x="604" 
d="M704 662c18.667 8.66699 36.6699 8.66895 54.0029 0.00195312c14 -8.66699 15.667 -19 5 -31c-18.667 -20 -94.167 -68.5 -226.5 -145.5s-201.833 -117.833 -208.5 -122.5l-113 -76l9 -67c10 -75.333 4.66699 -170 -16 -284s-54.667 -227 -102 -339
c-18 -42.667 -36.5 -79.334 -55.5 -110.001s-36.333 -53.5 -52 -68.5s-30.667 -25.667 -45 -32s-26.5 -8.5 -36.5 -6.5s-18.333 6.66699 -25 14c-32 35.333 -32.167 119.333 -0.5 252s85.834 288 162.501 466c26.667 62 41.334 100.333 44.001 115
s-2.66602 26.667 -15.999 36c-18.667 13.333 -24.5 27.833 -17.5 43.5s24.167 26.5 51.5 32.5c19.333 4 37.666 18.667 54.999 44s49.666 84.666 96.999 177.999c48.667 96 118.167 222.5 208.5 379.5s152.166 258.5 185.499 304.5c14.667 20.667 33.667 31.667 57 33
s38 -7.33398 44 -26.001c7.33301 -22.667 2.16602 -62.5 -15.501 -119.5s-40.834 -108.833 -69.501 -155.5c-35.333 -59.333 -62.833 -98.833 -82.5 -118.5s-37.834 -26.5 -54.501 -20.5c-8.66699 2.66699 -16 2.66699 -22 0s-15.5 -13 -28.5 -31
s-27.167 -40.833 -42.5 -68.5l-70 -130.5c-48.667 -92.667 -70.667 -140.667 -66 -144c2.66699 -3.33301 39 12.334 109 47.001l142 76c86 46 133 71 141 75zM63.0029 -292.998c22 57.333 39.666 122.333 52.999 195s20 126 20 160c0 16.667 -8.33301 6 -25 -32
c-37.333 -86.667 -77.333 -204 -120 -352c-15.333 -54 -25.666 -95.667 -30.999 -125s-3.33301 -40.333 6 -33c18 13.333 45.333 63.333 82 150z" />
    <glyph glyph-name="g" unicode="g" horiz-adv-x="663" 
d="M858 519c25.333 -4.66699 31.9961 -18.334 19.9961 -41.001c-18 -31.333 -90.667 -104 -218 -218c-4.66699 -3.33301 -9 -7 -13 -11l-245 -219l-111 -270c-74.667 -176.667 -119.667 -285.667 -135 -327c-16 -38.667 -37.167 -61.834 -63.5 -69.501
s-49.833 0.666016 -70.5 24.999s-31 58.833 -31 103.5c0 64 19.5 132.833 58.5 206.5s102.167 161.167 189.5 262.5c42.667 49.333 73 90.5 91 123.5s40.667 87.167 68 162.5c28 80 60.167 186.833 96.5 320.5s54.5 212.167 54.5 235.5
c0 3.33301 -9.66699 -3.16699 -29 -19.5s-45.666 -40.333 -78.999 -72l-108 -105.5c-145.333 -144 -226.666 -218.667 -243.999 -224c-24 -8.66699 -42.5 -7 -55.5 5s-18.833 31.667 -17.5 59c1.33301 33.333 11.166 70 29.499 110s42.833 77.333 73.5 112
c53.333 60.667 109 88.667 167 84c24.667 -1.33301 45.5 2.16699 62.5 10.5s43.5 28.166 79.5 59.499c53.333 48.667 96 81.334 128 98.001c20 10.667 33.667 15.834 41 15.501s16.333 -5.83301 27 -16.5s15.5 -26.5 14.5 -47.5s-9.16699 -70.167 -24.5 -147.5
c-19.333 -99.333 -48.333 -211.666 -87 -336.999c-36.667 -110.667 -52.667 -167.667 -48 -171c0.666992 -1.33301 9.33398 4.5 26.001 17.5s38.667 31.333 66 55l88 78.5c48.667 43.333 92.334 79.833 131.001 109.5s61.334 43.834 68.001 42.501zM257.996 654
c15.333 18.667 20.334 29.332 15.001 31.999c-4 2 -12.667 -3 -26 -15c-42.667 -38 -77 -76 -103 -114c-20.667 -29.333 -28.334 -43.666 -23.001 -42.999c7.33301 1.33301 36.333 27.333 87 78c1.33301 1.33301 18 22 50 62zM141.997 -390.002
c46 110.667 65.667 166.666 59 167.999c-3.33301 0 -13.333 -12 -30 -36c-28.667 -40.667 -52.667 -83.167 -72 -127.5s-29 -79.833 -29 -106.5c-0.666992 -23.333 1.33301 -34.666 6 -33.999c6.66699 0.666992 28.667 46 66 136z" />
    <glyph glyph-name="h" unicode="h" horiz-adv-x="761" 
d="M846 652c16 10 30.6768 11.3301 44.0098 3.99707c17.333 -8.66699 15.333 -25.334 -6 -50.001c-4.66699 -4.66699 -10 -9.66699 -16 -15c-127.333 -113.333 -219.333 -174.666 -276 -183.999c-37.333 -6.66699 -70 -5.66699 -98 3s-53 31.334 -75 68.001
c-9.33301 15.333 -24 47.333 -44 96s-30 73.334 -30 74.001c-4.66699 4.66699 -16.834 -3 -36.501 -23s-43.834 -48.5 -72.501 -85.5s-57.334 -77.167 -86.001 -120.5c-16.667 -26 -33.334 -48.167 -50.001 -66.5s-28 -27.5 -34 -27.5c-15.333 0 -27.333 20 -36 60
c-11.333 56.667 -2 133.834 28 231.501s86 232.834 168 405.501l210 461c59.333 133.333 99.666 219.5 120.999 258.5s39.666 58.5 54.999 58.5c22.667 0 40.167 -17.167 52.5 -51.5s15.166 -75.833 8.49902 -124.5c-6.66699 -41.333 -16.667 -81 -30 -119
s-37.5 -87.5 -72.5 -148.5s-66.167 -112.833 -93.5 -155.5l-145 -224c-84.667 -128 -143.667 -236.333 -177 -325l-45 -126l103 113c32 34.667 59.167 61.334 81.5 80.001s42 30 59 34s30.667 0.333008 41 -11s18.833 -30.333 25.5 -57
c10.667 -43.333 23.167 -80.5 37.5 -111.5s28.666 -53.5 42.999 -67.5s27.333 -23.833 39 -29.5s22.167 -7.83398 31.5 -6.50098c18.667 3.33301 47.667 18.166 87 44.499s79.166 55 119.499 86s63.166 48.167 68.499 51.5z" />
    </font>
</defs>
</svg>
